<?xml version="1.0" standalone="no"?>
<!DOCTYPE svg PUBLIC "-//W3C//DTD SVG 1.1//EN" "http://www.w3.org/Graphics/SVG/1.1/DTD/svg11.dtd" >
<svg xmlns="http://www.w3.org/2000/svg" xmlns:xlink="http://www.w3.org/1999/xlink" version="1.1">
<metadata>
Created by FontForge 20170731 at Wed Mar  9 15:19:50 2016
 By Aleksey,,,
Typeface (c) (NACH OH!). 2013. All Rights Reserved
</metadata>
<defs>
<font id="TUVNohCarbone" horiz-adv-x="1383" >
  <font-face 
    font-family="TUV Noh Carbone"
    font-weight="400"
    font-stretch="normal"
    units-per-em="2048"
    panose-1="0 0 0 0 0 0 0 0 0 0"
    ascent="1638"
    descent="-410"
    x-height="1052"
    cap-height="1483"
    bbox="-596 -495 2220 2326"
    underline-thickness="150"
    underline-position="-440"
    unicode-range="U+000D-FB02"
  />
<missing-glyph horiz-adv-x="508" 
 />
    <glyph glyph-name=".notdef" horiz-adv-x="508" 
 />
    <glyph glyph-name=".null" horiz-adv-x="0" 
 />
    <glyph glyph-name="nonmarkingreturn" unicode="&#xd;" horiz-adv-x="508" 
 />
    <glyph glyph-name="space" unicode=" " horiz-adv-x="508" 
 />
    <glyph glyph-name="exclam" unicode="!" horiz-adv-x="543" 
d="M423 1378l-86 -938h-138l-84 938v104h308v-104zM130 278h277v-277h-277v277z" />
    <glyph glyph-name="quotedbl" unicode="&#x22;" horiz-adv-x="672" 
d="M596 1575v-61l-82 -412h-60q-1 8 -80 412v61h222zM295 1575v-61l-82 -412h-60q-1 8 -80 412v61h222z" />
    <glyph glyph-name="numbersign" unicode="#" horiz-adv-x="1336" 
d="M753 569l86 290h-243l-85 -290h242zM238 957h295l140 477h93l-141 -477h242l142 477h92l-141 -477h259l-29 -97h-259l-83 -290h279l-30 -98h-280l-140 -472h-92l139 472h-240l-142 -472h-92l140 472h-273l30 98h271l86 290h-295z" />
    <glyph glyph-name="dollar" unicode="$" horiz-adv-x="1069" 
d="M473 1590h46v-1680h-46v1680zM987 1028l-224 -88v47q44 15 53 40q7 23 7 130v111q0 133 -152 142h-143q-84 0 -126 -27q-52 -34 -52 -115v-132q0 -64 39 -105l381 -281l161 -128q28 -29 41 -55v-1q17 -35 17 -96v-193q0 -119 -68 -175q-71 -58 -226 -58h-457
q-92 0 -142 59q-44 51 -44 131v237l234 87v-47q-45 -15 -53 -39q-7 -20 -7 -129v-111q0 -78 49 -112q40 -28 119 -30h117q84 0 126 27q52 34 52 115v132q0 64 -39 105l-381 281l-161 128q-28 29 -41 55v1q-17 35 -17 96v193q0 119 68 175q71 58 225 58h468q61 -2 117 -54
q59 -54 59 -117v-257z" />
    <glyph glyph-name="percent" unicode="%" horiz-adv-x="1431" 
d="M1079 32q94 7 94 92v329v0v127q0 85 -91 93q1 0 -9 1t-20 1t-20 -1t-9 -1q-91 -8 -91 -93v-127v0v-329q0 -85 94 -92h52zM1162 704q98 -1 143 -39q44 -37 44 -114v-398q0 -78 -45 -114q-47 -38 -148 -38v0q-1 -1 -1 0h-204q-1 -1 -1 0v0q-102 0 -148 38q-45 36 -45 114
v398q0 77 44 114q45 38 143 39h218zM371 777q94 7 94 92v329v0v127q0 85 -90 93q1 0 -9 1q-11 1 -20 1q-10 0 -20 -1l-10 -1q-90 -8 -90 -93v-127v0v-329q0 -85 94 -92h51zM455 1450q98 -2 143 -40q43 -37 43 -114v-398q0 -78 -44 -114q-47 -38 -149 -38h-205
q-102 0 -148 38q-45 36 -45 114v398q0 77 43 114q46 38 144 40h218zM1161 1480h68l-991 -1510h-69z" />
    <glyph glyph-name="ampersand" unicode="&#x26;" horiz-adv-x="1401" 
d="M782 239q-110 159 -274 397q-1 1 -45 64q-33 45 -56 81q-135 -75 -161 -218q-23 -125 39 -259q60 -128 158 -186q106 -63 194 -1zM790 1356q-54 55 -130 55q-175 0 -175 -199q0 -83 116 -250l66 -95q121 68 159 190q19 57 19 159q0 83 -55 140zM1018 370l-3 -3l149 -216
q49 -67 77 -86t81 -20h5v-45h-381q-51 75 -129 188q-86 -74 -145 -118q-236 -177 -435 -50q-73 46 -125 125q-45 68 -54 123q-28 176 46 318q83 162 279 233q-80 132 -105 245q-27 156 60 264q49 60 139 95q88 35 191 35q147 0 249 -59q127 -73 127 -215q0 -267 -349 -358
l290 -416l222 186q28 27 14 47q-11 18 -37 18v34h148v-53z" />
    <glyph glyph-name="quotesingle" unicode="'" horiz-adv-x="428" 
d="M339 1575v-69l-97 -466h-72q-1 9 -95 466v69h264z" />
    <glyph glyph-name="parenleft" unicode="(" horiz-adv-x="661" 
d="M577 1560v-50q-84 -30 -139 -87q-17 -18 -31 -37q-101 -140 -101 -594v-317q0 -434 88 -575q20 -31 44 -56q56 -57 139 -87v-49h-3q-323 3 -423 227q-62 141 -62 537v324q0 396 62 537q100 224 423 227h3z" />
    <glyph glyph-name="parenright" unicode=")" horiz-adv-x="758" 
d="M101 -295l-1 50q84 31 139 89q16 17 30 38q99 141 93 594l-4 317q-5 434 -94 574q-20 31 -45 56q-56 56 -140 85l-1 49h3q324 1 426 -222q64 -140 69 -536l4 -324q5 -396 -56 -537q-96 -226 -420 -233h-3z" />
    <glyph glyph-name="asterisk" unicode="*" horiz-adv-x="1024" 
d="M592 1079q93 -115 95 -117l71 -117l-160 -97l-71 117l-54 124q-66 -118 -67 -121l-82 -109l-150 112l82 109l97 98q-136 19 -140 20l-131 37l51 180l132 -37l136 -60q-20 148 -20 151v137h187v-137l-21 -151q143 58 145 59l132 33l46 -181l-132 -33z" />
    <glyph glyph-name="plus" unicode="+" horiz-adv-x="1207" 
d="M1109 668v-106h-463v-463h-106v463h-463v106h463v463h106v-463h463z" />
    <glyph glyph-name="comma" unicode="," horiz-adv-x="402" 
d="M325 238v-301v0q0 -126 -58 -184q-63 -63 -215 -67v51q65 4 91 35q27 34 27 117v117h-76v232h231z" />
    <glyph glyph-name="hyphen" unicode="-" horiz-adv-x="719" 
d="M97 566h518v-167h-518v167z" />
    <glyph glyph-name="period" unicode="." horiz-adv-x="434" 
d="M66 231h231v-231h-231v231z" />
    <glyph glyph-name="slash" unicode="/" horiz-adv-x="1009" 
d="M993 1578l-871 -1867h-118l871 1867h118z" />
    <glyph glyph-name="zero" unicode="0" horiz-adv-x="1299" 
d="M916 1289q0 103 -90 138q-56 21 -183 21q-126 0 -182 -21q-90 -35 -90 -138v-1099q0 -102 90 -137q56 -22 182 -22q127 0 183 22q90 35 90 137v1099zM1067 1412q73 -52 112 -142q40 -89 40 -221v-620q0 -132 -40 -222q-39 -89 -112 -141q-96 -68 -315 -83q1 -2 -78 -2
h-56q-81 0 -79 2q-218 15 -314 83q-73 52 -112 141q-40 90 -40 222v620q0 132 40 221q39 90 112 142q97 70 314 85q-2 2 79 2h56q79 0 78 -2q218 -15 315 -85z" />
    <glyph glyph-name="one" unicode="1" horiz-adv-x="776" 
d="M492 1500h74v-1327q0 -77 29 -103q22 -21 91 -21v-49h-534v49q67 0 90 21q29 26 29 103v1149q-23 -13 -138 -81q-34 -19 -34 -67l-39 -19v101z" />
    <glyph glyph-name="two" unicode="2" horiz-adv-x="1239" 
d="M71 903v482q0 59 37 89q32 26 84 26h655q150 0 228 -70q98 -89 98 -300q0 -160 -87 -252q-73 -77 -223 -120q-180 -52 -507 -152q1 -313 1 -419q0 -138 184 -138h165q62 0 87 23q24 22 24 76v109q0 55 -30 66q-21 8 -71 -6v46l422 109v-472h-958q-63 0 -95 37
q-25 31 -25 78v354q0 62 12 82q19 33 90 50q232 62 461 137q97 31 162 126q76 110 76 266q0 321 -201 321h-186q-90 0 -143 -33q-61 -39 -61 -118v-301l134 38q74 22 74 87l34 11v-117z" />
    <glyph glyph-name="three" unicode="3" horiz-adv-x="1216" 
d="M363 465v-50q-51 -12 -72 -35q-19 -22 -19 -63v-132q0 -50 29 -84q46 -52 153 -52h134q88 0 159 76q65 71 84 168q24 126 -3 240q-38 160 -172 259l-127 -33q-76 -18 -69 -79l-35 -11l-11 107q193 49 249 76q82 39 134 128q66 112 27 283q-20 83 -65 132q-51 56 -127 56
h-185q-180 0 -180 -149v-187q0 -50 18 -70q23 -25 80 -11v-45l-295 -79q2 394 2 476q0 114 119 114h626q141 0 231 -78q96 -82 96 -223q0 -129 -102 -224q-71 -66 -201 -122q149 -60 232 -192q77 -121 77 -263q0 -155 -117 -266q-140 -132 -395 -132h-419q-72 0 -110 54
q-32 45 -32 111v224z" />
    <glyph glyph-name="four" unicode="4" horiz-adv-x="1124" 
d="M636 414v666l-407 -557q-55 -75 -32 -95q17 -14 100 -14h339zM931 173q0 -77 29 -103q24 -21 90 -21v-49h-534v49q68 0 91 21q29 26 29 103v188h-566v53l788 1086h73v-1086h125v-111h-34q0 39 -18 50q-14 8 -73 8v-188z" />
    <glyph glyph-name="five" unicode="5" horiz-adv-x="1233" 
d="M801 997q155 9 256 -112q51 -61 77 -150q27 -90 25 -208q-2 -143 -45 -246q-43 -102 -125 -171q-66 -54 -150 -82t-190 -28h-261q-177 0 -257 128q-61 97 -61 266l371 99v-50q-38 -12 -55 -31q-19 -23 -19 -65v-174q0 -78 28 -103q22 -21 91 -21q172 1 177 0
q124 10 167 152q30 94 30 313v-1q0 213 -54 309q-47 83 -129 90q-60 5 -157 -20l-439 -115v723h1031v-110h-34q0 37 -19 49q-14 8 -47 8h-634v-549q176 48 251 67q103 28 172 32z" />
    <glyph glyph-name="six" unicode="6" horiz-adv-x="1293" 
d="M907 682q0 76 -46 117q-43 37 -105 31q-70 -7 -143 -27l-1 -1l-232 -61l1 -367q0 -132 19 -179q30 -71 89 -107q63 -37 138 -37h76q93 0 147 46q57 48 57 137v448zM1186 649q26 -85 24 -200q-2 -132 -40 -221t-111 -141q-97 -70 -312 -85l1 -1l1 -1h-272q-166 0 -264 50
q-90 46 -122 137q-21 58 -21 156v818q0 208 132 284q96 55 255 55h344q165 0 254 -54q124 -77 132 -267l-384 -105v50q47 17 63 43q12 19 12 67v56q0 72 -39 114q-38 42 -116 42h-188q-78 0 -117 -42q-38 -42 -38 -114v-500q169 48 274 73q96 24 144 30q200 25 313 -101
q48 -53 75 -143z" />
    <glyph glyph-name="seven" unicode="7" horiz-adv-x="1270" 
d="M205 1500h1000v-93l-712 -1291q-20 -36 7 -53q23 -14 69 -14v-49h-499v49q46 0 69 14q16 11 39 43q6 9 362 646q355 636 357 642q19 57 -28 57h-588q-39 0 -39 -68h-37v117z" />
    <glyph glyph-name="eight" unicode="8" horiz-adv-x="1325" 
d="M410 1307v0q0 -1 -1 -1v0q1 0 1 1zM462 116q76 -87 191 -87t191 87q80 94 80 252q0 177 -57 275q-65 113 -214 139q-149 -26 -214 -139q-57 -98 -57 -275q0 -158 80 -252zM468 1393q-77 -70 -77 -238q-4 -81 27 -162q61 -162 235 -162t235 162q31 81 27 162
q0 168 -77 238q-61 56 -185 56t-185 -56zM1145 975q-74 -80 -275 -151q201 -34 294 -167q72 -104 72 -254q0 -158 -100 -274q-129 -149 -379 -149h-208q-250 0 -379 149q-100 116 -100 274q0 150 72 254q93 133 294 167q-201 71 -275 151q-79 86 -79 251q0 149 121 221
q86 51 194 51h360h152q108 0 194 -51q121 -72 121 -221q0 -165 -79 -251z" />
    <glyph glyph-name="nine" unicode="9" horiz-adv-x="1299" 
d="M468 1415q-44 -32 -66 -87q-32 -84 -32 -293q3 -202 5 -223q7 -77 50 -118q42 -41 102 -31q31 5 209 49q166 41 169 40q6 -2 0 371q0 133 -20 179q-32 74 -90 108q-61 37 -138 37h-77q-67 0 -112 -32zM1074 1447q88 -46 120 -137q20 -57 20 -158v-761q0 -198 -130 -306
q-123 -103 -334 -103q-100 -2 -155 -2q-230 0 -357 83q-79 52 -108 136q-10 31 -17 107l367 101v-51q-48 -16 -64 -43q-11 -19 -11 -68v-56q0 -72 38 -114q39 -42 117 -42h188q74 0 115 41q42 41 42 115v515q-198 -54 -278 -74q-129 -32 -209 -32q-163 -1 -247 101
q-3 3 -2 2q-49 57 -75 143q-26 85 -24 202q2 132 40 222q39 90 112 142q123 88 313 88h273q168 0 266 -51z" />
    <glyph glyph-name="colon" unicode=":" horiz-adv-x="443" 
d="M66 231h231v-231h-231v231zM66 1092h231v-231h-231v231z" />
    <glyph glyph-name="semicolon" unicode=";" horiz-adv-x="431" 
d="M325 231v-301v0q0 -126 -58 -184q-63 -63 -215 -67v51q65 4 91 35q27 34 27 117v117h-76v232h231zM91 1092h231v-231h-231v231z" />
    <glyph glyph-name="less" unicode="&#x3c;" horiz-adv-x="1253" 
d="M1175 983l-789 -390l789 -389v-154l-1085 543l1085 542v-152z" />
    <glyph glyph-name="equal" unicode="=" horiz-adv-x="1014" 
d="M927 421h-840v140h840v-140zM927 733h-840v140h840v-140z" />
    <glyph glyph-name="greater" unicode="&#x3e;" horiz-adv-x="1219" 
d="M90 202l789 390l-789 389v154l1085 -543l-1085 -542v152z" />
    <glyph glyph-name="question" unicode="?" horiz-adv-x="1102" 
d="M729 1516q238 0 299 -140q20 -48 20 -116v-104q0 -78 -16 -113t-75 -85q-16 -13 -66 -47q-52 -37 -81 -59q-63 -51 -107 -129q-30 -53 -30 -153v-107h-292q0 159 61 280q53 106 155 191q91 75 119 136q17 37 17 99v138q0 86 -55 121q-44 28 -132 28h-16q-156 -4 -209 -96
q-42 -74 -42 -268l-209 -55v227q1 65 21 112q60 140 298 140h340zM673 275v-275h-292v275h292z" />
    <glyph glyph-name="at" unicode="@" horiz-adv-x="1789" 
d="M1123 1113q0 4 -1 9q5 80 -24 109q-12 11 -34 20q-69 30 -149 17q-101 -16 -161 -97q-9 -10 -17 -20q-31 -42 -57 -99q-79 -168 -91 -357q-4 -57 13 -112q26 -83 86 -132q50 -41 104 -42q30 0 58 13q18 8 36 20q154 125 209 488l11 70q14 92 14 93zM1489 1336
q190 -180 190 -448q0 -78 -16 -150v0v-2q-1 -1 -1 -2q-30 -132 -115 -242q-127 -170 -265 -195q-124 -23 -188 23q-61 43 -69 140q-2 18 -1 39q-27 -39 -59 -76q-18 -21 -36 -41q-32 -34 -68 -58q-56 -38 -116 -46q-49 -7 -99 5q-17 4 -35 11q-128 47 -180 147
q-27 59 -42 120q-35 147 4 293q24 89 73 168q31 51 69 93l3 2q24 25 53 49v1l14 11q2 1 1 1q198 161 426 123q97 -17 170 -68q72 -52 98 -123q17 -44 17 -90l-76 -457v0q-1 -11 -3 -23q0 -20 -4 -40q-6 -78 18 -105q27 -30 96 -3q73 26 152 140q118 174 118 366
q0 235 -176 396q-177 160 -436 160q-336 0 -605 -268q-270 -267 -270 -600q0 -247 170 -407q170 -159 434 -159q155 0 320 73q35 16 49 34q20 25 14 66l44 22l18 -129q-18 -11 -99 -47q-176 -80 -344 -80q-292 0 -479 174q-188 173 -188 442q0 333 246 617q281 323 700 323
q284 0 473 -180z" />
    <glyph glyph-name="A" unicode="A" 
d="M555 560l235 62l-101 335zM510 0h-480v48q56 0 86 31q28 30 50 97l86 261l-20 -5q-80 -19 -80 -89l-34 -10v115l151 40l276 829q40 117 -87 117v49h235q65 0 100 -26q33 -25 52 -84q1 -4 86 -290q56 -190 291 -961q14 -41 36 -56q23 -17 73 -17v-49h-508v49q57 0 82 13
q40 22 11 116l-123 399l-265 -69l-114 -338q-24 -73 3 -100q22 -22 93 -22v-48z" />
    <glyph glyph-name="B" unicode="B" horiz-adv-x="1331" 
d="M914 605q0 77 -2 90q-4 30 -27 51q-30 28 -137 1l-330 -82v-467q0 -83 54 -120q44 -29 128 -29h148q73 0 116 32q50 36 50 117v407zM418 714l382 93q75 18 98 64q16 31 16 119v301q0 85 -41 117q-36 29 -129 29h-326v-723zM943 1483q153 0 232 -67q76 -63 76 -178v-191
q0 -169 -138 -218q138 -50 138 -220v-364q0 -126 -72 -184q-73 -61 -237 -61h-912v49q67 0 90 20q28 25 28 102v418q-39 -11 -56 -24q-25 -21 -25 -64l-34 -10v115l115 31v675q0 77 -28 102q-23 20 -90 20v49h913z" />
    <glyph glyph-name="C" unicode="C" horiz-adv-x="1181" 
d="M1118 1112l-236 -64v49q64 25 64 97v82q0 86 -42 124q-38 34 -118 34h-419v-1235q0 -69 36 -109q37 -40 112 -40h271q79 0 120 42q37 39 37 107v115l175 57v-191q0 -68 -63 -125q-61 -55 -133 -55q-268 1 -407 1h-242q-119 0 -183 69q-60 64 -60 175v993q0 140 90 197
q75 48 219 48h583q93 0 145 -49q51 -48 51 -131v-191z" />
    <glyph glyph-name="D" unicode="D" horiz-adv-x="1314" 
d="M913 1285q0 69 -37 110q-36 40 -111 40h-347v-1237q0 -82 50 -117q20 -15 50 -24q31 -8 73 -8h153q40 0 70 9t50 23q50 36 50 117zM1251 245q0 -126 -72 -184q-73 -61 -237 -61h-912v49q67 0 90 20q28 25 28 102v1141q0 77 -28 102q-23 20 -90 20v49h913q163 0 236 -61
q72 -59 72 -184v-993z" />
    <glyph glyph-name="E" unicode="E" horiz-adv-x="1167" 
d="M858 365l256 68l-55 -433h-1029v49q67 0 90 20q28 25 28 102v377q-50 -14 -56 -19q-25 -22 -25 -70l-34 -10v116l115 31v716q0 77 -28 102q-23 20 -90 20v49h1062v-368l-237 -64v49q60 21 60 88v130q0 66 -36 93q-30 23 -95 23h-344v-762l279 75q43 12 59 24q28 22 28 67
l34 10v-189l-34 -10q-2 41 -21 53q-14 11 -44 3l-301 -82v-425q0 -84 53 -120q44 -29 128 -29h171q59 0 81 13q31 19 40 74l19 125q9 58 -11 67q-12 7 -63 -6v43z" />
    <glyph glyph-name="F" unicode="F" horiz-adv-x="1069" 
d="M30 1483h963v-368l-237 -64v49q38 15 51 34q16 23 16 76v99q0 61 -10 82q-22 43 -97 43h-164q-63 0 -85 -22q-27 -26 -27 -100v-607l279 75q43 12 59 24q28 22 28 67l34 10v-189l-34 -10q-2 41 -21 53q-15 11 -44 3l-301 -82l1 -485q0 -77 28 -102q23 -20 90 -20v-49
h-529v49q72 0 93 23q25 25 25 99v404q-41 -12 -57 -25q-27 -21 -27 -65l-34 -10v115l118 32v690q0 77 -28 102q-23 20 -90 20v49z" />
    <glyph glyph-name="G" unicode="G" horiz-adv-x="1274" 
d="M473 400v116l771 210v-51q-55 -13 -73 -33q-23 -26 -23 -82v-446q0 -49 -29 -80q-33 -34 -90 -34h-804q-85 0 -135 49t-50 131v1088h1q8 109 80 161q73 54 227 54h615q85 0 136 -50q50 -50 50 -130v-269l-236 -64v48q39 16 52 35q14 20 14 66v166q0 66 -41 105
q-42 40 -121 44q-8 2 -485 0v-1236q0 -84 52 -120q44 -29 128 -29h161q84 0 128 29q52 36 52 120q2 350 0 374q-12 -4 -260 -71q-43 -12 -59 -24q-27 -23 -27 -67z" />
    <glyph glyph-name="H" unicode="H" horiz-adv-x="1483" 
d="M904 1483h529v-49q-67 0 -90 -20q-28 -25 -28 -102v-1141q0 -77 28 -102q23 -20 90 -20v-49h-529v49q66 0 89 20q28 25 28 102v645l-579 -152v-493q0 -77 28 -102q23 -20 89 -20v-49h-529v49q67 0 90 20q28 25 28 102v416q-72 -21 -72 -86l-34 -10v115l106 28v678
q0 77 -28 102q-23 20 -90 20v49h529v-49q-66 0 -89 -20q-28 -25 -28 -102v-601l579 152v449q0 77 -28 102q-23 20 -89 20v49z" />
    <glyph glyph-name="I" unicode="I" horiz-adv-x="624" 
d="M30 1483h529v-49q-67 0 -90 -20q-29 -26 -29 -102v-1141q0 -76 29 -102q23 -20 90 -20v-49h-529v49q67 0 90 20q28 25 28 102v1141q0 77 -28 102q-23 20 -90 20v49z" />
    <glyph glyph-name="J" unicode="J" horiz-adv-x="989" 
d="M416 1483h529v-49q-67 0 -90 -20q-28 -25 -28 -102v-1097q0 -93 -61 -154t-155 -61h-285q-90 0 -150 75q-53 67 -60 165v172q0 51 -27 62q-18 7 -69 -6v43l295 79v-392q0 -89 22 -117q24 -32 93 -32q66 0 87 32q18 27 18 117v1114q0 82 -28 102t-91 20v49z" />
    <glyph glyph-name="K" unicode="K" horiz-adv-x="1446" 
d="M1401 0h-391l-396 702q-44 0 -71 -32q-25 -28 -29 -68l-34 -10v116l440 775h402v-49h-9q-90 0 -135 -76l-313 -543q383 -657 392 -671q58 -95 144 -95v-49zM30 1483h529v-49q-67 0 -90 -20q-29 -26 -29 -102v-1141q0 -76 29 -102q23 -20 90 -20v-49h-529v49q67 0 90 20
q28 25 28 102v1141q0 77 -28 102q-23 20 -90 20v49z" />
    <glyph glyph-name="L" unicode="L" horiz-adv-x="1147" 
d="M637 334v115l513 167v-50q-55 -15 -73 -34q-23 -26 -23 -82v-336q0 -48 -31 -80q-33 -34 -88 -34h-905v49q67 0 90 20q28 25 28 102v1141q0 77 -28 102q-23 20 -90 20v49h529v-49q-67 0 -91 -20q-28 -23 -28 -102v-1114q0 -84 53 -120q44 -29 128 -29h84q61 0 104 32
q49 36 49 117v264q-126 -40 -139 -44q-48 -15 -48 -74z" />
    <glyph glyph-name="M" unicode="M" horiz-adv-x="1871" 
d="M150 1259q0 88 -22 127q-26 48 -98 48v49h252q121 0 197 -122l443 -800l481 922h411v-49q-74 0 -99 -43q-23 -38 -23 -139l1 -1081q0 -77 28 -102q23 -20 90 -20v-49h-529v49q67 0 90 20q28 25 28 102l1 717l-462 -888l-497 903v-732q0 -77 28 -102q23 -20 90 -20v-49
h-529v49q67 0 90 20q28 25 28 102l1 -3v1091v0z" />
    <glyph glyph-name="N" unicode="N" horiz-adv-x="1419" 
d="M559 0h-529v49q67 0 90 20q28 25 28 102l1 -3v1117q0 97 -26 125q-22 24 -93 24v49h242q70 0 117 -31q41 -28 84 -94l470 -808v762q0 77 -28 102q-23 20 -90 20v49h529v-49q-67 0 -90 -20q-28 -25 -28 -102l-1 3v-1315h-242q-183 314 -342 587q-109 187 -210 360v-776
q0 -77 28 -102q23 -20 90 -20v-49z" />
    <glyph glyph-name="O" unicode="O" horiz-adv-x="1276" 
d="M767 49q42 0 73 8q30 9 50 24q50 35 50 117v1087q0 136 -145 149h-129q-119 0 -366 1v-1237q0 -82 50 -117q20 -15 50 -24q31 -8 73 -8h294zM1210 245q0 -126 -72 -184q-73 -61 -237 -61h-562q-164 0 -237 61q-72 58 -72 184v993q0 125 72 184q73 61 236 61h573
q155 0 229 -63q70 -58 70 -182v-993z" />
    <glyph glyph-name="P" unicode="P" horiz-adv-x="1033" 
d="M373 1436v-730l239 68q66 18 85 63q14 34 14 119v334q0 75 -24 110q-26 36 -81 36h-233zM476 0h-439v49q58 0 78 20q24 25 24 102v411q-33 -11 -47 -25q-22 -21 -22 -64l-30 -10v115l99 31v643q0 99 -21 130q-22 32 -98 32v49h716q130 0 201 -67q66 -62 66 -178v-217
q0 -167 -118 -216l-512 -148v-459q0 -94 17 -120q20 -29 86 -29v-49z" />
    <glyph glyph-name="Q" unicode="Q" horiz-adv-x="1274" 
d="M291 194q0 -62 28 -97q76 153 267 153q185 0 288 -164q37 37 37 108v1089q0 136 -140 149h-480v-1238zM649 45q-28 57 -53 81q-34 34 -87 34q-40 0 -84 -27q-48 -31 -57 -72q18 -16 91 -16h190zM330 -2q-162 0 -230 59q-70 58 -70 183v996q0 125 70 184q71 62 228 62h554
v-1q154 -1 222 -62q68 -58 68 -183v-996q0 -125 -70 -183q-57 -50 -182 -58q61 -128 185 -134q54 -3 96 24q44 29 60 84v1h59q-17 -91 -79 -154q-80 -80 -208 -80q-116 0 -208 76q-72 58 -146 182h-349z" />
    <glyph glyph-name="R" unicode="R" horiz-adv-x="1328" 
d="M1283 0h-387l-286 703q-26 65 -96 47l-17 41l404 109q64 18 64 91v294q0 84 -54 120q-44 29 -129 29h-342v-1263q0 -77 28 -102q23 -20 90 -20v-49h-528v49q67 0 90 20q28 25 28 102v1141q0 77 -28 102q-23 20 -90 20v49h1109q50 0 83 -29q36 -31 36 -85v-351
q0 -30 -29 -58q-27 -26 -58 -34h-1q-1 0 -1 -1h-1l-310 -83l283 -690q27 -54 54 -76q34 -27 88 -27v-49z" />
    <glyph glyph-name="S" unicode="S" horiz-adv-x="1086" 
d="M1015 1034l-236 -92v48q36 21 50 49t14 82v164q0 70 -40 110q-39 39 -120 39h-150q-90 0 -133 -28q-54 -35 -54 -121v-138q0 -70 40 -110l401 -295l169 -135q61 -50 61 -160v-202q0 -126 -72 -184q-73 -61 -238 -61h-479q-97 0 -150 62q-46 52 -46 138v249l246 91v-49
q-63 -27 -63 -106v-187q0 -82 52 -118q43 -31 125 -31h122q90 0 133 28q54 34 54 121v138q0 80 -40 110l-401 296l-169 134q-61 54 -61 160v202q0 125 71 184q73 61 237 61h492q185 0 185 -180v-269z" />
    <glyph glyph-name="T" unicode="T" horiz-adv-x="1299" 
d="M30 1368v115h1254v-115h-27q0 66 -52 66h-291q-67 0 -91 -29q-21 -26 -21 -93v-1141q0 -122 119 -122v-49h-529v49q118 0 118 122v1141q0 67 -21 93q-24 29 -90 29h-290q-52 0 -52 -66h-27z" />
    <glyph glyph-name="U" unicode="U" horiz-adv-x="1472" 
d="M1275 381q0 -87 -23 -153q-22 -66 -64 -117q-95 -111 -278 -111h-396q-187 0 -282 116q-83 104 -83 278l-1 917q0 77 -28 102q-23 20 -90 20v49l526 1v-49q-57 0 -83 -15q-34 -20 -34 -108v-1113q0 -69 36 -109q37 -40 112 -40h215q42 0 73 8q32 8 54 22q54 34 54 117
v1116q0 77 -28 101q-23 21 -90 21v48h529v-48q-68 0 -90 -21q-29 -26 -29 -101v-931z" />
    <glyph glyph-name="V" unicode="V" horiz-adv-x="1555" 
d="M929 1483h578v-49q-54 0 -97 -18q-58 -24 -74 -75q-296 -936 -367 -1192q-32 -87 30 -95q32 -5 61 -5v-49h-579v49q64 0 86 13q27 16 11 67l-377 1212q-29 93 -171 93v49h296q62 0 115 -33q55 -35 72 -90l267 -858l241 822q18 62 1 85q-19 25 -93 25v49z" />
    <glyph glyph-name="W" unicode="W" horiz-adv-x="2067" 
d="M935 1143q-71 176 -91 221q-32 71 -149 69q-92 0 -120 -45q-23 -37 -1 -101l235 -708zM1492 1483h529v-49q-57 0 -81 -27q-21 -24 -37 -95l-284 -1192q-16 -71 104 -71v-49h-482v52q42 0 62 18q22 21 6 64l-209 562l-136 -570q-8 -36 11 -57q19 -20 59 -20v-49h-443v52
q39 0 60 18q20 17 15 40l-387 1160q-28 84 -92 124q-63 40 -157 40v49h971q104 0 149 -112l308 -825l163 766q15 74 -26 103q-28 19 -103 19v49z" />
    <glyph glyph-name="X" unicode="X" horiz-adv-x="1437" 
d="M815 1483h579v-49q-111 0 -186 -118l-330 -566l340 -587q51 -72 83 -93q33 -21 87 -21h6v-49h-411q-98 170 -272 467l-181 -312q-32 -53 -11 -79q21 -27 90 -27v-49h-579q-1 49 0 49q100 0 175 114l340 588q-347 595 -344 590q-28 49 -56 67q-40 26 -115 26v49h296
q106 0 176 -85l210 -362l171 295q33 56 19 79q-15 24 -87 24v49z" />
    <glyph glyph-name="Y" unicode="Y" horiz-adv-x="1408" 
d="M1367 1483v-49q-56 0 -81 -27q-19 -21 -48 -95l-346 -961v-180q0 -77 28 -102q23 -20 90 -20v-49h-529v49q68 0 91 20q28 25 28 102v202q-394 927 -401 946q-26 60 -60 85q-39 29 -109 29v50h288q90 0 134 -112l298 -690l206 631q29 75 -1 104q-19 18 -89 18v49h501z" />
    <glyph glyph-name="Z" unicode="Z" horiz-adv-x="1084" 
d="M1044 1483v-92q-707 -1280 -710 -1287q-19 -55 28 -55h569q39 0 39 66h48v-115h-988v92q707 1280 710 1287q19 55 -28 55h-578q-39 0 -39 -66h-39v115h988z" />
    <glyph glyph-name="bracketleft" unicode="[" horiz-adv-x="730" 
d="M616 1584v-61h-206v-1752h206v-61h-464v1874h464z" />
    <glyph glyph-name="backslash" unicode="\" horiz-adv-x="1106" 
d="M921 -296l-916 1875h152l916 -1875h-152z" />
    <glyph glyph-name="bracketright" unicode="]" horiz-adv-x="648" 
d="M82 -290v61h206v1752h-206v61h464v-1874h-464z" />
    <glyph glyph-name="asciicircum" unicode="^" horiz-adv-x="1246" 
d="M1159 396h-153l-391 791l-391 -791h-154l545 1088z" />
    <glyph glyph-name="underscore" unicode="_" horiz-adv-x="1024" 
d="M97 36h830v-167h-830v167z" />
    <glyph glyph-name="grave" unicode="`" horiz-adv-x="1234" 
d="M583 1578l194 -267v-37h-68l-284 240v65z" />
    <glyph glyph-name="a" unicode="a" horiz-adv-x="997" 
d="M323 -10q-151 0 -214 84q-39 52 -39 182v57h1q3 81 48 123q52 48 199 95q151 50 210 71v-117l-36 -11q0 33 -5 49q-6 22 -51 5q-70 -24 -101 -77q-29 -50 -29 -138v-88q0 -64 20 -109q32 -68 104 -68h55q21 2 38 7q18 5 32 13q57 42 57 157v677q0 50 -28 83
q-31 41 -84 41h-53q-59 0 -86 -40q-24 -32 -24 -83v-37q0 -76 52 -76q15 0 28 4v-45l-292 -84v304q0 48 28 77q28 28 74 28h372q128 0 192 -49q60 -47 67 -149h1v-720l1 2q0 -71 24 -93q19 -19 76 -19v-45h-243q-63 0 -106 61q-13 -24 -52 -47t-64 -23q-7 0 -20 -1t-20 -1
h-132z" />
    <glyph glyph-name="b" unicode="b" horiz-adv-x="1107" 
d="M793 865q0 89 -50 119q-26 16 -67 17t-96 -14l-159 -43v-678q0 -222 185 -239h41q76 0 114 45q32 37 32 99v694zM421 990q158 42 157 42q202 54 339 35q149 -60 149 -239v-613q0 -121 -70 -178q-74 -57 -229 -57h-122q-140 0 -226 74q-56 -60 -109 -60h-169v1434
q0 60 -29 82q-24 19 -82 19v46h391v-585z" />
    <glyph glyph-name="c" unicode="c" horiz-adv-x="880" 
d="M834 373v-91q0 -151 -107 -232q-92 -70 -245 -70h-98q-154 0 -239 59q-95 67 -95 205v540q0 114 16 153q52 136 323 136h139q127 0 213 -65q79 -59 79 -132q-13 -4 -202 -56v44l35 11q0 69 -33 110q-34 41 -94 41h-88q-59 0 -90 -31q-42 -43 -42 -144v-623
q0 -113 41 -167q33 -43 88 -43h104q127 0 192 153q22 51 19 88q-5 44 -51 32v45z" />
    <glyph glyph-name="d" unicode="d" horiz-adv-x="1090" 
d="M676 879q0 148 -186 148t-186 -148v-709q0 -54 27 -94q33 -49 93 -49h66q90 0 139 68q47 65 47 176v608zM956 129q0 -52 30 -73q26 -17 80 -17v-42h-279q-69 0 -109 62q-75 -79 -227 -79h-121q-162 0 -230 57q-70 57 -70 178v618q0 119 68 178q71 61 223 61h185
q108 0 170 -41v410q0 26 -10 44q-9 17 -23 27q-22 14 -81 14v49h394v-1446z" />
    <glyph glyph-name="e" unicode="e" horiz-adv-x="911" 
d="M846 368q0 -114 -12 -172q-15 -71 -56 -112q-108 -108 -278 -108h-161q-135 0 -218 73q-83 72 -83 191v613q0 123 116 178q80 38 194 38l219 -1q115 0 203 -56q93 -59 93 -146v-144q0 -97 -153 -173q-59 -30 -235 -82q-45 -13 -63 -31q-20 -19 -20 -54l-32 -10v109
l144 39q93 25 117 134q9 41 9 192q0 86 -37 132q-35 44 -95 44h-60q-135 0 -135 -176v-699q0 -63 44 -99q33 -26 64 -26h98q48 0 82 31q30 28 30 57v59q0 87 -87 71v45z" />
    <glyph glyph-name="f" unicode="f" horiz-adv-x="905" 
d="M43 47q64 0 86 18q27 24 27 98q1 567 0 566q-83 -20 -83 -84l-33 -10v110l116 31q1 161 1 287v231q0 141 130 220q111 68 276 73q122 3 210 -63q50 -38 63 -68v-224l-46 -15h-1l-178 -70v46q95 31 95 127v26q0 10 -1 19q0 174 -141 174q-67 0 -97 -51q-31 -52 -31 -173
v-465q126 35 179 49q82 23 82 87l33 8v-179l-33 -10q-3 61 -50 55q-32 -8 -211 -55v-642q0 -74 27 -98q22 -18 86 -18v-47h-506v47v0z" />
    <glyph glyph-name="g" unicode="g" horiz-adv-x="1054" 
d="M509 -361q164 0 224 66q46 51 46 171q0 125 -70 191q-86 81 -250 23q-76 -26 -145 -35q-36 -18 -55 -57q-18 -38 -18 -122q0 -120 44 -170q62 -67 224 -67zM350 451q0 -50 41 -82q39 -30 93 -30h63q55 0 94 30q41 32 41 82v470q0 50 -41 82q-39 29 -94 29h-63
q-54 0 -93 -29q-41 -32 -41 -82v-470zM475 141q175 64 347 -5q176 -71 179 -225q3 -160 -115 -236q-121 -78 -371 -78q-238 0 -369 81q-116 71 -116 183q0 82 67 136q43 37 106 57q-73 11 -116 48q-42 37 -41 92q3 114 168 148q3 0 3 1t-3 0q-75 54 -75 170v352
q0 104 59 155q30 25 78 39t115 14h249q132 0 194 -53q29 -24 43 -62q82 0 125 95h38q-10 -40 -56 -89q-48 -49 -94 -65q2 -18 2 -34v-352q0 -217 -261 -217h-231q-77 0 -132 20q1 0 -2 -1q-40 -14 -59 -36q-21 -27 -21 -82q0 -53 59 -78q79 -34 230 22z" />
    <glyph glyph-name="h" unicode="h" horiz-adv-x="1210" 
d="M1183 0h-506l1 1v46q71 0 97 29q17 20 17 66v734q0 90 -49 120q-53 30 -162 2l-159 -42v-814q0 -46 17 -66q25 -29 96 -29v-46l1 -1h-506l2 1v46q71 0 96 29q17 19 17 66v1302q0 49 -30 69q-26 17 -83 17v47h390v-576q643 204 643 -162v-697q0 -46 19 -66q26 -29 97 -29
v-46z" />
    <glyph glyph-name="i" unicode="i" horiz-adv-x="573" 
d="M427 158q0 -72 25 -94q11 -10 31.5 -14t50.5 -4v-46h-489v46q64 0 83 18q26 24 26 94v723q0 65 -32 79q-20 10 -61 -4l-31 -14v43q75 32 137.5 44t115.5 3q147 -20 144 -200v-674zM405 1262h-245v247h245v-247z" />
    <glyph glyph-name="j" unicode="j" horiz-adv-x="700" 
d="M611 -161q0 -124 -22 -171q-67 -117 -304 -117q-133 0 -220 45q-96 50 -96 139v152l242 80v-44q-90 -30 -90 -126v-69q0 -56 32 -92q31 -35 75 -35q57 0 81 19q37 31 37 121v1157q0 70 -25 92q-19 19 -81 19v44h371v-1214zM585 1262h-245v247h245v-247z" />
    <glyph glyph-name="k" unicode="k" horiz-adv-x="1273" 
d="M1217 0h-335l-380 766l-57 -18v-606q0 -47 16 -66q24 -29 94 -29v-46l2 -1h-507l2 1v46q71 0 96 29q17 19 17 66v1279q0 68 -26 90q-22 19 -86 19v47h392v-781l52 14l305 435q16 24 1 37q-12 11 -40 11v45h365v-47q-74 0 -125 -73q-12 -17 -270 -380l356 -717
q44 -74 128 -74v-47z" />
    <glyph glyph-name="l" unicode="l" horiz-adv-x="627" 
d="M55 47q64 0 87 20q28 24 28 99v1264q0 68 -33 83q-23 9 -63 -6l-34 -12v44q9 3 39 15q17 8 36 14q78 25 145 25q123 2 177 -100q17 -45 17 -115v-1212q0 -75 28 -99q23 -20 87 -20v-47h-514v47v0z" />
    <glyph glyph-name="m" unicode="m" horiz-adv-x="1779" 
d="M63 982l-33 -12v43q10 5 19 8q8 3 20 8l35 13q28 11 53 15q26 5 49 8q88 11 141 -18q80 -42 89 -168l203 109l44 24l50 27l16 8q73 36 138 22q119 -26 139 -190l202 109l44 24l50 27l16 8q72 36 138 22q62 -13 100 -71q41 -66 41 -176v-659q0 -75 27 -97q23 -20 85 -20
v-46h-503v46q62 0 85 20q27 22 27 97v639q0 192 -141 119q-35 -18 -76 -42q-39 -23 -92 -53v-663q0 -75 27 -97q23 -20 85 -20v-46h-504v46q62 0 85 20q27 22 27 97v639q0 192 -141 119q-71 -38 -171 -96v-662q0 -75 27 -97q23 -20 86 -20v-46h-505v46q63 0 86 20
q26 23 26 97v747q0 64 -33 78q-19 9 -61 -5v-1z" />
    <glyph glyph-name="n" unicode="n" horiz-adv-x="1197" 
d="M692 1011l50 27l16 8q36 18 71 24q34 7 68 -1q102 -23 130 -148q6 -28 9 -61q2 -34 2 -72v-625q0 -75 27 -97q23 -20 85 -20v-46h-504v46q63 0 86 20q26 23 26 97v639q0 193 -140 119q-34 -19 -78 -44q-40 -23 -93 -53v-661q0 -75 27 -97q23 -20 85 -20v-46h-504v46
q62 0 85 20q27 22 27 97v746q0 64 -33 78q-22 10 -61 -5l-33 -13v44l39 15q9 4 18 7q9 4 17 6q27 9 52 14q26 6 50 9q87 11 140 -18q79 -42 90 -168l203 109z" />
    <glyph glyph-name="o" unicode="o" horiz-adv-x="977" 
d="M673 884q0 129 -138 141h-2q-4 0 -12 1l-30 2l-31 -2q-7 -1 -11 -1h-3q-137 -12 -137 -141v-696q0 -72 40 -106q17 -14 43 -24q25 -10 59 -10h78q35 0 60 10q26 10 43 24q41 35 41 106v696zM657 1073q148 0 218 -61q66 -57 66 -173v-606q0 -120 -68 -175
q-72 -58 -226 -58h-313q-155 0 -226 58q-68 55 -68 175v606q0 116 66 173q70 61 219 61h332z" />
    <glyph glyph-name="p" unicode="p" horiz-adv-x="1105" 
d="M783 892q0 61 -41 98q-35 32 -84 32h-57q-61 0 -113 -43q-65 -53 -65 -144v-677q11 -55 49 -81q43 -30 129 -30q89 0 136 36q46 35 46 98v711zM758 1070q154 0 224 -58q68 -55 68 -173v-604q0 -116 -65 -173q-69 -59 -218 -59h-217q-86 0 -127 42v-396q0 -52 30 -71
q23 -17 78 -17v-46h-491v46q51 0 74 11q34 18 34 70v1282q0 51 -30 71q-23 16 -78 16v47h383v-59q86 71 216 71h119z" />
    <glyph glyph-name="q" unicode="q" horiz-adv-x="1064" 
d="M658 838q0 91 -65 144q-52 44 -114 44l-56 -1q-49 0 -85 -32q-40 -37 -40 -99v-712q0 -63 45 -98q47 -36 136 -36q157 0 179 111v679zM934 -371q7 -42 34 -56q23 -12 74 -12v-46h-492v46q56 0 78 17q30 19 30 71v397q-41 -42 -127 -42h-217q-150 0 -218 59
q-66 57 -66 174v605q0 118 68 173q70 58 225 58h119q130 0 216 -71v58h276v-1431z" />
    <glyph glyph-name="r" unicode="r" horiz-adv-x="804" 
d="M30 985q127 59 225 53q119 -8 161 -116q43 49 104 74q27 11 237 77v-115l-38 -10q0 43 -11 54q-10 8 -40 1q-99 -26 -155 -69q-87 -68 -87 -215v-561q-1 -60 18 -84q23 -29 91 -29v-45h-490v45q64 0 87 23q21 23 21 90v723q0 65 -32 78q-29 12 -91 -16v42z" />
    <glyph glyph-name="s" unicode="s" horiz-adv-x="885" 
d="M745 481q54 -45 72 -111q9 -36 9 -88q0 -149 -122 -232q-103 -70 -264 -70h-81q-69 0 -126 15q-56 15 -101 47q-76 55 -76 118v152l227 71v-41q-104 -41 -104 -122q0 -90 23 -129q40 -66 162 -66h61q100 0 139 40q34 35 35 123q0 80 -21 119q-23 43 -96 80q-7 4 -98 46
q-87 40 -94 44q-242 129 -248 296q-7 106 17 164q55 136 336 136h75q208 0 289 -102q21 -26 26 -55v-169l-218 -73v41q100 42 100 122v55q0 81 -51 113q-35 21 -105 21h-87q-66 0 -98 -35q-35 -38 -36 -99v-86q0 -109 118 -160q292 -127 337 -165z" />
    <glyph glyph-name="t" unicode="t" horiz-adv-x="805" 
d="M531 1008q0 -908 0 -880q0 -108 131 -51v-44q-226 -90 -335 -27q-82 47 -82 161v841h-150q-28 0 -40 -13q-14 -16 -14 -53h-31v104h235v257l286 77v-334h264v-38h-264z" />
    <glyph glyph-name="u" unicode="u" horiz-adv-x="1158" 
d="M1012 1053v-923q0 -49 29 -71q26 -20 80 -20v-41h-265q-27 0 -57 18t-42 41q-97 -77 -181 -77h-128q-137 0 -225 78q-82 73 -82 173v691q0 84 -111 84v47h382v-890q0 -73 50 -111q35 -26 71 -26h62q60 0 106 46q45 46 45 101v749q0 84 -111 84v47h377z" />
    <glyph glyph-name="v" unicode="v" horiz-adv-x="1086" 
d="M1060 1053v-46q-46 0 -64 -9q-16 -7 -32 -37l-383 -961h-61l-393 960q-13 29 -38 39q-18 7 -59 7v47h404v-44q-50 0 -66 -16q-18 -18 -3 -57l186 -465l218 582h291z" />
    <glyph glyph-name="w" unicode="w" horiz-adv-x="1541" 
d="M1512 1053v-47q-41 0 -60 -7q-24 -10 -36 -39l-383 -960h-62l-213 525l-208 -525h-60l-390 953q-24 53 -100 53v47h404v-44q-53 0 -68 -18q-16 -19 3 -66l182 -454l123 331l-102 251h228l232 -582l220 582h290z" />
    <glyph glyph-name="x" unicode="x" horiz-adv-x="1136" 
d="M987 99q44 -53 122 -53v-46h-432v48q101 0 74 54l-189 273l-174 -266q-21 -32 8 -50q22 -13 66 -13v-46h-432v46q42 0 62 12q14 11 39 41l300 465l-274 397q-19 26 -38 36q-20 10 -58 10v46h395v-46q-39 0 -56 -14q-17 -15 3 -44l173 -256l158 261q20 34 10 44
q-9 9 -47 9v46h391v-46q-46 0 -58 -6q-17 -8 -38 -40l-290 -448z" />
    <glyph glyph-name="y" unicode="y" horiz-adv-x="1123" 
d="M799 1052h290v-46q-47 0 -63 -9q-17 -9 -33 -37l-541 -1455h-283v46q42 0 63 8q19 11 32 37l155 420l-320 936q-16 34 -33 44q-16 10 -66 10v46h401v-44q-48 0 -64 -15q-17 -17 -4 -58l199 -612z" />
    <glyph glyph-name="z" unicode="z" horiz-adv-x="960" 
d="M38 1054h895v-47q-23 -2 -33 -9q-9 -8 -30 -36l-542 -915h532q36 0 36 63h19v-110h-885v47q29 1 43 15q3 3 29 38l560 902q-8 6 -23 6h-546q-36 0 -36 -63h-19v109z" />
    <glyph glyph-name="braceleft" unicode="{" horiz-adv-x="703" 
d="M541 -232q12 1 22 3l5 2l28 -55q-50 -12 -101 -13h-14q-217 4 -290 107q-12 16 -20 35l-4 10l-4 12q-37 95 -17 238l2 12q2 12 4 25t11 65q33 182 36 228q10 136 -47 153l-7 2l-90 27v46l90 27l7 2q57 17 47 154q-3 45 -36 227q-9 53 -11 65l-4 26q-1 5 -2 11
q-20 143 17 238l4 12l4 10q8 19 20 36q73 102 290 106h14q51 0 101 -13l-28 -54l-5 1q-10 3 -22 3h-6h-2q-3 1 -7 1q-6 0 -13 -1q4 1 -3 -1q-49 -8 -89 -46q-23 -21 -42 -52q-95 -155 -55 -412q31 -190 -26 -274q-39 -59 -146 -85l-7 -2l-7 -2l7 -2l7 -1q107 -27 146 -86
q57 -84 26 -274q-40 -257 55 -412q19 -30 42 -52q40 -38 89 -45q7 -3 3 -2q7 -1 13 -1q4 0 7 1h2h6z" />
    <glyph glyph-name="bar" unicode="|" horiz-adv-x="493" 
d="M159 -296v1875h166v-1875h-166z" />
    <glyph glyph-name="braceright" unicode="}" horiz-adv-x="703" 
d="M110 1516q-11 0 -21 -3q-1 0 -6 -1l-28 54q50 13 101 13h14q217 -4 290 -106q12 -17 20 -36l4 -10l4 -12q37 -95 17 -238q-1 -6 -2 -11q-1 -13 -4 -26q-2 -12 -11 -65q-33 -182 -36 -227q-10 -137 47 -154l7 -2l90 -27v-46l-90 -27l-7 -2q-57 -17 -47 -153q3 -46 36 -228
q9 -52 11 -65q3 -13 4 -25l2 -12q20 -143 -17 -238l-4 -12l-4 -10q-8 -19 -20 -35q-73 -103 -290 -107h-14q-51 1 -101 13l28 55q5 -2 6 -2q10 -2 21 -3h6h2q3 -1 7 -1q6 0 13 1q-4 -1 4 2q48 7 88 45q23 22 42 52q95 155 55 412q-30 190 26 274q39 59 146 86l7 1l7 2l-7 2
l-7 2q-107 26 -146 85q-56 84 -26 274q40 257 -55 412q-19 31 -42 52q-40 38 -88 46q-8 2 -4 1q-6 1 -13 1h-7l-2 -1h-6z" />
    <glyph glyph-name="asciitilde" unicode="~" horiz-adv-x="1246" 
d="M1173 688l-4 -53q0 -70 -51 -138q-52 -69 -133 -107q-88 -42 -182 -34q-106 10 -200 84v0q-1 0 -2 1l-1 1q-16 13 -30 26q-110 100 -125 111q-77 59 -137 60q-59 -1 -98 -39q-44 -43 -56 -126l-62 -35l5 53q0 77 61 151t155 108q103 37 208 9q120 -33 218 -147
q42 -58 102 -92q59 -35 117 -33q61 1 101 43q44 48 53 139z" />
    <glyph glyph-name="uni00A0" unicode="&#xa0;" horiz-adv-x="508" 
 />
    <glyph glyph-name="exclamdown" unicode="&#xa1;" horiz-adv-x="543" 
d="M116 -291l85 938h138l85 -938v-104h-308v104zM408 809h-277v277h277v-277z" />
    <glyph glyph-name="cent" unicode="&#xa2;" horiz-adv-x="1246" 
d="M591 203v1090h-4h-2q-71 -2 -120 -41q-48 -38 -56 -96q-1 -5 0 -424q1 -426 5 -436q13 -44 67 -70q47 -23 102 -23h8zM1032 587v-99q0 -151 -105 -238q-93 -77 -246 -88v-162h-90v160h-65q-39 0 -75 3q-197 20 -268 147q-27 57 -33 138v584q0 119 19 165q57 147 362 147
h60v141h90v-142h26q52 0 108 -17q83 -24 138 -72q61 -55 64 -124q-3 0 -228 -59v47l40 11q-1 28 -4 27q-20 136 -140 137h-4v-1090q11 1 20 1q61 0 118 41q62 45 97 124q25 56 21 94q-4 48 -57 36v48l67 18z" />
    <glyph glyph-name="sterling" unicode="&#xa3;" horiz-adv-x="1246" 
d="M1127 1410q2 -3 4 -8q1 -3 3 -6v-197l-45 -15v0l-205 -68v45q92 29 92 123v15v0q0 35 -4 64v1v0q-13 113 -89 126q-9 2 -21 2h-6l-28 1q-109 -1 -145 -48q-32 -43 -39 -149v-553q113 29 174 47q40 12 54 22q26 20 26 62l32 9v-109l-286 -76v-78q0 -237 -135 -392
q-11 1 313 -67q171 -35 265 50v-147q-75 -68 -192 -63q-62 2 -223 43q-152 38 -238 36q-133 -1 -234 -80v130q45 36 93 59q78 71 78 241q2 211 0 211q-81 -21 -81 -83l-31 -9v107l112 30l2 499q0 184 113 272q112 87 343 87q57 0 119 -18q7 -2 12 -4v0q125 -37 167 -112z
" />
    <glyph glyph-name="currency" unicode="&#xa4;" horiz-adv-x="1018" 
d="M793 726q0 67 -57 92q-54 25 -196 25h-46q-133 0 -190 -25q-64 -26 -64 -92v-433q0 -68 54 -93q53 -24 200 -24h46q158 0 207 24q46 23 46 93v433zM944 449q-3 -164 -51 -245l101 -134l-64 -69l-107 141q-87 -67 -282 -81q0 -1 -24 -1q-25 0 -24 1q-204 14 -291 88
l-114 -149l-58 69l106 141q-43 80 -47 239v127q4 164 37 209l14 36l-102 134l64 70l108 -142q86 68 283 82q-1 0 24 0h24q195 -14 282 -82l107 142l64 -70l-101 -133q48 -81 51 -246v-127z" />
    <glyph glyph-name="yen" unicode="&#xa5;" horiz-adv-x="1350" 
d="M1298 1432q-39 0 -69 -33q-14 -16 -59 -89l-352 -597v-27h423v-70h-417v-177h417v-70h-417v-198q0 -77 28 -102q23 -20 90 -20v-49h-528v49q67 0 90 20q28 25 28 102v198h-386v70h386v177h-386v70h389v27q-405 615 -438 661q-42 57 -117 57v50h259q120 0 178 -112
l253 -418l218 359q42 73 22 101q-14 21 -68 21v49h456v-49v0z" />
    <glyph glyph-name="brokenbar" unicode="&#xa6;" horiz-adv-x="1014" 
d="M597 -416h-190v787h190v-787zM597 789h-190v789h190v-789z" />
    <glyph glyph-name="section" unicode="&#xa7;" horiz-adv-x="1246" 
d="M602 425q151 0 151 130v110q0 58 -34 95l-71 56h-11h-21q-151 0 -151 -130v-110q0 -58 33 -95l71 -56h33zM967 592q0 -96 -52 -139t-169 -43h-157l210 -164l126 -106q21 -23 30 -43q12 -27 12 -76v-75v1v-86q0 -96 -52 -140q-52 -43 -169 -43h-359q-69 0 -105 47
q-31 39 -31 100v189l163 64v-14q-34 -13 -41 -37q-6 -20 -6 -100v-103q0 -127 143 -130h92q151 0 151 130v109q0 58 -34 95l-301 236l-126 106q-21 22 -30 43q-12 26 -12 75v161q0 95 52 139q52 43 168 43h158l-210 164l-126 106q-21 23 -30 43q-12 27 -12 76v160
q0 96 52 139q52 44 168 44h367q45 -2 86 -41q43 -42 43 -90v-206l-155 -64v13q34 14 42 40q6 21 6 110v92q0 123 -131 130q-3 1 -31 1q-25 0 -69 -1h-12q-151 0 -151 -130v-109q0 -58 33 -95l301 -236l126 -106q21 -22 30 -43q12 -26 12 -75v-75v0v-86z" />
    <glyph glyph-name="dieresis" unicode="&#xa8;" horiz-adv-x="1234" 
d="M514 1221h-235v236h235v-236zM1004 1221h-235v236h235v-236z" />
    <glyph glyph-name="copyright" unicode="&#xa9;" horiz-adv-x="1752" 
d="M369 249q207 -206 497 -206q291 0 497 206q207 207 207 497q0 291 -207 497q-206 207 -497 207q-290 0 -497 -207q-206 -206 -206 -497q0 -290 206 -497zM866 1533q326 0 556 -230q231 -231 231 -556t-231 -556q-230 -231 -556 -231q-325 0 -555 231q-231 231 -231 556
t231 556q230 230 555 230zM1194 620v-73q0 -121 -90 -186q-79 -57 -204 -57h-80h-2q-29 0 -55 1q-147 15 -199 109q-21 43 -25 103v433q0 89 14 123q43 108 269 108h101h29q39 0 81 -13q61 -18 102 -53q45 -41 47 -92q-1 0 -169 -44v35l30 8q-1 21 -3 20q-15 101 -104 102
h-73h-1q-53 -1 -89 -30q-35 -29 -42 -72q0 -3 1 -314q0 -316 3 -324q10 -32 50 -52q35 -17 75 -17h67q11 0 21 1q45 0 88 31q46 33 72 91q18 42 15 70q-3 36 -42 27v35l49 13z" />
    <glyph glyph-name="ordfeminine" unicode="&#xaa;" horiz-adv-x="876" 
d="M744 851q0 -57 19 -76q16 -15 63 -15v-36h-189q-35 0 -54 11q-9 5 -44 38q-33 -36 -66 -49q-27 -11 -63 -11h-63h-45q-124 0 -177 69q-31 42 -31 147v46v0q3 65 41 99q42 38 163 77q123 39 172 57v-95l-29 -9q0 30 -4 40q-3 11 -14 11q-5 0 -19 -4l-9 -3v0
q-58 -19 -83 -61q-24 -41 -24 -112v-71q0 -53 17 -88q25 -54 85 -54h46q34 3 57 16q47 34 47 126v0v440v23q0 1 0 -1q0 1 -1 9v0q0 38 -22 67q-26 32 -69 32h-44q-47 0 -71 -32q-20 -26 -20 -67h1q-1 -4 -1 -3q4 -55 44 -55q10 0 23 4v-37l-240 -68v212q2 42 21 62
q20 21 62 23h306q114 0 158 -23q50 -27 55 -103h1v-538zM138 628h614v-126h-614v126z" />
    <glyph glyph-name="guillemotleft" unicode="&#xab;" horiz-adv-x="1086" 
d="M584 196l20 -27l-75 -56v0l-423 431l423 432l75 -56l-20 -27l-24 18l-205 -295q-38 -53 -38 -72q1 -18 38 -71l205 -294zM974 196l20 -27l-75 -56v0l-423 431l423 432l75 -56l-20 -27l-24 18l-205 -295q-37 -53 -37 -72q0 -18 37 -71l206 -294z" />
    <glyph glyph-name="logicalnot" unicode="&#xac;" horiz-adv-x="1246" 
d="M1175 820v-479h-164v345h-931v134h1095z" />
    <glyph glyph-name="uni00AD" unicode="&#xad;" horiz-adv-x="670" 
d="M116 566h518v-167h-518v167z" />
    <glyph glyph-name="registered" unicode="&#xae;" horiz-adv-x="1725" 
d="M741 740l295 79q29 10 36 26q5 15 5 87v127q0 91 -118 93h-218v-412zM1216 368q12 -10 60 -16q12 -2 15 -2v-30h-259l-183 375v0q-16 42 -62 28l-46 -11v-285q0 -49 17 -64q15 -13 58 -13v-30h-339v30q43 0 57 13q18 15 18 64v648q0 49 -18 64q-14 13 -57 13v30h711
q72 -2 77 -70q4 -222 0 -235q-8 -30 -56 -42q0 -1 -2 -1l-199 -52l182 -367q15 -37 26 -47zM369 249q207 -206 497 -206q291 0 497 206q207 207 207 497q0 291 -207 497q-206 207 -497 207q-290 0 -497 -207q-206 -206 -206 -497q0 -290 206 -497zM866 1533q326 0 556 -230
q231 -231 231 -556t-231 -556q-230 -231 -556 -231q-325 0 -555 231q-231 231 -231 556t231 556q230 230 555 230z" />
    <glyph glyph-name="macron" unicode="&#xaf;" horiz-adv-x="1234" 
d="M333 1273v143h578v-143h-578z" />
    <glyph glyph-name="degree" unicode="&#xb0;" horiz-adv-x="531" 
d="M333 1272q29 29 29 69q0 39 -29 69q-29 29 -69 29t-69 -29q-29 -30 -29 -69q0 -40 29 -69t69 -29t69 29zM134 1211q-54 54 -54 131q0 76 54 130q54 53 131 53q76 0 130 -53q53 -54 53 -130q0 -77 -53 -131q-54 -54 -130 -54q-77 0 -131 54z" />
    <glyph glyph-name="plusminus" unicode="&#xb1;" horiz-adv-x="1246" 
d="M68 125q0 -32 10 -63q21 -63 71 -63h1022v126h-1103zM553 300v376h-474v133h474v375h133v-375h474v-133h-474v-376h-133z" />
    <glyph glyph-name="uni00B2" unicode="&#xb2;" horiz-adv-x="698" 
d="M131 1513h349q113 0 155 -81q19 -36 19 -100v-16q0 -57 -19 -96q-15 -30 -42 -53q-20 -15 -45.5 -28t-58.5 -22q-57 -15 -163 -48q-108 -33 -107 -33v-223q0 -21 8.5 -35.5t22.5 -23.5q23 -15 67 -15h88q27 0 39 7q20 11 20 46v58q0 30 -15 35l-39 -3v25l225 58v-252
h-510q-22 0 -37 9q-22 12 -26 45q-1 1 -1 7v221q7 25 47 36q1 0 1 1l110 29l138 44q30 10 51 26t35 36q7 11 15.5 32t18.5 53q11 36 11 64q0 70 -5.5 83t-5.5 14q-26 63 -96 74h-99q-108 -2 -109 -81v-160l64 18q23 6 31 13q15 12 16 35l18 6v-62l-235 -61v257q0 28 16 44
q7 8 19.5 12.5t28.5 4.5z" />
    <glyph glyph-name="uni00B3" unicode="&#xb3;" horiz-adv-x="665" 
d="M383 1117l96 31q88 -25 128 -122q23 -55 18 -114q-1 -14 -4 -29.5t-10 -31.5l-3 -8h-1q-45 -95 -166 -121q-44 -9 -88 -9h-224q-33 0 -53 22q-22 24 -22 66v119l152 41v-27q-18 -5 -27 -9q-21 -12 -21 -43v-70q0 -21 8 -35t22 -24q23 -14 67 -14h71q14 2 28 5.5t28 11.5
q40 20 62 73q19 47 17 107q-1 29 -6 55.5t-16 51.5q-20 50 -56 74zM207 1264v-24l-157 -42l1 254q0 29 16.5 45t47.5 16h333q118 -10 154 -81q17 -34 18 -96q1 -66 -66.5 -117.5t-204.5 -86.5l-30 -8l-24 -6q-18 -5 -27 -14q-10 -9 -10 -28l-19 -6l-6 57l88 23q27 7 47 18
t33 22q32 26 44 64q11 35 11 64q0 69 -10 94q1 -1 0.5 -0.5t-1.5 2.5q-25 62 -95 73q-6 1 -99 0q-46 -1 -68 -16q-28 -19 -28 -64v-99q0 -57 52 -44z" />
    <glyph glyph-name="acute" unicode="&#xb4;" horiz-adv-x="1234" 
d="M785 1518l-278 -235h-67v36l190 261l155 1v-63z" />
    <glyph glyph-name="mu" unicode="&#xb5;" horiz-adv-x="1283" 
d="M1013 128q0 -54 31 -75q25 -17 81 -17v-43h-266q-8 0 -16 1q-56 8 -94 60q-25 -21 -48 -33q-62 -35 -107 -40v0q-26 -3 -51 -3h-65q-38 0 -73 2q-5 1 -12 2v-278h-278v1248q-5 54 -33 72q-23 15 -82 15v48h392l1 -914q0 -134 148 -146h40q73 7 117 54q39 43 39 98v773
q-5 54 -33 72q-23 15 -82 15v48h391v-959z" />
    <glyph glyph-name="paragraph" unicode="&#xb6;" horiz-adv-x="1246" 
d="M226 1457l2 1q136 95 753 48v-1805h-132v1705h-138v-1705h-131v1053q-213 0 -345 117q-131 116 -131 307q0 197 121 279h1z" />
    <glyph glyph-name="periodcentered" unicode="&#xb7;" horiz-adv-x="1246" 
d="M495 729h264v-264h-264v264z" />
    <glyph glyph-name="cedilla" unicode="&#xb8;" horiz-adv-x="1234" 
d="M637 -109q83 -16 118 -55q32 -34 32 -95t-57 -105q-46 -35 -128 -35q-38 0 -105 18l-2 102l31 -5l5 -39q19 -3 32 -3q51 0 76 21q26 21 26 61q0 73 -103 96v1v39l66 108h65v-20z" />
    <glyph glyph-name="uni00B9" unicode="&#xb9;" horiz-adv-x="434" 
d="M270 1513h39v-708q0 -41 16 -55q11 -11 48 -11v-26h-284v26q36 0 48 11q15 14 15 55v613q-18 -11 -29.5 -17t-15.5 -9l-5 -3q-13 -7 -20 -11.5t-10 -6.5q-11 -11 -11 -32l-21 -10v54z" />
    <glyph glyph-name="ordmasculine" unicode="&#xba;" horiz-adv-x="848" 
d="M466 754q33 0 58 8q24 7 41 18q41 26 41 78v514q0 96 -134 105h-3q-3 0 -11 1l-29 2l-30 -2q-7 -1 -11 -1h-3q-133 -9 -133 -105v-514q0 -53 39 -78q17 -11 41 -18q25 -8 58 -8h76zM561 1512q121 0 177 -45q54 -42 54 -128v-448q0 -88 -55 -129q-59 -43 -184 -43h-254
q-126 0 -184 43q-55 41 -55 129v448q0 86 53 128q57 45 178 45h270zM108 502h614v126h-614v-126z" />
    <glyph glyph-name="guillemotright" unicode="&#xbb;" horiz-adv-x="1086" 
d="M516 893l-20 27l75 56v0l423 -432l-423 -431l-75 56l20 27l24 -18l205 294q37 54 37 73q0 18 -37 71l-206 294zM126 893l-20 27l75 56v0l423 -432l-423 -431l-75 56l20 27l24 -18l205 294q37 54 37 73q0 18 -37 71l-206 294z" />
    <glyph glyph-name="onequarter" unicode="&#xbc;" horiz-adv-x="1380" 
d="M1127 250h-12v-101q0 -41 13 -55q12 -11 43 -11v-26h-251v26q32 0 43 11q14 14 14 55v101h-266v28l370 579h34v-579h59v-59h-16q0 20 -9 26q-6 5 -22 5zM817 278h160v355l-191 -297q-26 -40 -15 -51q8 -7 46 -7zM370 1513h39v-708q0 -41 16 -55q11 -11 48 -11v-26h-284
v26q36 0 48 11q15 14 15 55v613q-18 -11 -29.5 -17t-15.5 -9l-5 -3q-13 -7 -20 -11.5t-10 -6.5q-11 -11 -11 -32l-21 -10v54zM47 -37l1108 1554h168l-1110 -1554h-166z" />
    <glyph glyph-name="onehalf" unicode="&#xbd;" horiz-adv-x="1464" 
d="M412 1513h39v-708q0 -41 16 -55q11 -11 48 -11v-26h-284v26q36 0 48 11q15 14 15 55v613q-18 -11 -29.5 -17t-15.5 -9l-5 -3q-13 -7 -20 -11.5t-10 -6.5q-11 -11 -11 -32l-21 -10v54zM40 -37l1108 1554h168l-1110 -1554h-166zM871 800h349q113 0 155 -81q19 -36 19 -100
v-16q0 -57 -19 -96q-15 -30 -42 -53q-20 -15 -45.5 -28t-58.5 -22q-57 -15 -163 -48q-108 -33 -107 -33v-223q0 -21 8.5 -35.5t22.5 -23.5q23 -15 67 -15h88q27 0 39 7q20 11 20 46v58q0 30 -15 35l-39 -3v25l225 58v-252h-510q-22 0 -37 9q-22 12 -26 45q-1 1 -1 7v221
q7 25 47 36q1 0 1 1l110 29l138 44q30 10 51 26t35 36q7 11 15.5 32t18.5 53q11 36 11 64q0 70 -5.5 83t-5.5 14q-26 63 -96 74h-99q-108 -2 -109 -81v-160l64 18q23 6 31 13q15 12 16 35l18 6v-62l-235 -61v257q0 28 16 44q7 8 19.5 12.5t28.5 4.5z" />
    <glyph glyph-name="threequarters" unicode="&#xbe;" horiz-adv-x="1408" 
d="M1127 250h-12v-101q0 -41 13 -55q12 -11 43 -11v-26h-251v26q32 0 43 11q14 14 14 55v101h-266v28l370 579h34v-579h59v-59h-16q0 20 -9 26q-6 5 -22 5zM817 278h160v355l-191 -297q-26 -40 -15 -51q8 -7 46 -7zM57 -37l1108 1554h168l-1110 -1554h-166zM383 1117l96 31
q88 -25 128 -122q23 -55 18 -114q-1 -14 -4 -29.5t-10 -31.5l-3 -8h-1q-45 -95 -166 -121q-44 -9 -88 -9h-224q-33 0 -53 22q-22 24 -22 66v119l152 41v-27q-18 -5 -27 -9q-21 -12 -21 -43v-70q0 -21 8 -35t22 -24q23 -14 67 -14h71q14 2 28 5.5t28 11.5q40 20 62 73
q19 47 17 107q-1 29 -6 55.5t-16 51.5q-20 50 -56 74zM207 1264v-24l-157 -42l1 254q0 29 16.5 45t47.5 16h333q118 -10 154 -81q17 -34 18 -96q1 -66 -66.5 -117.5t-204.5 -86.5l-30 -8l-24 -6q-18 -5 -27 -14q-10 -9 -10 -28l-19 -6l-6 57l88 23q27 7 47 18t33 22
q32 26 44 64q11 35 11 64q0 69 -10 94q1 -1 0.5 -0.5t-1.5 2.5q-25 62 -95 73q-6 1 -99 0q-46 -1 -68 -16q-28 -19 -28 -64v-99q0 -57 52 -44z" />
    <glyph glyph-name="questiondown" unicode="&#xbf;" horiz-adv-x="1102" 
d="M375 -428q-237 0 -297 140q-21 48 -21 115v104q0 79 16 113q16 36 75 85q16 13 65 47q53 37 82 59q62 50 107 129q29 53 29 153v106h292q0 -158 -61 -280q-53 -105 -155 -190q-90 -75 -118 -136q-17 -37 -17 -98v-138q0 -86 55 -121q43 -28 132 -28h15q156 4 209 96
q42 73 42 267l209 55v-226q-1 -66 -21 -112q-60 -140 -298 -140h-340zM431 811v275h292v-275h-292z" />
    <glyph glyph-name="Agrave" unicode="&#xc0;" 
d="M511 0h-480v48q54 0 86 30q28 31 50 98l86 260l-21 -4q-79 -21 -79 -89l-34 -10v115l151 40l276 829q40 117 -87 117v49h235q65 0 100 -26q32 -25 52 -84l86 -290q28 -95 100.5 -335.5t189.5 -626.5q13 -39 37 -55q23 -17 73 -17v-49h-508v49q57 0 82 13q39 23 11 116
l-123 399l-265 -69l-114 -338q-24 -74 3 -101q22 -21 93 -21v-48zM345 1990h155l190 -261v-36h-67l-278 235v62zM556 560l235 62l-101 335z" />
    <glyph glyph-name="Aacute" unicode="&#xc1;" 
d="M511 0h-480v48q56 0 86 30q28 31 50 98l86 260l-20 -4q-80 -21 -80 -89l-34 -10v115l151 40l276 829q40 117 -87 117v49h235q65 0 100 -26q32 -25 52 -84l86 -290q28 -95 100.5 -335.5t190.5 -626.5q13 -40 36 -55q23 -17 73 -17v-49h-508v49q57 0 82 13q39 22 11 116
l-123 399l-265 -69l-114 -338q-24 -74 3 -101q22 -21 93 -21v-48zM977 1928l-278 -235h-67v36l190 261h155v-62zM556 560l235 62l-101 335z" />
    <glyph glyph-name="Acircumflex" unicode="&#xc2;" 
d="M511 0h-480v48q56 0 86 31q28 29 50 97l86 261l-20 -5q-80 -20 -80 -90l-34 -9v115l151 40l276 829q40 117 -87 117v49h235q65 0 100 -26q32 -25 52 -84l86 -290q28 -95 100.5 -335.5t190.5 -625.5q13 -40 36 -56q23 -17 73 -17v-49h-508v49q57 0 82 13q39 22 11 116
l-123 399l-265 -69l-114 -338q-24 -74 3 -100q23 -22 93 -22v-48zM792 1989l222 -296h-125v31l-207 166l-206 -165v-32h-127l222 296h221zM556 560l235 62l-101 335z" />
    <glyph glyph-name="Atilde" unicode="&#xc3;" 
d="M511 0h-480v48q56 0 86 30q28 31 50 98l86 260l-20 -4q-80 -21 -80 -89l-34 -10v115l151 40l276 829q40 117 -87 117v49h235q65 0 100 -26q32 -25 52 -84l86 -290q28 -95 100.5 -335.5t190.5 -626.5q13 -40 36 -55q23 -17 73 -17v-49h-508v49q57 0 82 13q39 22 11 116
l-123 399l-265 -69l-114 -338q-24 -74 3 -101q22 -21 93 -21v-48zM1003 1886q-3 -98 -59 -148q-45 -42 -129 -45h-7q-26 1 -50.5 4t-47.5 10q-12 5 -34 15t-54 26q-45 23 -82 25q-44 -2 -78 -21q-35 -20 -52 -59h-50q5 99 59 148q46 42 130 45h6q27 -1 51.5 -5t46.5 -11
q13 -3 34.5 -13t53.5 -26q45 -23 82 -25q43 1 78 21q36 20 53 59h49zM556 560l235 62l-101 335z" />
    <glyph glyph-name="Adieresis" unicode="&#xc4;" 
d="M556 560l235 62l-101 335zM511 0h-480v48q56 0 86 31q28 30 50 97l86 261l-20 -5q-80 -19 -80 -89l-34 -10v115l151 40l276 829q40 117 -87 117v49h235q65 0 100 -26q33 -25 52 -84q1 -4 86 -290q56 -190 291 -961q14 -41 36 -56q23 -17 73 -17v-49h-508v49q57 0 82 13
q40 22 11 116l-123 399l-265 -69l-114 -338q-24 -73 3 -100q22 -22 93 -22v-48zM590 1631h-235v236h235v-236zM1080 1631h-235v236h235v-236z" />
    <glyph glyph-name="Aring" unicode="&#xc5;" 
d="M556 560l235 62l-101 335zM511 0h-480v48q56 0 86 31q28 30 50 97l86 261l-20 -5q-80 -19 -80 -89l-34 -10v115l151 40l276 829q40 117 -87 117v49h235q65 0 100 -26q33 -25 52 -84q1 -4 86 -290q56 -190 291 -961q14 -41 36 -56q23 -17 73 -17v-49h-508v49q57 0 82 13
q40 22 11 116l-123 399l-265 -69l-114 -338q-24 -73 3 -100q22 -22 93 -22v-48zM753 1793q25 25 25 60q0 34 -25 60q-26 25 -60 25t-60 -25q-25 -26 -25 -60q0 -35 25 -60q26 -25 60 -25t60 25zM580 1740q-47 47 -47 113q0 67 47 114q47 46 113 46q67 0 114 -46
q46 -47 46 -114q0 -66 -46 -113q-47 -47 -114 -47q-66 0 -113 47z" />
    <glyph glyph-name="AE" unicode="&#xc6;" horiz-adv-x="1881" 
d="M914 713v440l-296 -521zM1878 432l-55 -432h-1026v49q66 0 89 20q28 25 28 101v495l-328 -89l-231 -406q-41 -70 -16 -99q20 -22 90 -22v-49h-429v49q44 0 146 131l194 329l-53 -15q-39 -11 -55 -24q-25 -21 -25 -64l-34 -10v115l114 31l87 23l540 915h942v-367l-236 -64
v49q46 16 55 42q8 23 8 136q2 39 -20 78q-43 77 -162 77h-295v-505v0v-256q235 63 278 75t59 24q28 22 28 67l34 10v-189l-34 -10q-2 42 -21 54q-14 9 -44 3l-300 -82v-424q0 -84 53 -120q42 -28 128 -29h170q58 0 80 13q31 18 41 74l19 125q7 57 -11 67q-12 6 -63 -7v43
l67 18v0z" />
    <glyph glyph-name="Ccedilla" unicode="&#xc7;" horiz-adv-x="1181" 
d="M1118 1112l-236 -64v49q64 25 64 97v82q0 86 -42 124q-38 34 -118 34h-419v-1235q0 -69 36 -109q37 -40 112 -40h271q79 0 120 42q37 39 37 107v115l175 57v-191q0 -68 -63 -125q-61 -55 -133 -55q-268 1 -407 1h-242q-119 0 -183 69q-60 64 -60 175v993q0 140 90 197
q75 48 219 48h583q93 0 145 -49q51 -48 51 -131v-191zM570 -109q83 -16 118 -55q32 -34 32 -95t-57 -105q-46 -35 -128 -35q-38 0 -105 18l-2 102l31 -5l5 -39q19 -3 32 -3q51 0 76 21q26 21 26 61q0 73 -103 96v1v39l66 108h65v-20z" />
    <glyph glyph-name="Egrave" unicode="&#xc8;" horiz-adv-x="1167" 
d="M858 365l256 68l-55 -433h-1029v49q67 0 90 20q28 24 28 102v376q-25 -7 -39 -11.5t-17 -6.5q-25 -24 -25 -70l-34 -10v116l115 31v716q0 77 -28 102q-11 9 -33.5 14.5t-56.5 5.5v49h1062v-368l-237 -65v50q60 21 60 88v129q0 66 -36 93q-30 24 -95 24h-344v-762l279 75
q22 6 36.5 11.5t22.5 12.5q28 21 28 66l34 11v-190l-34 -9q-2 42 -21 52q-15 11 -44 4l-301 -82v-425q0 -84 53 -120q44 -29 128 -29h171q59 0 81 13q31 19 40 74l19 125q9 58 -11 66q-12 9 -63 -5v43zM399 1990h155l190 -261v-36h-67l-278 235v62z" />
    <glyph glyph-name="Eacute" unicode="&#xc9;" horiz-adv-x="1167" 
d="M858 365l256 68l-55 -433h-1029v49q67 0 90 20q28 24 28 102v376q-25 -7 -39 -11.5t-17 -6.5q-25 -24 -25 -70l-34 -10v116l115 31v716q0 77 -28 102q-11 9 -33.5 14.5t-56.5 5.5v49h1062v-368l-237 -65v50q60 21 60 88v129q0 66 -36 93q-30 24 -95 24h-344v-762l279 75
q22 6 36.5 11.5t22.5 12.5q28 21 28 66l34 11v-190l-34 -9q-2 42 -21 52q-15 11 -44 4l-301 -82v-425q0 -84 53 -120q44 -29 128 -29h171q59 0 81 13q31 19 40 74l19 125q9 58 -11 66q-12 9 -63 -5v43zM867 1928l-278 -235h-67v36l190 261h155v-62z" />
    <glyph glyph-name="Ecircumflex" unicode="&#xca;" horiz-adv-x="1167" 
d="M859 365l256 68l-56 -433h-1029v49q67 0 90 20q28 24 28 102v377q-47 -13 -55 -19q-26 -23 -26 -70l-34 -10v116l115 31v716q0 77 -28 102q-23 20 -90 20v49h1062v-368l-236 -64v49q59 21 59 88v130q0 68 -36 92q-29 24 -95 24h-344v-762l279 75q42 12 60 23q27 24 27 68
l34 10v-189l-34 -10q-2 41 -21 53q-12 11 -44 3l-301 -82v-425q0 -84 53 -120q46 -29 128 -29h171q61 0 81 13q31 18 40 74l19 125q11 57 -11 67q-12 7 -62 -6v43zM683 1989l222 -296h-125v31l-207 166l-207 -165v-32h-126l221 296h222z" />
    <glyph glyph-name="Edieresis" unicode="&#xcb;" horiz-adv-x="1167" 
d="M858 365l256 68l-55 -433h-1029v49q67 0 90 20q28 25 28 102v377q-50 -14 -56 -19q-25 -22 -25 -70l-34 -10v116l115 31v716q0 77 -28 102q-23 20 -90 20v49h1062v-368l-237 -64v49q60 21 60 88v130q0 66 -36 93q-30 23 -95 23h-344v-762l279 75q43 12 59 24q28 22 28 67
l34 10v-189l-34 -10q-2 41 -21 53q-14 11 -44 3l-301 -82v-425q0 -84 53 -120q44 -29 128 -29h171q59 0 81 13q31 19 40 74l19 125q9 58 -11 67q-12 7 -63 -6v43zM469 1631h-235v236h235v-236zM959 1631h-235v236h235v-236z" />
    <glyph glyph-name="Igrave" unicode="&#xcc;" horiz-adv-x="624" 
d="M30 1483h529v-49q-34 0 -56.5 -5.5t-33.5 -14.5q-29 -26 -29 -102v-1141q0 -78 29 -102q23 -20 90 -20v-49h-529v49q67 0 90 20q28 24 28 102v1141q0 77 -28 102q-11 9 -33.5 14.5t-56.5 5.5v49zM20 1990h155l190 -261v-36h-67l-278 235v62z" />
    <glyph glyph-name="Iacute" unicode="&#xcd;" horiz-adv-x="624" 
d="M30 1483h529v-49q-34 0 -56.5 -5.5t-33.5 -14.5q-29 -26 -29 -102v-1141q0 -78 29 -102q23 -20 90 -20v-49h-529v49q65 0 90 20q27 24 27 102v1141q0 76 -27 102q-12 9 -34 14.5t-56 5.5v49zM589 1928l-278 -235h-66v36l190 261h154v-62z" />
    <glyph glyph-name="Icircumflex" unicode="&#xce;" horiz-adv-x="624" 
d="M30 1483h529v-49q-67 0 -90 -20q-29 -26 -29 -102v-1141q0 -76 29 -102q23 -20 90 -20v-49h-529v49q67 0 90 20q28 25 28 102v1141q0 77 -28 102q-23 20 -90 20v49zM405 1989l222 -296h-125v31l-207 166l-207 -165v-32h-126l222 296h221z" />
    <glyph glyph-name="Idieresis" unicode="&#xcf;" horiz-adv-x="624" 
d="M75 1483h529v-49q-67 0 -90 -20q-29 -26 -29 -102v-1141q0 -76 29 -102q23 -20 90 -20v-49h-529v49q67 0 90 20q28 25 28 102v1141q0 77 -28 102q-23 20 -90 20v49zM236 1631h-235v236h235v-236zM726 1631h-235v236h235v-236z" />
    <glyph glyph-name="Eth" unicode="&#xd0;" horiz-adv-x="1573" 
d="M866 49q80 3 120 32q49 36 49 117v1086q0 137 -148 149h-221q-99 -1 -181 0v-659h282v-77h-282v-499q0 -82 51 -117q41 -30 122 -32h208zM1317 244v0q0 -124 -71 -183q-75 -61 -238 -61h-910v49q67 0 90 20q28 25 28 102v526h-206v77h206v536q0 77 -28 102q-23 20 -90 20
v49h912q162 0 236 -61q71 -59 71 -183v-993z" />
    <glyph glyph-name="Ntilde" unicode="&#xd1;" horiz-adv-x="1419" 
d="M559 0h-529v49q67 0 90 20q28 25 28 102l1 -3v1117q0 97 -26 125q-22 24 -93 24v49h242q70 0 117 -31q41 -28 84 -94l470 -808v762q0 77 -28 102q-23 20 -90 20v49h529v-49q-67 0 -90 -20q-28 -25 -28 -102l-1 3v-1315h-242q-183 314 -342 587q-109 187 -210 360v-776
q0 -77 28 -102q23 -20 90 -20v-49zM764 2170h-10h10zM1014 1896q-3 -99 -59 -148q-47 -42 -129 -45h-7q-53 1 -98 15q-24 8 -88 40q-46 24 -82 25q-44 -1 -78 -21q-36 -21 -52 -59h-50q4 99 59 148q47 42 130 45v0q-1 0 6 0q54 -1 98 -15q25 -8 88 -40q46 -24 82 -25
q44 1 78 21q37 21 53 59h49z" />
    <glyph glyph-name="Ograve" unicode="&#xd2;" horiz-adv-x="1276" 
d="M1210 245q0 -125 -72 -185t-237 -60h-562q-165 0 -237 60t-72 185v993q0 125 72 184q75 61 236 61h573q156 0 229 -64q70 -57 70 -181v-993zM767 49q21 0 39 1.5t34 6.5q15 4 27.5 10t22.5 14q50 33 50 117v1087q0 136 -145 149h-129h-150.5t-215.5 1v-1237
q0 -84 50 -117q10 -8 22.5 -14t27.5 -10q16 -5 34 -6.5t39 -1.5h294zM348 1990h155l190 -261v-36h-67l-278 235v62z" />
    <glyph glyph-name="Oacute" unicode="&#xd3;" horiz-adv-x="1276" 
d="M1210 245q0 -126 -72 -185q-36 -31 -95.5 -45.5t-140.5 -14.5h-562q-165 0 -238 60q-72 60 -72 185v993q0 125 72 184q38 30 96 45.5t140 15.5h573q158 0 229 -64q70 -57 70 -181v-993zM768 49q20 0 38.5 1.5t34.5 6.5q15 4 27 10t22 14q50 33 50 117v1087
q0 136 -145 149h-129h-150.5t-215.5 1v-1237q0 -84 51 -117q20 -16 50 -24q15 -5 33.5 -6.5t39.5 -1.5h294zM916 1928l-278 -235h-67v36l190 261h155v-62z" />
    <glyph glyph-name="Ocircumflex" unicode="&#xd4;" horiz-adv-x="1276" 
d="M1210 245q0 -125 -73 -184q-73 -61 -237 -61h-562q-81 0 -140.5 15t-95.5 46q-73 59 -73 184v992q0 126 73 185q71 61 235 61h574q154 0 228 -63q71 -59 71 -183v-992zM766 49q21 0 39 2t34 6q31 9 50 24q50 35 50 117v1087q0 136 -145 149h-129h-150.5t-215.5 1v-1237
q0 -81 50 -117q22 -16 51 -24q32 -8 72 -8h294zM729 1989l223 -296h-125v31l-207 166l-207 -165v-32h-126l222 296h220z" />
    <glyph glyph-name="Otilde" unicode="&#xd5;" horiz-adv-x="1276" 
d="M1210 245q0 -125 -72 -185t-237 -60h-562q-165 0 -237 60t-72 185v993q0 125 72 184q75 61 236 61h573q156 0 229 -64q70 -57 70 -181v-993zM767 49q21 0 39 1.5t34 6.5q15 4 27.5 10t22.5 14q50 33 50 117v1087q0 136 -145 149h-129h-150.5t-215.5 1v-1237
q0 -84 50 -117q10 -8 22.5 -14t27.5 -10q16 -5 34 -6.5t39 -1.5h294zM941 1886q-3 -98 -59 -148q-45 -42 -129 -45h-7q-26 1 -50.5 4t-47.5 10q-12 5 -34 15t-54 26q-45 23 -82 25q-44 -2 -78 -21q-35 -20 -52 -59h-50q4 98 59 148q48 42 130 45h6q27 -1 51.5 -5t46.5 -11
q13 -3 34.5 -13t53.5 -26q45 -23 82 -25q43 1 78 21q36 20 53 59h49z" />
    <glyph glyph-name="Odieresis" unicode="&#xd6;" horiz-adv-x="1276" 
d="M767 49q42 0 73 8q30 9 50 24q50 35 50 117v1087q0 136 -145 149h-129q-119 0 -366 1v-1237q0 -82 50 -117q20 -15 50 -24q31 -8 73 -8h294zM1210 245q0 -126 -72 -184q-73 -61 -237 -61h-562q-164 0 -237 61q-72 58 -72 184v993q0 125 72 184q73 61 236 61h573
q155 0 229 -63q70 -58 70 -182v-993zM517 1631h-235v236h235v-236zM1007 1631h-235v236h235v-236z" />
    <glyph glyph-name="multiply" unicode="&#xd7;" horiz-adv-x="1246" 
d="M1099 0l-425 422q-30 29 -43 30q-14 1 -39 -23l-433 -428l-99 100l410 409v0q43 43 43 56q0 14 -43 57l-409 406l97 110l414 -414q43 -43 57 -43t57 43l415 414l95 -112l-430 -426q-22 -23 -21 -36q1 -12 25 -37l427 -427z" />
    <glyph glyph-name="Oslash" unicode="&#xd8;" horiz-adv-x="1591" 
d="M1026 1026l-543 -633v-223q0 -141 167 -155q30 -4 43 -5q61 3 123 0q12 1 43 5q167 14 167 155v856zM483 516l543 633v149q0 141 -167 156q-31 3 -43 4q-62 -2 -123 0q-13 -1 -43 -4q-167 -15 -167 -156v-782zM1325 409q-6 -259 -152 -362q-98 -70 -313 -85q1 -1 -78 -2
h-55q-79 1 -78 2q-140 10 -220 38q-113 40 -172 129l-142 -165h-105l208 243q-31 84 -34 202v650q6 259 152 362q98 70 313 85q-1 1 78 2h55q79 -1 78 -2q262 -18 362 -128l142 165h105l-199 -233q51 -97 55 -251v-650z" />
    <glyph glyph-name="Ugrave" unicode="&#xd9;" horiz-adv-x="1472" 
d="M1276 381q0 -44 -6.5 -82t-17.5 -71q-21 -67 -64 -117q-95 -111 -278 -111h-396q-186 0 -281 115q-83 104 -83 278l-1 917q0 76 -29 103q-22 20 -90 20v48l526 1v-48q-57 0 -83 -16q-34 -18 -34 -108v-1112q0 -70 36 -109q37 -40 112 -40h215q22 0 40 1.5t34 6.5
q30 7 53 22q54 34 54 117v1115q0 76 -27 102q-24 21 -91 21v47h529v-47q-66 0 -90 -21q-28 -27 -28 -102v-930zM376 1990h155l190 -261v-37h-67l-278 235v63z" />
    <glyph glyph-name="Uacute" unicode="&#xda;" horiz-adv-x="1472" 
d="M1275 381q0 -86 -23 -153q-12 -33 -27.5 -62t-36.5 -55q-95 -111 -278 -111h-397q-186 0 -281 116q-83 104 -83 277l-1 918q0 77 -29 102q-22 20 -89 20v49l526 1v-49q-29 0 -49.5 -4t-33.5 -11q-34 -19 -34 -108v-1113q0 -69 36 -109q37 -40 112 -40h214q22 0 39.5 1.5
t34.5 6.5q31 7 54 21q53 36 53 118v1116q0 77 -27 101q-12 10 -34 15.5t-57 5.5v48h530v-48q-66 0 -90 -21q-29 -26 -29 -101v-931zM1007 1928l-278 -235h-67v36l190 261h155v-62z" />
    <glyph glyph-name="Ucircumflex" unicode="&#xdb;" horiz-adv-x="1472" 
d="M1275 381q0 -87 -23 -153q-22 -66 -64 -117q-95 -111 -278 -111h-396q-187 0 -282 116q-83 104 -83 278l-1 917q0 77 -28 102q-23 20 -90 20v49l526 1v-49q-57 0 -83 -15q-34 -20 -34 -108v-1113q0 -69 36 -109q37 -40 112 -40h215q42 0 73 8q32 8 54 22q54 34 54 117
v1116q0 77 -28 101q-23 21 -90 21v48h529v-48q-68 0 -90 -21q-29 -26 -29 -101v-931zM823 1989l222 -296h-125v31l-207 166l-207 -165v-32h-126l222 296h221z" />
    <glyph glyph-name="Udieresis" unicode="&#xdc;" horiz-adv-x="1472" 
d="M1275 381q0 -87 -23 -153q-22 -66 -64 -117q-95 -111 -278 -111h-396q-187 0 -282 116q-83 104 -83 278l-1 917q0 77 -28 102q-23 20 -90 20v49l526 1v-49q-57 0 -83 -15q-34 -20 -34 -108v-1113q0 -69 36 -109q37 -40 112 -40h215q42 0 73 8q32 8 54 22q54 34 54 117
v1116q0 77 -28 101q-23 21 -90 21v48h529v-48q-68 0 -90 -21q-29 -26 -29 -101v-931zM609 1631h-235v236h235v-236zM1099 1631h-235v236h235v-236z" />
    <glyph glyph-name="Yacute" unicode="&#xdd;" horiz-adv-x="1434" 
d="M1366 1482v-48q-55 0 -80 -27q-21 -22 -49 -95l-345 -962v-179q0 -76 28 -103q24 -19 89 -19v-49h-528v49q67 0 91 19q28 27 28 103v201l-402 946q-12 31 -27 52t-32 34q-38 28 -109 28v50h288q91 0 134 -112l298 -689l205 631q30 74 0 103q-19 19 -89 19v48h500z
M994 1927l-278 -234h-67v36l190 261l155 1v-64z" />
    <glyph glyph-name="Thorn" unicode="&#xde;" horiz-adv-x="1173" 
d="M833 1024q0 134 -149 145h-226v-693q16 -101 140 -112q-2 0 14 -2q16 -1 32 -1q15 0 31 1q16 2 15 2q142 12 142 146zM806 1219q160 0 233 -60q71 -58 71 -181v-422q0 -121 -69 -179q-71 -61 -226 -63h-224q-91 0 -133 45v-220q0 -54 31 -74q25 -17 81 -17v-48h-510v48
q50 0 81 25t31 67v1104q0 114 -31 156q-25 33 -81 33v48h510v-48q-50 0 -81 -25t-31 -67v-122h346h2z" />
    <glyph glyph-name="germandbls" unicode="&#xdf;" horiz-adv-x="1258" 
d="M991 632q193 -163 193 -332q0 -139 -99 -232t-248 -93q-105 0 -229 30v207h56l1 -19q5 -95 27 -126q21 -29 145 -29q82 0 132 52q50 53 50 138q0 113 -122 220l-194 171q-140 122 -140 246q0 77 82 180l26 35q82 106 82 248q0 129 -44 193t-132 64q-80 0 -118 -72
q-26 -51 -26 -115v-1218q0 -80 29 -105q24 -22 93 -22v-50h-515v50q69 0 93 22q29 25 29 105v1099q0 171 73 256q76 89 253 108q41 5 87 5q162 0 265 -76t103 -196q0 -93 -136 -237l-39 -41q-78 -83 -78 -142q0 -67 120 -170z" />
    <glyph glyph-name="agrave" unicode="&#xe0;" horiz-adv-x="937" 
d="M254 -10q-150 0 -214 84q-39 54 -39 182v57h1q3 82 48 123q26 24 75.5 48.5t122.5 47.5q77 24 129 41.5t81 28.5v-117l-35 -11q0 17 -2 29t-4 20q-4 23 -50 5q-70 -24 -101 -76q-29 -49 -29 -139v-88q0 -65 20 -108q32 -69 104 -69h54q11 1 21 3t18 4q9 2 17 6t15 8
q56 40 56 156v677q0 25 -6.5 46t-20.5 37q-31 41 -84 41h-54q-58 0 -86 -40q-23 -31 -23 -83v-37q0 -75 52 -75q16 0 28 4v-45l-292 -84v304q0 48 28 77q28 27 74 27h372q128 0 192 -49q59 -47 67 -148h1v-720l1 2q0 -73 24 -93q19 -20 75 -20v-45h-242q-62 0 -106 62
q-13 -24 -52 -48q-41 -23 -64 -23h-9.5t-10.5 -1q-7 -1 -11.5 -1h-8.5h-132zM150 1566l156 -1l189 -261v-36h-66l-279 235v63z" />
    <glyph glyph-name="aacute" unicode="&#xe1;" horiz-adv-x="937" 
d="M253 -10q-77 0 -129.5 21t-84.5 63q-39 54 -39 182v57h1q3 84 48 123q26 24 75 48.5t124 47.5q76 24 128 41.5t81 28.5v-117l-35 -11q0 32 -6 49q-6 23 -51 5q-69 -24 -100 -76q-30 -51 -30 -139v-88q0 -63 21 -108q31 -69 103 -69h55q11 1 20.5 3t17.5 4q10 2 18 6t14 8
q29 20 43 59.5t14 96.5v677q0 51 -27 83q-32 41 -84 41h-53q-59 0 -86 -40q-13 -15 -18.5 -36t-5.5 -47v-37q0 -75 51 -75q17 0 29 4v-45l-292 -84v304q0 49 28 77q27 27 73 27h372q129 0 193 -49q58 -45 66 -148h1v-720l1 2q0 -72 25 -93q17 -20 76 -20v-45h-243
q-63 0 -107 62q-13 -25 -52 -48q-38 -23 -63 -23h-9t-12 -1q-6 -1 -10.5 -1h-8.5h-132zM740 1503l-278 -235h-67v36l189 261l156 1v-63z" />
    <glyph glyph-name="acircumflex" unicode="&#xe2;" horiz-adv-x="937" 
d="M253 -11q-151 0 -214 84q-39 52 -39 183v56h1q3 81 48 123q51 48 200 95q151 50 210 71v-117l-37 -11q0 17 -1 29t-3 20q-6 22 -52 5q-35 -11 -59.5 -31t-41.5 -46q-14 -25 -21.5 -59t-7.5 -79v-88q0 -32 5.5 -59t14.5 -50q32 -68 104 -68h56q10 1 19.5 3t18.5 4
q8 2 16 5.5t15 7.5q58 43 58 157v677q0 49 -29 84q-33 41 -84 41h-52q-60 0 -86 -41q-25 -31 -25 -83v-37q0 -76 52 -76q16 0 28 4v-45l-292 -84v304q0 50 28 77q27 28 75 28h371q127 0 192 -48q31 -24 47 -61.5t20 -88.5h1v-720l1 2q0 -35 6.5 -58t17.5 -35q18 -18 76 -18
v-45h-243q-64 0 -105 60q-8 -11 -20.5 -23.5t-32.5 -23.5t-35.5 -17t-28.5 -6h-7.5t-12.5 -1q-7 -1 -11.5 -1h-8.5h-132zM556 1564l222 -296h-125v31l-208 166l-207 -165v-32h-125l222 296h221z" />
    <glyph glyph-name="atilde" unicode="&#xe3;" horiz-adv-x="937" 
d="M252 -10q-150 0 -214 84q-19 27 -29 71.5t-10 110.5v57h1q3 82 49 123q53 50 199 96q76 24 128.5 41.5t81.5 28.5v-117l-37 -11q0 34 -4 49q-6 23 -51 5q-68 -23 -101 -76q-14 -26 -21.5 -60t-7.5 -79v-88q0 -32 5 -58.5t14 -49.5q34 -69 105 -69h55q10 1 20 3t18 4
t16.5 6t15.5 8q57 40 57 156v677q0 25 -7 46t-22 37q-15 21 -36 31t-47 10h-53q-59 0 -86 -40q-24 -30 -24 -83v-37q0 -75 52 -75q15 0 28 4v-45l-292 -84v304q0 47 27 77q15 14 33 20.5t42 6.5h372q127 0 191 -49q60 -46 68 -148h1v-720l1 2q0 -72 24 -93q19 -20 76 -20
v-45h-243q-62 0 -106 62q-7 -13 -20 -24.5t-32 -23.5q-40 -23 -65 -23h-7.5t-11.5 -1t-11.5 -1h-9.5h-132zM766 1460q-3 -97 -59 -147q-47 -42 -129 -45h-7q-54 2 -97 15q-13 4 -35 14t-54 26q-47 24 -81 25q-23 -1 -42 -6.5t-36 -14.5q-19 -11 -31.5 -26t-20.5 -33h-51
q5 98 60 148q46 42 130 44h5q54 0 98 -14q14 -4 35 -14t53 -26q47 -24 82 -26q42 1 78 22q20 11 32.5 25.5t20.5 32.5h49z" />
    <glyph glyph-name="adieresis" unicode="&#xe4;" horiz-adv-x="937" 
d="M253 -10q-151 0 -214 84q-39 52 -39 182v57h1q3 81 48 123q52 48 199 95q151 50 210 71v-117l-36 -11q0 33 -5 49q-6 22 -51 5q-70 -24 -101 -77q-29 -50 -29 -138v-88q0 -64 20 -109q32 -68 104 -68h55q21 2 38 7q18 5 32 13q57 42 57 157v677q0 50 -28 83
q-31 41 -84 41h-53q-59 0 -86 -40q-24 -32 -24 -83v-37q0 -76 52 -76q15 0 28 4v-45l-292 -84v304q0 48 28 77q28 28 74 28h372q128 0 192 -49q60 -47 67 -149h1v-720l1 2q0 -71 24 -93q19 -19 76 -19v-45h-243q-63 0 -106 61q-13 -24 -52 -47t-64 -23q-7 0 -20 -1t-20 -1
h-132zM277 1221h-235v236h235v-236zM767 1221h-235v236h235v-236z" />
    <glyph glyph-name="aring" unicode="&#xe5;" horiz-adv-x="937" 
d="M253 -10q-151 0 -214 84q-39 52 -39 182v57h1q3 81 48 123q52 48 199 95q151 50 210 71v-117l-36 -11q0 33 -5 49q-6 22 -51 5q-70 -24 -101 -77q-29 -50 -29 -138v-88q0 -64 20 -109q32 -68 104 -68h55q21 2 38 7q18 5 32 13q57 42 57 157v677q0 50 -28 83
q-31 41 -84 41h-53q-59 0 -86 -40q-24 -32 -24 -83v-37q0 -76 52 -76q15 0 28 4v-45l-292 -84v304q0 48 28 77q28 28 74 28h372q128 0 192 -49q60 -47 67 -149h1v-720l1 2q0 -71 24 -93q19 -19 76 -19v-45h-243q-63 0 -106 61q-13 -24 -52 -47t-64 -23q-7 0 -20 -1t-20 -1
h-132zM440 1383q25 25 25 60q0 34 -25 60q-26 25 -60 25t-60 -25q-25 -26 -25 -60q0 -35 25 -60q26 -25 60 -25t60 25zM267 1330q-47 47 -47 113q0 67 47 114q47 46 113 46q67 0 114 -46q46 -47 46 -114q0 -66 -46 -113q-47 -47 -114 -47q-66 0 -113 47z" />
    <glyph glyph-name="ae" unicode="&#xe6;" horiz-adv-x="1697" 
d="M1523 603q-2 -1 -1 -1q-4 -3 -2 -1q-51 -37 -123 -67q-45 -19 -92 -33q-36 -11 -109 -32q-10 -2 -18 -4q-40 -11 -58 -29q-22 -21 -22 -61l-35 -10v116l35 9l72 20l47 12q73 26 106 82q30 52 30 141v126q0 70 -23 116q-35 70 -119 71h-64q-48 -5 -80 -21
q-66 -44 -66 -166h-1v-665h1v-73q0 -2 1 -12h-1q0 -51 32 -88q35 -42 96 -42h88q66 0 99 42q28 34 28 88h-1q1 4 1 27q-2 99 -93 76v48l336 89v-97q0 -161 -120 -248q-105 -76 -271 -76h-109q-39 0 -74 3q-194 19 -265 144q-98 -103 -128 -114q-38 -13 -87 -13q-48 0 -89 -1
h-63q-173 0 -247 91q-44 55 -44 192v61h1q4 85 56 129q59 51 229 101q172 51 241 76v-125l-41 -12q0 39 -5 53q-5 13 -20 13q-8 0 -26 -4l-14 -4q-81 -25 -116 -81q-33 -53 -33 -146v-93q0 -70 23 -116q35 -70 119 -71h64q48 5 80 21q66 44 66 166v0v632v0v73q0 1 -1 11h1
q0 51 -32 89q-35 42 -96 42h-62q-66 0 -99 -42q-28 -34 -28 -89h1q-1 -10 -1 -11v-1v0v-27q1 -80 61 -80q14 0 32 4v-48l-336 -88v322q4 54 30 81q28 28 87 30h428q101 0 174 -86q95 86 219 86h157q24 0 50 -1v0q51 0 107 -17q84 -24 137 -73q62 -56 62 -125v-140
q0 -82 -70 -140q-6 -5 -12 -9z" />
    <glyph glyph-name="ccedilla" unicode="&#xe7;" horiz-adv-x="879" 
d="M836 369v-92q0 -153 -108 -235q-93 -71 -248 -71h-8v-6l-57 -90q84 -16 119 -56q33 -34 33 -96t-58 -107q-47 -35 -130 -35q-38 0 -106 18l-2 104l31 -6l5 -39q20 -3 33 -3q51 0 77 21t26 62q0 74 -104 97v41l58 95h-17q-35 0 -67 3q-89 8 -149 41q-61 33 -93 94
q-14 26 -21 58q-8 33 -8 71v547q0 116 16 155q53 138 327 138h123h15q9 -1 20 -1q24 -1 48 -4t50 -11q74 -22 123 -68q56 -52 58 -115q-21 -7 -51 -15q-27 -7 -64 -17l-90 -25v44l36 12q-2 25 -3 24q-18 128 -126 128h-90q-111 0 -129 -127v-4l-3 -33q0 -11 -1 -13v-631
q0 -15 1 -32v-35v-14q0 -11 2 -22t5 -22q28 -88 123 -88h93q6 0 12 1q54 0 108 39q55 40 87 115q22 51 19 90q-5 44 -52 32v46l60 16z" />
    <glyph glyph-name="egrave" unicode="&#xe8;" horiz-adv-x="885" 
d="M838 369q0 -114 -12 -172q-7 -35 -21 -63.5t-34 -48.5q-110 -108 -279 -108h-161q-134 0 -218 72q-83 74 -83 192v613q0 123 116 177q40 20 89 29t106 9l219 -1q114 0 203 -55q93 -59 93 -146v-144q0 -98 -154 -173q-29 -15 -87.5 -35.5t-146.5 -46.5q-47 -14 -64 -31
q-19 -21 -19 -54l-32 -10v109l143 39q95 26 117 134q9 40 9 192q0 42 -8.5 75.5t-28.5 56.5q-33 44 -95 44h-59q-135 0 -135 -176v-699q0 -62 44 -100q33 -25 63 -25h98q50 0 82 31q30 27 30 57v59q0 87 -87 71v45zM148 1557l155 -1l189 -261v-36h-66l-278 235v63z" />
    <glyph glyph-name="eacute" unicode="&#xe9;" horiz-adv-x="885" 
d="M838 368q0 -114 -12 -172q-15 -71 -56 -112q-108 -108 -278 -108h-160q-135 0 -219 72q-83 74 -83 192v613q0 123 116 177q40 20 88.5 29t105.5 9l219 -1q115 0 204 -55q92 -59 92 -146v-144q0 -99 -153 -173q-29 -15 -87.5 -35.5t-146.5 -46.5q-44 -13 -64 -31
q-20 -20 -20 -54l-32 -10v109l144 39q93 26 117 134q9 40 9 192q0 86 -37 132q-35 44 -95 44h-60q-134 0 -134 -176v-699q0 -63 44 -100q33 -25 63 -25h99q47 0 81 31q30 28 30 57v59q0 87 -87 71v45zM738 1493l-277 -235h-68v36l190 261l155 1v-63z" />
    <glyph glyph-name="ecircumflex" unicode="&#xea;" horiz-adv-x="885" 
d="M838 368q0 -114 -12 -172q-15 -72 -56 -111q-109 -109 -278 -109h-161q-135 0 -218 74q-83 72 -83 190v614q0 122 116 178q81 38 194 38l219 -1q58 0 108 -14.5t95 -41.5q93 -59 93 -146v-144q0 -97 -153 -173q-29 -16 -88 -36t-147 -46q-44 -14 -63 -31
q-9 -10 -14.5 -23.5t-5.5 -30.5l-31 -10v109l143 39q93 24 117 134q9 40 9 192q0 86 -37 132q-35 44 -95 44h-60q-135 0 -135 -176v-700q0 -62 44 -98q35 -27 64 -27h98q47 0 82 32q30 28 30 56v60q0 88 -87 70v46zM553 1556l223 -296h-125v31l-208 166l-207 -165v-32h-126
l222 296h221z" />
    <glyph glyph-name="edieresis" unicode="&#xeb;" horiz-adv-x="885" 
d="M838 368q0 -114 -12 -172q-15 -71 -56 -112q-108 -108 -278 -108h-161q-135 0 -218 73q-83 72 -83 191v613q0 123 116 178q80 38 194 38l219 -1q115 0 203 -56q93 -59 93 -146v-144q0 -97 -153 -173q-59 -30 -235 -82q-45 -13 -63 -31q-20 -19 -20 -54l-32 -10v109
l144 39q93 25 117 134q9 41 9 192q0 86 -37 132q-35 44 -95 44h-60q-135 0 -135 -176v-699q0 -63 44 -99q33 -26 64 -26h98q48 0 82 31q30 28 30 57v59q0 87 -87 71v45zM333 1221h-235v236h235v-236zM823 1221h-235v236h235v-236z" />
    <glyph glyph-name="igrave" unicode="&#xec;" horiz-adv-x="583" 
d="M453 158q0 -72 25 -94q19 -18 83 -18v-46h-490v46q62 0 83 18q26 23 26 94v723q0 65 -32 79q-20 10 -60 -4l-33 -14v43q75 32 138 44t116 3q147 -20 144 -200v-674zM13 1560l155 -1l190 -261v-36h-67l-278 235v63z" />
    <glyph glyph-name="iacute" unicode="&#xed;" horiz-adv-x="612" 
d="M453 158q0 -72 25 -94q19 -18 83 -18v-46h-490v46q64 0 83 18q26 24 26 94v723q0 65 -32 79q-20 10 -61 -4l-31 -14v43q75 32 137.5 44t115.5 3q147 -20 144 -200v-674zM604 1497l-278 -235h-68v36l191 261l155 1v-63z" />
    <glyph glyph-name="icircumflex" unicode="&#xee;" horiz-adv-x="715" 
d="M465 1579l222 -296h-125v31l-207 166l-207 -165v-32h-126l222 296h221zM529 163q0 -73 26 -97q22 -19 86 -19v-47h-506v47q64 0 86 19q27 24 27 97v746q0 68 -33 82q-22 10 -62 -5l-33 -13v44q19 8 37.5 15t36.5 13q76 25 143 25q60 1 104 -23t70 -76q10 -20 14 -48.5
t4 -64.5v-695z" />
    <glyph glyph-name="idieresis" unicode="&#xef;" horiz-adv-x="749" 
d="M517 158q0 -71 25 -94q21 -18 83 -18v-46h-490v46q62 0 83 18q26 23 26 94v723q0 66 -32 79q-21 10 -60 -4l-32 -13v43q148 63 253 47q147 -21 144 -201v-674zM245 1221h-235v236h235v-236zM735 1221h-235v236h235v-236z" />
    <glyph glyph-name="eth" unicode="&#xf0;" horiz-adv-x="1097" 
d="M767 899q0 129 -153 143h-117q-153 -14 -153 -143v-707q0 -130 153 -143h117q153 13 153 143v707zM631 1367q91 -38 160 -91q228 -178 248 -554q1 -24 2 -42v-270q-6 -237 -139 -332q-90 -64 -287 -78h-119q-197 14 -287 78q-134 95 -139 332v270q5 237 139 332
q90 64 287 78h119q82 -6 136 -17q-48 134 -221 223l-248 -152l-64 84l199 116q-145 52 -296 48l42 64q195 -8 345 -48l248 147l64 -82z" />
    <glyph glyph-name="ntilde" unicode="&#xf1;" horiz-adv-x="1108" 
d="M729 1038l16 8q36 18 70.5 24.5t68.5 -1.5q102 -23 130 -148q6 -28 8.5 -61t2.5 -72v-625q0 -75 27 -97q23 -20 85 -20v-46h-504v46q63 0 86 20q26 23 26 97v639q0 193 -140 119q-35 -19 -77.5 -43.5t-93.5 -53.5v-661q0 -75 27 -97q23 -20 85 -20v-46h-504v46
q62 0 85 20q27 22 27 97v746q0 64 -33 78q-22 10 -61 -5l-33 -13v44l39 15q9 4 18 7.5t17 5.5q27 9 52.5 14.5t49.5 8.5q87 11 140 -18q79 -42 90 -168l203 109l43 24zM868 1306q4 -36 -18 -74t-62 -63q-43 -27 -92 -28q-56 -1 -109 31v0v1h-1q-10 6 -17 12q-63 45 -71 50
q-44 26 -75 23q-30 -4 -48 -27q-20 -24 -21 -68l-31 6q-5 40 22 82q28 42 74 65q51 25 107 17q64 -10 122 -64v0q24 -27 57 -41t63 -10q32 4 50 28q20 28 19 75z" />
    <glyph glyph-name="ograve" unicode="&#xf2;" horiz-adv-x="977" 
d="M648 1073q148 0 218 -61q33 -29 49 -72.5t16 -100.5v-607q0 -118 -67 -175q-70 -57 -227 -57h-312q-157 0 -226 57q-69 58 -69 175v607q0 115 67 173q70 61 219 61h332zM664 884q0 129 -138 141h-2h-5t-8 1l-29 2l-31 -2q-5 -1 -11 -1h-3q-138 -12 -138 -141v-697
q0 -71 40 -105q9 -7 20 -13t23 -12q14 -5 28 -7t32 -2h78q34 0 60 9q12 6 23.5 12t19.5 13q20 17 30.5 43.5t10.5 61.5v697zM186 1570l154 -1l191 -261v-36h-68l-277 235v63z" />
    <glyph glyph-name="oacute" unicode="&#xf3;" horiz-adv-x="977" 
d="M648 1073q149 0 217 -61q66 -57 66 -173v-607q0 -117 -67 -175q-70 -57 -227 -57h-313q-77 0 -134 14t-92 43q-68 59 -68 175v607q0 115 67 173q35 31 89.5 46t128.5 15h333zM663 884q0 129 -138 141h-2h-4.5t-6.5 1l-31 2l-31 -2q-5 -1 -11 -1h-2q-137 -12 -137 -141
v-697q0 -73 39 -105q17 -13 43 -25q25 -9 59 -9h79q35 0 59 9q13 6 24 12t19 13q21 17 31 43.5t10 61.5v697zM776 1507l-278 -235h-66v36l189 261l155 1v-63z" />
    <glyph glyph-name="ocircumflex" unicode="&#xf4;" horiz-adv-x="977" 
d="M647 1073q149 0 218 -62q67 -58 67 -172v-606q0 -118 -69 -175q-71 -58 -226 -58h-313q-156 0 -226 58q-67 55 -67 175v606q0 116 65 172q69 62 219 62h332zM663 883q0 128 -138 142h-2q-7 0 -12 1l-30 2l-31 -2q-5 -1 -11 -1h-3q-137 -14 -137 -142v-695q0 -71 40 -107
q8 -7 19 -12.5t24 -10.5q24 -10 59 -10h78q36 0 60 10q13 5 24 10.5t19 12.5q41 36 41 107v695zM592 1569l221 -296h-125v31l-207 166l-207 -165v-32h-126l223 296h221z" />
    <glyph glyph-name="otilde" unicode="&#xf5;" horiz-adv-x="977" 
d="M646 1073q148 0 219 -61q33 -29 49 -72.5t16 -100.5v-607q0 -119 -68 -175q-70 -57 -226 -57h-312q-157 0 -226 57q-68 56 -68 175v607q0 57 16 100.5t49 72.5q71 61 220 61h331zM663 884q0 129 -138 141h-3q-7 0 -12 1l-29 2l-31 -2q-5 -1 -11 -1h-4q-137 -12 -137 -141
v-697q0 -71 40 -105q8 -7 19.5 -13t23.5 -12q14 -5 28 -7t32 -2h77q34 0 61 9q12 6 23.5 12t19.5 13q41 35 41 105v697zM801 1464q-1 -97 -58 -147q-47 -42 -129 -45h-8q-52 2 -98 15q-11 4 -33.5 14t-54.5 26q-23 11 -43 17.5t-39 7.5q-21 -1 -40.5 -6.5t-37.5 -14.5
q-35 -21 -52 -59h-49q3 97 58 148q47 42 130 44h7q51 0 98 -14q12 -4 34 -14t54 -26q23 -12 43 -18.5t39 -7.5q40 1 78 22q36 21 53 58h48z" />
    <glyph glyph-name="odieresis" unicode="&#xf6;" horiz-adv-x="977" 
d="M663 884q0 129 -138 141h-2q-4 0 -12 1l-30 2l-31 -2q-7 -1 -11 -1h-3q-137 -12 -137 -141v-696q0 -72 40 -106q17 -14 43 -24q25 -10 59 -10h78q35 0 60 10q26 10 43 24q41 35 41 106v696zM647 1073q148 0 218 -61q66 -57 66 -173v-606q0 -120 -68 -175
q-72 -58 -226 -58h-313q-155 0 -226 58q-68 55 -68 175v606q0 116 66 173q70 61 219 61h332zM362 1221h-235v236h235v-236zM852 1221h-235v236h235v-236z" />
    <glyph glyph-name="divide" unicode="&#xf7;" horiz-adv-x="1014" 
d="M927 786v-139h-840v140h839zM398 408l82 84q14 14 29 14q16 0 31 -16l80 -86q12 -17 12 -29q0 -15 -14 -31l-80 -88q-19 -20 -29 -20q-18 0 -29 14l-88 101q-10 13 -10 26q0 15 16 31zM398 1101l82 84q14 14 29 14q16 0 31 -16l80 -86q12 -17 12 -29q0 -15 -14 -31
l-80 -88q-19 -20 -29 -20q-18 0 -29 14l-88 101q-10 13 -10 26q0 15 16 31z" />
    <glyph glyph-name="oslash" unicode="&#xf8;" horiz-adv-x="1234" 
d="M810 711l-368 -444v-93q0 -135 159 -149q-3 -3 8 -4q17 1 33 0q12 1 9 4q159 14 159 149v537zM442 385l368 448v76q0 134 -159 148q3 3 -9 4h-33q-11 -1 -8 -4q-159 -14 -159 -148v-524zM1095 401q-6 -247 -145 -345q-93 -66 -298 -81q1 0 0 -2h-52l-1 2q-223 16 -318 97
l-82 -99h-96l127 155q-69 99 -73 273v1v1v276v1v1q5 247 144 345q94 67 298 81q0 1 1 2h52q1 -1 0 -2q214 -15 310 -89l74 90h102l-121 -147q73 -100 78 -280v-280z" />
    <glyph glyph-name="ugrave" unicode="&#xf9;" horiz-adv-x="1059" 
d="M1013 1053v-923q0 -48 28 -71q14 -10 33.5 -15.5t46.5 -5.5v-41h-264q-27 0 -57 19q-30 17 -42 41q-50 -38 -94.5 -57.5t-87.5 -19.5h-128q-135 0 -225 78q-82 74 -82 173v691q0 84 -110 84v47h382v-890q0 -73 50 -111q34 -26 70 -26h63q62 0 105 46q45 46 45 101v749
q0 84 -110 84v47h377zM280 1550l156 -1l190 -261v-36h-67l-279 235v63z" />
    <glyph glyph-name="uacute" unicode="&#xfa;" horiz-adv-x="1059" 
d="M1011 1053v-923q0 -49 30 -71q26 -21 80 -21v-41h-266q-24 0 -57 19q-14 9 -25 19t-17 22q-97 -77 -180 -77h-128q-137 0 -225 78q-82 72 -82 173v691q0 84 -112 84v47h383v-890q0 -74 49 -111q37 -26 72 -26h61q61 0 107 46q45 48 45 101v749q0 84 -112 84v47h377z
M871 1487l-279 -235h-66v36l189 261l156 1v-63z" />
    <glyph glyph-name="ucircumflex" unicode="&#xfb;" horiz-adv-x="1059" 
d="M1012 1053v-923q0 -49 29 -71q26 -20 80 -20v-41h-265q-27 0 -57 18t-42 41q-97 -77 -181 -77h-128q-137 0 -225 78q-82 73 -82 173v691q0 84 -111 84v47h382v-890q0 -73 50 -111q35 -26 71 -26h62q60 0 106 46q45 46 45 101v749q0 84 -111 84v47h377zM676 1579l222 -296
h-125v31l-207 166l-207 -165v-32h-126l222 296h221z" />
    <glyph glyph-name="udieresis" unicode="&#xfc;" horiz-adv-x="1059" 
d="M1012 1053v-923q0 -49 29 -71q26 -20 80 -20v-41h-265q-27 0 -57 18t-42 41q-97 -77 -181 -77h-128q-137 0 -225 78q-82 73 -82 173v691q0 84 -111 84v47h382v-890q0 -73 50 -111q35 -26 71 -26h62q60 0 106 46q45 46 45 101v749q0 84 -111 84v47h377zM423 1221h-235v236
h235v-236zM913 1221h-235v236h235v-236z" />
    <glyph glyph-name="yacute" unicode="&#xfd;" horiz-adv-x="1120" 
d="M821 1052h290v-46q-45 0 -63 -9q-16 -9 -32 -37l-542 -1455h-283v46q41 0 63 8q10 5 17.5 14.5t15.5 22.5l154 420l-319 936q-19 34 -34 44q-14 10 -66 10v46h401v-44q-46 0 -64 -15q-17 -19 -4 -59l199 -611zM862 1486l-277 -235h-68v36l190 261l155 1v-63z" />
    <glyph glyph-name="thorn" unicode="&#xfe;" horiz-adv-x="1314" 
d="M850 927q0 136 -150 147h-41q-169 -15 -187 -197v-710q16 -102 140 -113q-1 0 15 -1q17 -2 32 -2q16 0 32 2q16 1 15 1q143 13 143 148zM822 1124q162 0 236 -60q71 -59 71 -183v-633q0 -122 -69 -181q-72 -61 -228 -63v0h-226q-92 0 -134 45v-308q0 -55 31 -76
q26 -17 82 -17v-48h-515v48q55 0 78 13q28 15 35 59v1517q0 55 -31 76q-26 16 -82 16v49h402v-328q89 74 226 74h124z" />
    <glyph glyph-name="ydieresis" unicode="&#xff;" horiz-adv-x="1120" 
d="M821 1052h290v-46q-47 0 -63 -9q-17 -9 -33 -37l-541 -1455h-283v46q42 0 63 8q19 11 32 37l155 420l-320 936q-16 34 -33 44q-16 10 -66 10v46h401v-44q-48 0 -64 -15q-17 -17 -4 -58l199 -612zM485 1221h-235v236h235v-236zM975 1221h-235v236h235v-236z" />
    <glyph glyph-name="Abreve" unicode="&#x102;" 
d="M510 0h-480v48q56 0 86 31q14 15 26 38.5t24 58.5l86 261l-20 -5q-81 -20 -81 -90l-33 -9v115l151 40l276 829q40 117 -87 117v49h235q65 0 99 -26q17 -13 29.5 -34t23.5 -50l86 -290q28 -95 100.5 -335.5t190.5 -625.5q14 -41 35 -56q25 -17 74 -17v-49h-508v49
q57 0 82 13q40 22 10 116l-123 399l-264 -69l-114 -338q-24 -74 3 -100q22 -22 93 -22v-48zM1010 1940q-27 -99 -99 -165q-92 -82 -230 -82q-139 0 -231 82q-72 65 -99 166v55h54q48 -152 270 -152q229 0 280 152h55v-56zM555 560l234 62l-100 335z" />
    <glyph glyph-name="abreve" unicode="&#x103;" horiz-adv-x="997" 
d="M323 -11q-151 0 -214 84q-39 51 -39 183v56h1q1 81 47 123q53 48 200 95q151 50 210 71v-117l-36 -11q0 32 -5 49q-6 22 -51 5q-36 -11 -60.5 -31t-41.5 -46q-28 -51 -28 -138v-88q0 -63 20 -109q30 -68 103 -68h56q10 1 19.5 3t18.5 4t16.5 5.5t14.5 7.5q58 43 58 157
v677q0 26 -7 46.5t-21 37.5q-33 41 -85 41h-52q-60 0 -86 -41q-25 -31 -25 -83v-37q0 -76 52 -76q17 0 28 4v-45l-292 -84v304q0 24 7 43.5t22 33.5q14 15 32.5 21.5t41.5 6.5h371q128 0 193 -48q58 -47 66 -150h1v-720l2 2q0 -68 23 -93q18 -18 77 -18v-45h-244
q-64 0 -105 60q-8 -11 -20.5 -23.5t-32.5 -23.5q-19 -11 -35 -17t-28 -6h-8.5t-12.5 -1q-7 -1 -11.5 -1h-7.5h-132zM844 1514q-27 -101 -99 -165q-94 -83 -230 -83q-138 0 -230 83q-73 64 -100 166v54h55q47 -151 269 -151q230 0 280 151h55v-55z" />
    <glyph glyph-name="Dcroat" unicode="&#x110;" horiz-adv-x="1314" 
d="M1317 244q0 -124 -71 -183q-75 -61 -238 -61h-910v49q67 0 90 20q28 25 28 102v526h-206v77h206v536q0 77 -28 102q-23 20 -90 20v49h912q162 0 236 -61q71 -59 71 -183v-993zM866 49q80 3 120 32q49 36 49 117v1086q0 137 -148 149h-221q-99 -1 -181 0v-659h282v-77
h-282v-499q0 -82 51 -117q41 -30 122 -32h208z" />
    <glyph glyph-name="dcroat" unicode="&#x111;" horiz-adv-x="1090" 
d="M572 1414h104v27q0 26 -10 44q-9 17 -23 27q-22 14 -81 14v49h394v-161h134v-167h-134v-1118q0 -52 30 -73q26 -17 80 -17v-42h-279q-69 0 -109 62q-75 -79 -227 -79h-121q-162 0 -230 57q-70 57 -70 178v618q0 119 68 178q71 61 223 61h185q108 0 170 -41v216h-104v167z
M676 879q0 148 -186 148t-186 -148v-709q0 -54 27 -94q33 -49 93 -49h66q90 0 139 68q47 65 47 176v608z" />
    <glyph glyph-name="Itilde" unicode="&#x128;" horiz-adv-x="624" 
d="M356 1888h11h-11zM616 1886q-3 -98 -58 -148q-46 -42 -130 -45h-6q-26 1 -50.5 4t-47.5 10q-12 5 -34 15t-54 26q-47 23 -82 25q-45 -2 -79 -21q-36 -22 -52 -59h-50q6 99 59 148q48 42 131 45h5q27 -1 52 -5t47 -11q12 -3 34 -13t53 -26q45 -23 83 -25q44 2 78 21
q37 22 52 59h49zM30 1483h530v-49q-34 0 -56.5 -5.5t-34.5 -14.5q-29 -27 -29 -102v-1141q0 -39 7.5 -64.5t21.5 -37.5q25 -20 91 -20v-49h-530v49q68 0 90 20q29 23 29 102v1141q0 77 -29 102q-23 20 -90 20v49z" />
    <glyph glyph-name="itilde" unicode="&#x129;" horiz-adv-x="573" 
d="M427 158q0 -72 25 -94q19 -18 83 -18v-46h-490v46q64 0 83 18q26 23 26 94v723q0 65 -32 79q-20 10 -60 -4l-32 -14v43q75 32 137.5 44t115.5 3q147 -20 144 -200v-674zM605 1454q-5 -98 -60 -147q-47 -42 -129 -45h-7q-53 2 -98 15q-12 4 -34 14t-54 26
q-23 11 -43.5 17.5t-38.5 7.5q-22 -1 -41.5 -6.5t-36.5 -14.5q-18 -11 -31 -26t-21 -33h-50q3 49 17 85.5t42 62.5q47 42 130 44h6q53 0 98 -14q13 -4 34.5 -14t53.5 -26q48 -25 82 -26q42 1 78 22q36 20 53 58h50z" />
    <glyph glyph-name="dotlessi" unicode="&#x131;" horiz-adv-x="573" 
d="M427 158q0 -71 25 -94q21 -18 83 -18v-46h-490v46q62 0 83 18q26 23 26 94v723q0 66 -32 79q-21 10 -60 -4l-32 -13v43q148 63 253 47q147 -21 144 -201v-674z" />
    <glyph glyph-name="OE" unicode="&#x152;" horiz-adv-x="2076" 
d="M843 49q132 4 162 84q2 16 2 37v375q-39 -10 -55 -24q-25 -21 -25 -64l-34 -10v115l114 31v712q0 21 -2 39q-28 73 -134 82q-12 1 -492 1v-1230q0 -81 50 -117q41 -29 122 -31h292zM2000 431l-54 -431h-860v9v108q-11 -37 -72 -76q-65 -41 -125 -41h1h-472
q-163 0 -237 61q-71 58 -71 182v0v989q0 124 71 182q74 61 235 61h494q57 -7 113 -45q53 -37 63 -70v106v9h892v-366l-235 -63h-1h1v48q46 16 55 42q8 24 8 136q2 39 -20 77q-43 78 -162 78h-327v-759q235 63 278 75t58 24q28 21 28 66l34 10v-188l-34 -10q-2 41 -21 54
q-14 9 -44 2l-299 -81v-423q0 -84 53 -119q42 -29 128 -30h202q58 0 80 14q30 17 40 74l19 124q8 57 -11 66q-12 7 -62 -6v43l67 18v0v0z" />
    <glyph glyph-name="oe" unicode="&#x153;" horiz-adv-x="1860" 
d="M650 60q70 5 105 34q42 35 42 109v512v0v199q0 132 -141 144q1 0 -15 2q-15 1 -31 1q-15 0 -31 -1q-15 -2 -14 -2q-141 -12 -141 -144v-199v0v-512q0 -74 42 -109q35 -29 104 -34h80zM1584 620q-2 -2 -2 -1v-1h-1q-50 -36 -119 -65q-43 -18 -89 -31v0q-35 -12 -105 -31
l-17 -5q-39 -10 -57 -27q-21 -21 -21 -59l-33 -10v112l33 9l70 19l46 12q70 25 101 78q30 51 30 137v121q0 68 -23 112q-34 68 -115 69h-62q-46 -5 -77 -21q-40 -26 -68 -77q-27 -47 -27 -83v-723q0 -46 46 -85q48 -41 110 -41h84q64 0 96 40q26 34 26 86v0q0 4 1 26
q-2 95 -90 73v46l324 86v-94q0 -155 -115 -238q-102 -74 -262 -74h-66q-144 0 -258 123q-63 -92 -174 -92h1h-2h-317h-2v0q-158 0 -230 59q-70 57 -70 178v620q0 120 68 177q70 60 223 62h339q103 -1 162 -90q96 90 226 90h151q24 0 48 -1v0q50 0 103 -16q81 -24 133 -71
q59 -53 59 -121v-134q0 -80 -67 -135q-6 -6 -11 -9z" />
    <glyph glyph-name="Scaron" unicode="&#x160;" horiz-adv-x="1086" 
d="M1015 1034l-236 -92v48q36 21 50 49t14 82v164q0 70 -40 110q-39 39 -120 39h-150q-90 0 -133 -28q-54 -35 -54 -121v-138q0 -70 40 -110l401 -295l169 -135q61 -50 61 -160v-202q0 -126 -72 -184q-73 -61 -238 -61h-479q-97 0 -150 62q-46 52 -46 138v249l246 91v-49
q-63 -27 -63 -106v-187q0 -82 52 -118q43 -31 125 -31h122q90 0 133 28q54 34 54 121v138q0 80 -40 110l-401 296l-169 134q-61 54 -61 160v202q0 125 71 184q73 61 237 61h492q185 0 185 -180v-269zM413 1693l-222 296h125v-32l208 -165l206 165v32h126l-222 -296h-221z
" />
    <glyph glyph-name="scaron" unicode="&#x161;" horiz-adv-x="837" 
d="M740 481q54 -45 72 -111q9 -36 9 -88q0 -149 -122 -232q-103 -70 -264 -70h-81q-69 0 -126 15q-56 15 -101 47q-76 55 -76 118v152l227 71v-41q-104 -41 -104 -122q0 -90 23 -129q40 -66 162 -66h61q100 0 139 40q34 35 35 123q0 80 -21 119q-23 43 -96 80q-7 4 -98 46
q-87 40 -94 44q-242 129 -248 296q-7 106 17 164q55 136 336 136h75q208 0 289 -102q21 -26 26 -55v-169l-218 -73v41q100 42 100 122v55q0 81 -51 113q-35 21 -105 21h-87q-66 0 -98 -35q-35 -38 -36 -99v-86q0 -109 118 -160q292 -127 337 -165zM307 1283l-222 296h125
v-32l208 -165l206 165v32h126l-222 -296h-221z" />
    <glyph glyph-name="Utilde" unicode="&#x168;" horiz-adv-x="1472" 
d="M773 1889h11h-11zM1033 1885q-2 -50 -16.5 -86t-41.5 -62q-50 -42 -129 -45h-8q-26 1 -50.5 5t-46.5 11q-12 3 -34 13.5t-55 26.5q-46 24 -81 25q-44 -1 -79 -21q-17 -11 -30 -26t-21 -34h-51q5 101 60 148q23 22 55 32.5t74 12.5h6q27 -1 52 -4t47 -10q24 -8 87 -40
q47 -24 83 -25q42 1 78 21q19 10 31.5 25t20.5 33h49zM1275 381q0 -86 -23 -153t-64 -117q-95 -111 -278 -111h-396q-187 0 -282 115q-83 106 -83 278l-1 917q0 76 -28 103q-23 20 -90 20v48l526 1v-48q-58 0 -83 -16q-34 -18 -34 -108v-1112q0 -70 36 -109q37 -40 112 -40
h215q21 0 39 1.5t34 6.5q16 4 29.5 9.5t24.5 12.5q54 34 54 117v1115q0 77 -28 102q-23 21 -90 21v47h529v-47q-68 0 -90 -21q-29 -27 -29 -102v-930z" />
    <glyph glyph-name="utilde" unicode="&#x169;" horiz-adv-x="1158" 
d="M1012 1053v-923q0 -48 28 -71q14 -10 33.5 -15.5t46.5 -5.5v-41h-264q-25 0 -57 19q-31 18 -42 41q-98 -77 -181 -77h-128q-137 0 -225 78q-83 74 -83 173v691q0 84 -110 84v47h382v-890q0 -73 50 -111q34 -26 70 -26h63q62 0 105 46q45 45 45 101v749q0 84 -110 84v47
h377zM897 1444q-3 -97 -59 -147q-47 -42 -129 -45h-8q-52 2 -97 15q-12 4 -34 14t-54 26q-24 11 -44 17.5t-38 7.5q-23 -1 -42 -6.5t-37 -14.5q-35 -22 -51 -59h-50q2 49 16 85.5t42 62.5q49 42 130 44h7q53 0 98 -14q13 -4 34.5 -14t53.5 -26q48 -25 82 -26q42 1 78 22
q36 20 53 58h49z" />
    <glyph glyph-name="Ydieresis" unicode="&#x178;" horiz-adv-x="1434" 
d="M1367 1483v-49q-56 0 -81 -27q-19 -21 -48 -95l-346 -961v-180q0 -77 28 -102q23 -20 90 -20v-49h-529v49q68 0 91 20q28 25 28 102v202q-394 927 -401 946q-26 60 -60 85q-39 29 -109 29v50h288q90 0 134 -112l298 -690l206 631q29 75 -1 104q-19 18 -89 18v49h501z
M596 1631h-235v236h235v-236zM1086 1631h-235v236h235v-236z" />
    <glyph glyph-name="Zcaron" unicode="&#x17d;" horiz-adv-x="1084" 
d="M1044 1483v-92q-707 -1280 -710 -1287q-19 -55 28 -55h569q39 0 39 66h48v-115h-988v92q707 1280 710 1287q19 55 -28 55h-578q-39 0 -39 -66h-39v115h988zM427 1693l-222 296h125v-32l208 -165l206 165v32h126l-222 -296h-221z" />
    <glyph glyph-name="zcaron" unicode="&#x17e;" horiz-adv-x="960" 
d="M38 1054h895v-47q-23 -2 -33 -9q-9 -8 -30 -36l-542 -915h532q36 0 36 63h19v-110h-885v47q29 1 43 15q3 3 29 38l560 902q-8 6 -23 6h-546q-36 0 -36 -63h-19v109zM371 1283l-222 296h125v-32l208 -165l206 165v32h126l-222 -296h-221z" />
    <glyph glyph-name="Ohorn" unicode="&#x1a0;" horiz-adv-x="1276" 
d="M1140 1420q69 -57 69 -183v-992q0 -126 -71 -184q-74 -61 -237 -61h-562q-165 0 -238 61q-71 58 -71 184v992q0 127 71 185q73 61 237 61h572q20 0 38.5 -1t36.5 -3q102 21 102 95q0 21 -6.5 36t-18.5 26q-27 21 -76 21q-12 0 -33 -3l-5 -39l-31 -5l2 102q67 18 106 18
q79 0 128 -35q56 -44 56 -105t-32 -96q-13 -14 -33.5 -25.5t-47.5 -20.5q23 -12 44 -28zM940 1285q0 136 -146 149h-129h-149.5t-215.5 1v-1237q0 -83 49 -117q10 -8 23 -13.5t27 -10.5q17 -4 34.5 -6t39.5 -2h294q38 0 73 8q29 9 50 24q50 36 50 117v1087z" />
    <glyph glyph-name="ohorn" unicode="&#x1a1;" horiz-adv-x="977" 
d="M876 1012q66 -57 66 -172v-606q0 -119 -68 -175q-73 -58 -227 -58h-312q-156 0 -226 58q-68 56 -68 175v606q0 115 66 172q69 62 219 62h332q30 0 59 -3q102 22 102 96q0 40 -25 61q-27 21 -76 21q-14 0 -32 -3l-5 -39l-32 -5l2 102q67 18 106 18q81 0 128 -35
q57 -44 57 -105t-33 -95q-23 -28 -78 -45q26 -12 45 -30zM674 884q0 128 -138 142h-2h-5.5t-7.5 1l-29 2l-31 -2q-5 -1 -11 -1h-3q-138 -14 -138 -142v-695q0 -70 40 -107q9 -7 20 -12.5t23 -10.5q26 -10 60 -10h78q36 0 60 10q12 5 23.5 10.5t19.5 12.5q41 36 41 107v695z
" />
    <glyph glyph-name="Uhorn" unicode="&#x1af;" horiz-adv-x="1472" 
d="M1446 1695q57 -45 57 -105q0 -31 -9 -54t-24 -42q-17 -21 -37.5 -40t-37.5 -20q-69 0 -91 -21q-29 -26 -29 -101v-931q0 -44 -5.5 -82t-17.5 -71q-23 -67 -64 -117q-95 -111 -278 -111h-396q-187 0 -282 116q-83 104 -83 278l-1 917q0 77 -28 102q-23 20 -89 20v49l525 1
v-49q-58 0 -83 -15q-34 -19 -34 -108v-1113q0 -68 36 -110q37 -39 112 -39h215q21 0 39 2t34 6t29.5 9.5t24.5 12.5q54 34 54 117v1116q0 77 -28 101q-23 21 -90 21v48h425q90 24 90 92q0 40 -25 62q-27 21 -76 21q-14 0 -32 -3l-5 -39l-32 -5l2 102q67 18 106 18
q81 0 128 -35z" />
    <glyph glyph-name="uhorn" unicode="&#x1b0;" horiz-adv-x="1158" 
d="M1104 1266q57 -44 57 -105q0 -59 -31 -95q-35 -38 -119 -55v-881q0 -26 7.5 -43t21.5 -29q27 -19 80 -19v-41h-265q-26 0 -57 17q-30 19 -42 41q-99 -76 -180 -76h-128q-69 0 -125 19.5t-101 57.5q-82 73 -82 173v692q0 84 -111 84v47h383v-890q0 -74 49 -111
q35 -26 72 -26h61q60 0 107 46q45 47 45 101v749q0 84 -112 84v47h313q92 24 92 93q0 40 -26 61t-76 21q-11 0 -32 -3l-5 -39l-31 -5l3 102q67 18 104 18q81 0 128 -35z" />
    <glyph glyph-name="circumflex" unicode="&#x2c6;" horiz-adv-x="1234" 
d="M727 1579l222 -296h-125v31l-207 166l-207 -165v-32h-126l222 296h221z" />
    <glyph glyph-name="caron" unicode="&#x2c7;" horiz-adv-x="1234" 
d="M506 1283l-222 296h125v-32l208 -165l206 165v32h126l-222 -296h-221z" />
    <glyph glyph-name="uni02C9" unicode="&#x2c9;" horiz-adv-x="1024" 
d="M770 1320v-125h-516v125h516z" />
    <glyph glyph-name="breve" unicode="&#x2d8;" horiz-adv-x="1234" 
d="M948 1524q-27 -100 -99 -165q-93 -82 -230 -82q-138 0 -230 82q-73 64 -100 166v55h55q47 -152 269 -152q230 0 280 152h55v-56z" />
    <glyph glyph-name="dotaccent" unicode="&#x2d9;" horiz-adv-x="1234" 
d="M508 1480h231v-231h-231v231z" />
    <glyph glyph-name="ring" unicode="&#x2da;" horiz-adv-x="1234" 
d="M675 1383q25 25 25 60q0 34 -25 60q-26 25 -60 25t-60 -25q-25 -26 -25 -60q0 -35 25 -60q26 -25 60 -25t60 25zM502 1330q-47 47 -47 113q0 67 47 114q47 46 113 46q67 0 114 -46q46 -47 46 -114q0 -66 -46 -113q-47 -47 -114 -47q-66 0 -113 47z" />
    <glyph glyph-name="ogonek" unicode="&#x2db;" horiz-adv-x="1234" 
d="M740 2l1 -40q-106 -24 -106 -98q0 -42 26 -63t78 -21q14 0 32 2l6 40l32 5l-2 -104q-69 -19 -107 -19q-84 0 -131 36q-59 45 -59 108q0 62 33 98q36 39 120 56h77z" />
    <glyph glyph-name="tilde" unicode="&#x2dc;" horiz-adv-x="1234" 
d="M679 1760h-10h10zM929 1486q-3 -99 -59 -148q-47 -42 -129 -45h-7q-53 1 -98 15q-24 8 -88 40q-46 24 -82 25q-44 -1 -78 -21q-36 -21 -52 -59h-50q4 99 59 148q47 42 130 45v0q-1 0 6 0q54 -1 98 -15q25 -8 88 -40q46 -24 82 -25q44 1 78 21q37 21 53 59h49z" />
    <glyph glyph-name="hungarumlaut" unicode="&#x2dd;" horiz-adv-x="1234" 
d="M706 1529l-279 -246h-35v38l199 273l115 1v-66zM986 1529l-279 -246h-35v38l199 273l115 1v-66z" />
    <glyph glyph-name="uni037E" unicode="&#x37e;" horiz-adv-x="557" 
d="M392 231v-301v0q0 -126 -58 -184q-63 -63 -215 -67v51q65 4 91 35q27 34 27 117v117h-76v232h231zM158 1092h231v-231h-231v231z" />
    <glyph glyph-name="pi" unicode="&#x3c0;" horiz-adv-x="1649" 
d="M1268 510q0 -286 261 -486l-299 -24q-239 214 -239 572v277h-299q-1 -7 0 -831h-282v827h-53q-166 0 -283 -123l-14 141q123 112 328 113v0h1139v-127h-259v-339z" />
    <glyph glyph-name="uni1EA0" unicode="&#x1ea0;" 
d="M510 0h-480v48q56 0 86 30q28 31 50 98l86 260l-20 -4q-80 -21 -80 -89l-34 -10v115l151 40l276 829q40 117 -87 117v49h235q65 0 100 -26q32 -25 52 -84l86 -290q28 -95 100.5 -335.5t190.5 -626.5q13 -40 36 -55q23 -17 73 -17v-49h-508v49q57 0 82 13q39 22 11 116
l-123 399l-265 -69l-114 -338q-24 -74 3 -101q22 -21 93 -21v-48zM804 -457h-246v247h246v-247zM555 560l235 62l-101 335z" />
    <glyph glyph-name="uni1EA1" unicode="&#x1ea1;" horiz-adv-x="997" 
d="M322 -10q-150 0 -214 84q-19 27 -29 71.5t-10 110.5v57h1q3 82 49 123q53 50 199 96q76 24 128.5 41.5t81.5 28.5v-117l-37 -11q0 34 -4 49q-6 23 -51 5q-68 -23 -101 -76q-14 -26 -21.5 -60t-7.5 -79v-88q0 -32 5 -58.5t14 -49.5q34 -69 105 -69h55q10 1 20 3t18 4
t16.5 6t15.5 8q57 40 57 156v677q0 25 -7 46t-22 37q-15 21 -36 31t-47 10h-53q-59 0 -86 -40q-24 -30 -24 -83v-37q0 -75 52 -75q15 0 28 4v-45l-292 -84v304q0 47 27 77q15 14 33 20.5t42 6.5h372q127 0 191 -49q60 -46 68 -148h1v-720l1 2q0 -72 24 -93q19 -20 76 -20
v-45h-243q-62 0 -106 62q-7 -13 -20 -24.5t-32 -23.5q-40 -23 -65 -23h-7.5t-11.5 -1t-11.5 -1h-9.5h-132zM638 -447h-246v246h246v-246z" />
    <glyph glyph-name="uni1EA2" unicode="&#x1ea2;" 
d="M510 0h-480v48q56 0 86 30q30 31 50 98l86 260l-20 -4q-80 -21 -80 -89l-34 -10v115l152 40l276 829q40 117 -88 117v49h235q65 0 100 -26q17 -13 29.5 -34t22.5 -50l86 -290q28 -95 100.5 -335.5t190.5 -626.5q7 -20 16 -33.5t20 -21.5q23 -17 74 -17v-49h-509v49
q57 0 83 13q40 23 10 116l-123 399l-265 -69l-113 -338q-24 -75 2 -101q24 -21 93 -21v-48zM677 1693h-75v86q103 22 103 96q0 40 -26 61t-76 21q-13 0 -32 -3l-5 -39l-31 -5l2 102q67 18 105 18q81 0 128 -35q57 -44 57 -105q0 -60 -32 -95q-34 -38 -118 -55v-47zM555 560
l236 62l-102 335z" />
    <glyph glyph-name="uni1EA3" unicode="&#x1ea3;" horiz-adv-x="997" 
d="M322 -10q-150 0 -214 84q-19 27 -29 71.5t-10 110.5v57h1q3 82 49 123q53 50 198 96q77 24 129 41.5t82 28.5v-117l-37 -11q0 17 -1.5 29t-3.5 20q-4 23 -50 5q-68 -23 -101 -76q-14 -26 -21.5 -60t-7.5 -79v-88q0 -32 5 -58.5t14 -49.5q34 -69 105 -69h55q10 1 20 3
t18 4t16.5 6t15.5 8q57 40 57 156v677q0 25 -7 46t-22 37q-29 41 -84 41h-53q-58 0 -86 -40q-23 -31 -23 -83v-37q0 -75 52 -75q15 0 28 4v-45l-292 -84v304q0 47 27 77q15 14 33 20.5t42 6.5h372q127 0 191 -49q60 -47 68 -148h1v-720l1 2q0 -72 23 -93q20 -20 76 -20v-45
h-242q-62 0 -106 62q-7 -13 -20 -24.5t-32 -23.5q-20 -11 -35.5 -17t-29.5 -6h-8t-11 -1t-11.5 -1h-9.5h-132zM511 1268h-75v87q102 21 102 95q0 21 -6.5 36t-18.5 26q-26 20 -76 20q-12 0 -33 -3l-4 -39l-32 -5l2 102q67 19 106 19q41 0 72.5 -9.5t55.5 -26.5
q56 -43 56 -105q0 -60 -32 -95q-34 -38 -117 -55v-47z" />
    <glyph glyph-name="uni1EA4" unicode="&#x1ea4;" 
d="M511 0h-480v48q56 0 86 31q28 29 50 97l86 261l-20 -5q-80 -20 -80 -90l-34 -9v115l151 40l276 829q40 117 -87 117v49h235q65 0 100 -26q32 -25 52 -84l86 -290q28 -95 100.5 -335.5t190.5 -625.5q13 -40 36 -56q23 -17 73 -17v-49h-508v49q57 0 82 13q39 22 11 116
l-123 399l-265 -69l-114 -338q-24 -74 3 -100q23 -22 93 -22v-48zM792 1989l222 -296h-125v31l-207 166l-206 -165v-32h-127l222 296h221zM1316 2121l-277 -235h-68v35l191 262l154 1v-63zM556 560l235 62l-101 335z" />
    <glyph glyph-name="uni1EA5" unicode="&#x1ea5;" horiz-adv-x="937" 
d="M253 -11q-151 0 -214 84q-39 52 -39 183v56h1q3 81 48 123q51 48 200 95q151 50 210 71v-117l-37 -11q0 17 -1 29t-3 20q-6 22 -52 5q-35 -11 -59.5 -31t-41.5 -46q-14 -25 -21.5 -59t-7.5 -79v-88q0 -32 5.5 -59t14.5 -50q32 -68 104 -68h56q10 1 19.5 3t18.5 4
q8 2 16 5.5t15 7.5q58 43 58 157v677q0 49 -29 84q-33 41 -84 41h-52q-60 0 -86 -41q-25 -31 -25 -83v-37q0 -76 52 -76q16 0 28 4v-45l-292 -84v304q0 50 28 77q27 28 75 28h371q127 0 192 -48q31 -24 47 -61.5t20 -88.5h1v-720l1 2q0 -35 6.5 -58t17.5 -35q18 -18 76 -18
v-45h-243q-64 0 -105 60q-8 -11 -20.5 -23.5t-32.5 -23.5t-35.5 -17t-28.5 -6h-7.5t-12.5 -1q-7 -1 -11.5 -1h-8.5h-132zM556 1564l222 -296h-125v31l-208 166l-207 -165v-32h-125l222 296h221zM1080 1695l-278 -234h-67v36l190 261l155 1v-64z" />
    <glyph glyph-name="uni1EA6" unicode="&#x1ea6;" 
d="M511 0h-480v48q55 0 86 31q14 15 26.5 38.5t23.5 58.5l86 261l-20 -5q-80 -19 -80 -90l-34 -9v115l151 40l276 829q40 117 -87 117v49h234q66 0 101 -26q32 -25 52 -84l86 -290q28 -95 100.5 -335.5t190.5 -625.5q14 -41 36 -56q23 -17 72 -17v-49h-507v49q58 0 81 13
q40 22 12 116l-123 399l-265 -69l-114 -338q-24 -74 3 -100q22 -22 93 -22v-48zM792 1989l222 -296h-125v31l-207 166l-207 -165v-32h-127l223 296h221zM796 2184l156 -1l189 -262v-35h-67l-278 235v63zM556 560l235 62l-102 335z" />
    <glyph glyph-name="uni1EA7" unicode="&#x1ea7;" horiz-adv-x="937" 
d="M253 -11q-151 0 -214 84q-39 52 -39 183v56h1q3 81 48 123q51 48 199 95q76 25 128.5 42.5t81.5 28.5v-117l-36 -11q0 32 -5 49q-7 21 -51 5q-35 -11 -60 -31t-41 -46q-29 -50 -29 -138v-88q0 -66 20 -109q32 -68 104 -68h55q11 1 20.5 3t17.5 4q9 2 17 5.5t15 7.5
q57 42 57 157v677q0 50 -28 84q-33 41 -84 41h-53q-59 0 -86 -41q-24 -32 -24 -83v-37q0 -76 52 -76q16 0 28 4v-45l-292 -84v304q0 50 28 77q27 28 73 28h373q127 0 192 -48q59 -48 67 -150h1v-720l1 2q0 -69 24 -93q18 -18 76 -18v-45h-243q-63 0 -107 60
q-6 -11 -18.5 -23.5t-32.5 -23.5t-35.5 -17t-28.5 -6h-8.5t-11.5 -1t-11.5 -1h-8.5h-132zM556 1564l221 -296h-125v31l-207 166l-207 -165v-32h-126l223 296h221zM560 1759l155 -1l190 -261v-36h-68l-277 234v64z" />
    <glyph glyph-name="uni1EA8" unicode="&#x1ea8;" 
d="M511 0h-480v48q55 0 86 31q28 29 50 97l86 261l-20 -5q-80 -20 -80 -90l-34 -9v115l151 40l276 829q40 117 -87 117v49h234q66 0 101 -26q32 -25 52 -84l86 -290q28 -95 100.5 -335.5t190.5 -625.5q14 -41 36 -56q23 -17 73 -17v-49h-508v49q57 0 82 13q39 22 11 116
l-123 399l-265 -69l-114 -338q-24 -74 3 -100q22 -22 93 -22v-48zM792 1989l222 -296h-125v31l-207 166l-207 -165v-32h-126l222 296h221zM1047 1886h-75v87q102 21 102 96q0 39 -25 60q-26 22 -76 22q-13 0 -32 -3l-5 -39l-32 -5l2 101q35 9 60.5 14t45.5 5q42 0 73.5 -9
t54.5 -26q57 -45 57 -106q0 -31 -8 -54t-24 -41q-34 -39 -118 -54v-48zM556 560l235 62l-101 335z" />
    <glyph glyph-name="uni1EA9" unicode="&#x1ea9;" horiz-adv-x="937" 
d="M253 -11q-151 0 -214 84q-19 26 -29 71.5t-10 111.5v56h1q3 80 49 123q49 48 198 95q77 25 129 42.5t81 28.5v-117l-36 -11q0 32 -5 49q-6 21 -51 5q-35 -11 -60 -31t-40 -46q-30 -50 -30 -138v-88q0 -63 20 -109q32 -68 105 -68h54q11 1 20.5 3t17.5 4q9 2 17.5 5.5
t15.5 7.5q56 41 56 157v677q0 50 -28 84q-33 41 -83 41h-54q-57 0 -86 -41q-23 -32 -23 -83v-37q0 -76 51 -76q16 0 29 4v-45l-292 -84v304q0 24 6.5 43.5t20.5 33.5q15 15 33 21.5t41 6.5h373q126 0 191 -48q61 -49 67 -150h1v-720l1 2q0 -69 25 -93q18 -18 75 -18v-45
h-242q-63 0 -107 60q-7 -11 -19.5 -23.5t-32.5 -23.5t-35 -17t-29 -6h-8.5t-11.5 -1q-6 -1 -10.5 -1h-9.5h-132zM555 1564l223 -296h-125v31l-207 166l-207 -165v-32h-126l222 296h220zM810 1461h-74v87q103 21 103 95q0 21 -6.5 36t-20.5 26q-23 20 -75 20q-14 0 -32 -3
l-5 -39l-31 -5l2 102q66 19 105 19q81 0 128 -36q57 -45 57 -104t-32 -96q-36 -39 -119 -55v-47z" />
    <glyph glyph-name="uni1EAA" unicode="&#x1eaa;" 
d="M512 0h-481v48q56 0 86 31q15 15 27 38.5t23 58.5l87 261l-21 -5q-80 -20 -80 -90l-34 -9v115l151 40l276 829q40 117 -87 117v49h235q66 0 100 -26q17 -13 29.5 -34t22.5 -50l86 -290q28 -95 101 -335.5t190 -625.5q13 -40 36 -56q23 -17 74 -17v-49h-509v49q57 0 83 13
q40 23 10 116l-123 399l-265 -69l-114 -338q-24 -74 3 -100q23 -22 94 -22v-48zM792 1989l222 -296h-125v31l-206 166l-207 -165v-32h-126l221 296h221zM1003 2285q-3 -99 -58 -147q-47 -41 -129 -46h-7q-26 1 -51 5t-48 11q-12 3 -34 13t-54 27q-47 23 -82 24
q-43 -2 -78 -20q-18 -11 -31 -26t-21 -34h-50q4 98 59 148q45 42 130 45h7q26 -1 50.5 -4t46.5 -10q13 -4 34.5 -14.5t53.5 -25.5q46 -25 82 -26q44 1 79 22q37 20 52 58h49zM557 560l234 62l-100 335z" />
    <glyph glyph-name="uni1EAB" unicode="&#x1eab;" horiz-adv-x="937" 
d="M253 -11q-151 0 -214 84q-40 54 -40 183v56h1q3 79 48 123q53 48 200 95q151 50 210 71v-117l-36 -11q0 32 -5 49q-6 22 -51 5q-35 -11 -60 -31t-41 -46q-29 -50 -29 -138v-88q0 -62 19 -109q33 -68 105 -68h55q10 1 20 3t18 4q9 2 16.5 5.5t15.5 7.5q57 42 57 157v677
q0 51 -29 84q-32 41 -84 41h-52q-59 0 -86 -41q-24 -32 -24 -83v-37q0 -76 52 -76q16 0 27 4v-45l-291 -84v304q0 50 28 77q27 28 74 28h372q127 0 192 -48q59 -48 67 -150h1v-720l1 2q0 -68 23 -93q19 -18 77 -18v-45h-244q-63 0 -105 60q-7 -11 -20 -23.5t-32 -23.5
q-20 -11 -35.5 -17t-28.5 -6h-8.5t-11.5 -1t-12 -1h-9h-131zM555 1564l223 -296h-125v31l-207 166l-208 -165v-32h-126l222 296h221zM766 1860q-3 -98 -59 -147q-45 -42 -129 -45h-6q-27 1 -51.5 4t-47.5 10q-12 4 -34 14.5t-54 25.5q-46 24 -82 26q-42 -2 -77 -22
q-19 -10 -31.5 -25t-21.5 -33h-50q4 97 60 147q45 42 130 45h6q53 -1 97 -15q13 -3 34.5 -13.5t53.5 -26.5q23 -11 44 -17.5t38 -7.5q23 1 42 6.5t36 14.5q19 11 32 26t21 33h49z" />
    <glyph glyph-name="uni1EAC" unicode="&#x1eac;" 
d="M511 0h-481v48q56 0 86 31q15 15 27 38.5t23 58.5l87 261l-21 -5q-80 -20 -80 -90l-34 -9v115l151 40l276 829q40 117 -87 117v49h235q66 0 100 -26q17 -13 29.5 -34t22.5 -50l86 -290q28 -95 101 -335.5t190 -625.5q13 -40 36 -56q23 -17 74 -17v-49h-509v49q57 0 83 13
q40 23 10 116l-123 399l-265 -69l-114 -338q-24 -74 3 -100q23 -22 94 -22v-48zM791 1989l222 -296h-125v31l-206 166l-207 -165v-32h-126l221 296h221zM803 -457h-245v246h245v-246zM556 560l234 62l-100 335z" />
    <glyph glyph-name="uni1EAD" unicode="&#x1ead;" horiz-adv-x="997" 
d="M323 -11q-151 0 -214 84q-40 54 -40 183v56h1q3 79 48 123q53 48 200 95q151 50 210 71v-117l-36 -11q0 32 -5 49q-6 22 -51 5q-35 -11 -60 -31t-41 -46q-29 -50 -29 -138v-88q0 -62 19 -109q33 -68 105 -68h55q10 1 20 3t18 4q9 2 16.5 5.5t15.5 7.5q57 42 57 157v677
q0 51 -29 84q-32 41 -84 41h-52q-59 0 -86 -41q-24 -32 -24 -83v-37q0 -76 52 -76q16 0 27 4v-45l-291 -84v304q0 50 28 77q27 28 74 28h372q127 0 192 -48q59 -48 67 -150h1v-720l1 2q0 -68 23 -93q19 -18 77 -18v-45h-244q-63 0 -105 60q-7 -11 -20 -23.5t-32 -23.5
q-20 -11 -35.5 -17t-28.5 -6h-8.5t-11.5 -1t-12 -1h-9h-131zM625 1564l223 -296h-125v31l-207 166l-208 -165v-32h-126l222 296h221zM638 -448h-246v247h246v-247z" />
    <glyph glyph-name="uni1EAE" unicode="&#x1eae;" 
d="M510 0h-480v48q56 0 86 31q14 15 26 38.5t24 58.5l86 261l-20 -5q-81 -20 -81 -90l-33 -9v115l151 40l276 829q40 117 -87 117v49h235q65 0 99 -26q17 -13 29.5 -34t23.5 -50l86 -290q28 -95 100.5 -335.5t190.5 -625.5q14 -41 35 -56q25 -17 74 -17v-49h-508v49
q57 0 82 13q40 22 10 116l-123 399l-264 -69l-114 -338q-24 -74 3 -100q22 -22 93 -22v-48zM1010 1940q-27 -99 -99 -165q-92 -82 -230 -82q-139 0 -231 82q-72 65 -99 166v55h54q48 -152 270 -152q229 0 280 152h55v-56zM976 2224l-279 -236h-66v36l190 261l155 1v-62z
M555 560l234 62l-100 335z" />
    <glyph glyph-name="uni1EAF" unicode="&#x1eaf;" horiz-adv-x="997" 
d="M323 -11q-151 0 -214 84q-39 51 -39 183v56h1q1 81 47 123q53 48 200 95q151 50 210 71v-117l-36 -11q0 32 -5 49q-6 22 -51 5q-36 -11 -60.5 -31t-41.5 -46q-28 -51 -28 -138v-88q0 -63 20 -109q30 -68 103 -68h56q10 1 19.5 3t18.5 4t16.5 5.5t14.5 7.5q58 43 58 157
v677q0 26 -7 46.5t-21 37.5q-33 41 -85 41h-52q-60 0 -86 -41q-25 -31 -25 -83v-37q0 -76 52 -76q17 0 28 4v-45l-292 -84v304q0 24 7 43.5t22 33.5q14 15 32.5 21.5t41.5 6.5h371q128 0 193 -48q58 -47 66 -150h1v-720l2 2q0 -68 23 -93q18 -18 77 -18v-45h-244
q-64 0 -105 60q-8 -11 -20.5 -23.5t-32.5 -23.5q-19 -11 -35 -17t-28 -6h-8.5t-12.5 -1q-7 -1 -11.5 -1h-7.5h-132zM844 1514q-27 -101 -99 -165q-94 -83 -230 -83q-138 0 -230 83q-73 64 -100 166v54h55q47 -151 269 -151q230 0 280 151h55v-55zM810 1797l-278 -235h-67v36
l190 261l155 1v-63z" />
    <glyph glyph-name="uni1EB0" unicode="&#x1eb0;" 
d="M511 0h-481v48q58 0 86 31q15 15 27 38.5t24 58.5l86 261l-20 -5q-81 -20 -81 -90l-34 -9v115l152 40l275 829q42 117 -87 117v49h236q65 0 99 -26q17 -13 29.5 -34t22.5 -50l87 -290q27 -95 100 -335.5t190 -625.5q15 -41 36 -56q25 -17 74 -17v-49h-508v49q56 0 82 13
q40 22 10 116l-123 399l-264 -69l-115 -338q-23 -74 3 -100q23 -22 94 -22v-48zM1010 1940q-13 -51 -38 -92t-60 -73q-92 -82 -230 -82q-139 0 -231 82q-74 66 -99 166v55h54q48 -152 270 -152q229 0 280 152h54v-56zM365 2286l155 -1l190 -261v-36h-66l-279 236v62z
M556 560l234 62l-100 335z" />
    <glyph glyph-name="uni1EB1" unicode="&#x1eb1;" horiz-adv-x="997" 
d="M323 -11q-151 0 -214 84q-39 51 -39 183v56h1q1 41 13 71.5t34 51.5q53 48 200 95q151 50 210 71v-117l-36 -11q0 32 -5 49q-6 22 -51 5q-35 -11 -60 -31t-42 -46q-28 -51 -28 -138v-88q0 -63 20 -109q32 -68 104 -68h55q10 1 20 3t18 4q9 2 16.5 5.5t15.5 7.5
q57 43 57 157v677q0 51 -29 84q-32 41 -84 41h-52q-60 0 -86 -41q-25 -33 -25 -83v-37q0 -76 53 -76q16 0 27 4v-45l-292 -84v304q0 50 29 77q27 28 74 28h372q127 0 192 -48q59 -48 67 -150h1v-720l1 2q0 -68 23 -93q19 -18 77 -18v-45h-244q-63 0 -105 60
q-7 -11 -20 -23.5t-32 -23.5q-20 -11 -35.5 -17t-28.5 -6h-8.5t-11.5 -1q-8 -1 -12.5 -1h-7.5h-132zM844 1514q-27 -101 -99 -165q-92 -83 -229 -83t-231 83q-73 64 -100 166v54h55q47 -151 269 -151q230 0 280 151h55v-55zM199 1860l155 -1l190 -261v-36h-67l-278 235v63z
" />
    <glyph glyph-name="uni1EB2" unicode="&#x1eb2;" 
d="M510 0h-480v48q56 0 86 31q28 29 50 97l86 261l-19 -5q-81 -20 -81 -90l-34 -9v115l151 40l276 829q42 117 -87 117v49h235q65 0 100 -26q34 -27 52 -84l86 -290q28 -95 100.5 -335.5t190.5 -625.5q14 -42 37 -56q22 -17 72 -17v-49h-508v49q57 0 82 13q39 22 12 116
l-124 399l-264 -69l-115 -338q-24 -74 3 -100q22 -22 93 -22v-48zM1010 1940q-27 -102 -99 -165q-92 -82 -230 -82q-139 0 -230 82q-73 66 -100 166v55h56q45 -152 268 -152q230 0 281 152h54v-56zM738 1988h-75v87q103 21 103 96q0 38 -26 61q-26 21 -76 21q-13 0 -32 -3
l-5 -39l-31 -5l2 102q67 18 106 18q79 0 128 -35q56 -45 56 -105q0 -59 -32 -96q-36 -39 -118 -54v-48zM555 560l236 62l-102 335z" />
    <glyph glyph-name="uni1EB3" unicode="&#x1eb3;" horiz-adv-x="997" 
d="M321 -11q-151 0 -214 84q-19 26 -29 71.5t-10 111.5v56h1q3 80 49 123q26 25 75.5 48.5t123.5 46.5q76 25 128.5 42.5t81.5 28.5v-117l-37 -11q0 17 -1 29t-3 20q-6 22 -51 5q-35 -11 -60 -31t-41 -46q-29 -50 -29 -138v-88q0 -62 19 -109q33 -68 105 -68h55q10 1 20 3
t18 4q17 5 32 13q57 42 57 157v677q0 51 -29 84q-32 41 -83 41h-53q-59 0 -86 -41q-24 -32 -24 -83v-37q0 -76 52 -76q15 0 28 4v-45l-292 -84v304q0 50 27 77q15 15 33 21.5t42 6.5h372q126 0 191 -48q60 -47 68 -150h1v-720l1 2q0 -69 24 -93q18 -18 76 -18v-45h-243
q-64 0 -106 60q-7 -11 -20 -23.5t-32 -23.5q-20 -11 -35.5 -17t-29.5 -6h-7.5t-11.5 -1t-11.5 -1h-9.5h-132zM844 1514q-29 -101 -100 -165q-94 -83 -230 -83q-138 0 -230 83q-37 32 -61.5 73.5t-38.5 92.5v54h55q47 -151 270 -151q115 0 185 38t94 113h56v-55zM571 1562
h-75v87q103 22 103 96q0 41 -26 61t-76 20q-13 0 -31 -3l-5 -39l-32 -5l2 103q67 18 105 18q83 0 128 -36q58 -43 58 -104q0 -59 -33 -95q-34 -38 -118 -56v-47z" />
    <glyph glyph-name="uni1EB4" unicode="&#x1eb4;" 
d="M510 0h-480v48q56 0 86 31q14 15 26 38.5t24 58.5l86 261l-20 -5q-81 -20 -81 -90l-33 -9v115l151 40l276 829q40 117 -87 117v49h235q65 0 99 -26q33 -25 53 -84l86 -290q28 -95 100.5 -335.5t190.5 -625.5q14 -41 36 -56q23 -17 73 -17v-49h-508v49q57 0 82 13
q39 22 11 116l-124 399l-264 -69l-114 -338q-24 -74 3 -100q22 -22 93 -22v-48zM1010 1940q-27 -101 -99 -165q-92 -82 -230 -82q-139 0 -231 82q-72 65 -99 166v55h55q47 -152 269 -152q230 0 280 152h55v-56zM1002 2285q-3 -99 -59 -147q-46 -41 -129 -46h-7
q-26 1 -50.5 5t-47.5 11q-12 3 -34.5 13t-54.5 27q-45 22 -81 24q-42 -1 -78 -20q-34 -20 -53 -60h-49q5 99 59 148q45 42 130 45h6q27 -1 51.5 -4t46.5 -10q13 -4 34.5 -14.5t53.5 -25.5q45 -24 82 -26q43 1 78 22q36 19 53 58h49zM555 560l235 62l-101 335z" />
    <glyph glyph-name="uni1EB5" unicode="&#x1eb5;" horiz-adv-x="997" 
d="M323 -11q-151 0 -214 84q-39 52 -39 183v56h1q3 81 48 123q51 48 199 95q76 25 128.5 42.5t81.5 28.5v-117l-36 -11q0 32 -5 49q-6 22 -51 5q-35 -11 -60 -31t-41 -46q-29 -50 -29 -138v-88q0 -63 20 -109q32 -68 104 -68h55q11 1 20.5 3t17.5 4q9 2 17 5.5t15 7.5
q57 42 57 157v677q0 50 -28 84q-33 41 -84 41h-53q-59 0 -86 -41q-24 -32 -24 -83v-37q0 -76 52 -76q16 0 28 4v-45l-292 -84v304q0 50 28 77q27 28 74 28h372q127 0 192 -48q59 -48 67 -150h1v-720l1 2q0 -69 24 -93q18 -18 76 -18v-45h-243q-64 0 -106 60
q-7 -11 -19.5 -23.5t-32.5 -23.5t-35.5 -17t-28.5 -6h-8.5t-11.5 -1t-11.5 -1h-8.5h-132zM844 1514q-13 -51 -38 -92t-60 -73q-94 -83 -230 -83q-137 0 -231 83q-74 65 -99 166v54h54q48 -151 269 -151q230 0 280 151h55v-55zM836 1859q-3 -98 -58 -147q-45 -42 -129 -45h-7
q-26 1 -51 4t-48 10q-11 4 -33.5 14t-54.5 26q-23 12 -43 18.5t-39 7.5q-40 -1 -78 -22q-17 -10 -30.5 -25t-21.5 -33h-50q4 97 59 147q46 42 130 45h7q53 -2 98 -15q12 -3 34 -13.5t54 -26.5q23 -11 43 -17.5t39 -7.5q22 1 41 6.5t37 14.5q35 21 53 59h48z" />
    <glyph glyph-name="uni1EB6" unicode="&#x1eb6;" 
d="M510 0h-480v48q56 0 86 31q14 15 26 38.5t24 58.5l86 261l-20 -5q-81 -20 -81 -90l-33 -9v115l151 40l276 829q40 117 -87 117v49h235q65 0 99 -26q33 -25 53 -84l86 -290q28 -95 100.5 -335.5t190.5 -625.5q14 -41 36 -56q23 -17 73 -17v-49h-508v49q57 0 82 13
q39 22 11 116l-124 399l-264 -69l-114 -338q-24 -74 3 -100q22 -22 93 -22v-48zM1010 1940q-27 -101 -99 -165q-92 -82 -230 -82q-139 0 -231 82q-72 65 -99 166v55h55q47 -152 269 -152q230 0 280 152h55v-56zM804 -457h-247v246h247v-246zM555 560l235 62l-101 335z" />
    <glyph glyph-name="uni1EB7" unicode="&#x1eb7;" horiz-adv-x="997" 
d="M323 -11q-151 0 -214 84q-39 52 -39 183v56h1q3 81 48 123q51 48 199 95q76 25 128.5 42.5t81.5 28.5v-117l-36 -11q0 32 -5 49q-6 22 -51 5q-35 -11 -60 -31t-41 -46q-29 -50 -29 -138v-88q0 -63 20 -109q32 -68 104 -68h55q11 1 20.5 3t17.5 4q9 2 17 5.5t15 7.5
q57 42 57 157v677q0 50 -28 84q-33 41 -84 41h-53q-59 0 -86 -41q-24 -32 -24 -83v-37q0 -76 52 -76q16 0 28 4v-45l-292 -84v304q0 50 28 77q27 28 74 28h372q127 0 192 -48q59 -48 67 -150h1v-720l1 2q0 -69 24 -93q18 -18 76 -18v-45h-243q-64 0 -106 60
q-7 -11 -19.5 -23.5t-32.5 -23.5t-35.5 -17t-28.5 -6h-8.5t-11.5 -1t-11.5 -1h-8.5h-132zM844 1514q-13 -51 -38 -92t-60 -73q-94 -83 -230 -83q-137 0 -231 83q-74 65 -99 166v54h54q48 -151 269 -151q230 0 280 151h55v-55zM638 -448h-246v247h246v-247z" />
    <glyph glyph-name="uni1EB8" unicode="&#x1eb8;" horiz-adv-x="1167" 
d="M858 365l256 68l-55 -433h-1029v49q67 0 90 20q28 24 28 102v376q-25 -7 -39 -11.5t-17 -6.5q-25 -24 -25 -70l-34 -10v116l115 31v716q0 77 -28 102q-11 9 -33.5 14.5t-56.5 5.5v49h1062v-368l-237 -65v50q60 21 60 88v129q0 66 -36 93q-30 24 -95 24h-344v-762l279 75
q22 6 36.5 11.5t22.5 12.5q28 21 28 66l34 11v-190l-34 -9q-2 42 -21 52q-15 11 -44 4l-301 -82v-425q0 -84 53 -120q44 -29 128 -29h171q59 0 81 13q31 19 40 74l19 125q9 58 -11 66q-12 9 -63 -5v43zM695 -210h-246v-247h246v247z" />
    <glyph glyph-name="uni1EB9" unicode="&#x1eb9;" horiz-adv-x="911" 
d="M846 368q0 -57 -3 -100t-8 -72q-8 -35 -22 -63.5t-34 -48.5q-108 -108 -279 -108h-161q-136 0 -218 72q-83 75 -83 192v613q0 123 117 177q39 20 87.5 29t105.5 9l220 -1q116 0 202 -55q94 -58 94 -146v-144q0 -97 -153 -173q-30 -15 -89 -35.5t-147 -46.5
q-22 -7 -38 -14.5t-24 -16.5q-21 -21 -21 -54l-31 -10v109l143 39q93 25 118 134q8 43 8 192q0 42 -8.5 75.5t-28.5 56.5q-33 44 -94 44h-60q-136 0 -136 -176v-699q0 -61 44 -100q17 -12 32.5 -18.5t32.5 -6.5h97q50 0 82 31q31 28 31 57v59q0 88 -87 71v45zM574 -457h-246
v246h246v-246z" />
    <glyph glyph-name="uni1EBA" unicode="&#x1eba;" horiz-adv-x="1167" 
d="M857 365l256 68l-54 -433h-1029v49q67 0 89 20q29 23 29 102v376q-26 -7 -39.5 -11.5t-17.5 -6.5q-24 -24 -24 -70l-34 -10v116l115 31v716q0 77 -29 102q-23 20 -89 20v49h1061v-368l-236 -65v50q59 21 59 88v129q0 66 -36 93q-29 24 -95 24h-343v-762l279 75
q22 6 36.5 11.5t22.5 12.5q27 21 27 66l34 11v-190l-34 -9q0 41 -20 52q-15 12 -44 4l-301 -82v-425q0 -83 52 -120q46 -29 129 -29h170q59 0 82 13q32 21 39 74l20 125q8 59 -11 66q-13 9 -64 -5v43zM567 1693h-75v86q104 22 104 96q0 40 -27 61q-24 21 -76 21
q-13 0 -32 -3l-5 -39l-31 -5l2 102q67 18 106 18q81 0 127 -35q57 -42 57 -105q0 -62 -32 -95q-34 -38 -118 -55v-47z" />
    <glyph glyph-name="uni1EBB" unicode="&#x1ebb;" horiz-adv-x="911" 
d="M846 369q0 -57 -3 -100t-8 -72q-8 -35 -22 -63.5t-34 -48.5q-108 -108 -279 -108h-161q-136 0 -218 72q-83 75 -83 192v613q0 123 117 177q39 20 87.5 29t105.5 9l220 -1q114 0 202 -55q94 -58 94 -146v-144q0 -98 -154 -173q-29 -15 -88 -35.5t-147 -46.5
q-46 -14 -63 -31q-9 -10 -14.5 -23.5t-5.5 -30.5l-31 -10v109l143 39q93 25 118 134q8 43 8 192q0 42 -8.5 75.5t-28.5 56.5q-33 44 -95 44h-59q-136 0 -136 -176v-699q0 -61 44 -100q34 -25 64 -25h98q50 0 82 31q31 28 31 57v59q0 88 -87 71v45zM447 1259h-75v87
q102 21 102 95q0 40 -25 62q-26 20 -76 20q-13 0 -32 -3l-5 -39l-32 -5l2 102q67 19 106 19q42 0 73.5 -9.5t54.5 -26.5q57 -44 57 -105q0 -59 -33 -95q-34 -38 -117 -55v-47z" />
    <glyph glyph-name="uni1EBC" unicode="&#x1ebc;" horiz-adv-x="1167" 
d="M858 365l256 68l-55 -433h-1029v49q67 0 90 20q28 24 28 102v376q-25 -7 -39 -11.5t-17 -6.5q-25 -24 -25 -70l-34 -10v116l115 31v716q0 77 -28 102q-11 9 -33.5 14.5t-56.5 5.5v49h1062v-368l-237 -65v50q60 21 60 88v129q0 66 -36 93q-30 24 -95 24h-344v-762l279 75
q22 6 36.5 11.5t22.5 12.5q28 21 28 66l34 11v-190l-34 -9q-2 42 -21 52q-15 11 -44 4l-301 -82v-425q0 -84 53 -120q44 -29 128 -29h171q59 0 81 13q31 19 40 74l19 125q9 58 -11 66q-12 9 -63 -5v43zM894 1886q-3 -98 -59 -148q-45 -42 -129 -45h-7q-26 1 -50.5 4
t-47.5 10q-12 5 -34 15t-54 26q-45 23 -82 25q-44 -2 -78 -21q-35 -20 -52 -59h-50q5 99 59 148q46 42 130 45h6q27 -1 51.5 -5t46.5 -11q13 -3 34.5 -13t53.5 -26q45 -23 82 -25q43 1 78 21q36 20 53 59h49zM655 2170h-10h10zM905 1896q-3 -99 -59 -148q-47 -42 -129 -45
h-7q-53 1 -98 15q-24 8 -88 40q-46 24 -82 25q-44 -1 -78 -21q-36 -21 -52 -59h-50q4 99 59 148q47 42 130 45q-1 0 6 0q54 -1 98 -15q25 -8 88 -40q46 -24 82 -25q44 1 78 21q37 21 53 59h49z" />
    <glyph glyph-name="uni1EBD" unicode="&#x1ebd;" horiz-adv-x="911" 
d="M846 369q0 -57 -3 -100t-8 -72q-8 -35 -22 -63.5t-34 -48.5q-108 -108 -279 -108h-161q-136 0 -218 72q-83 75 -83 192v613q0 123 117 177q39 20 87.5 29t105.5 9l220 -1q116 0 202 -55q94 -58 94 -146v-144q0 -97 -153 -173q-30 -15 -89 -35.5t-147 -46.5
q-22 -7 -38 -14.5t-24 -16.5q-21 -21 -21 -54l-31 -10v109l143 39q93 25 118 134q8 43 8 192q0 42 -8.5 75.5t-28.5 56.5q-33 44 -94 44h-60q-136 0 -136 -176v-699q0 -61 44 -100q17 -12 32.5 -18.5t32.5 -6.5h97q50 0 82 31q31 28 31 57v59q0 88 -87 71v45zM772 1451
q-3 -98 -59 -147q-46 -42 -128 -45h-7q-55 2 -98 15q-13 4 -35 14t-54 26q-47 24 -81 25q-22 -1 -41.5 -6.5t-36.5 -14.5q-19 -11 -31.5 -26t-20.5 -33h-51q4 97 60 148q46 42 130 44h6q53 0 97 -14q14 -4 35 -14t53 -26q49 -25 82 -26q23 1 42 6.5t36 15.5q37 20 53 58h49z
" />
    <glyph glyph-name="uni1EBE" unicode="&#x1ebe;" horiz-adv-x="1167" 
d="M859 365l256 68l-56 -433h-1029v49q67 0 90 20q28 24 28 102v377q-47 -13 -55 -19q-26 -23 -26 -70l-34 -10v116l115 31v716q0 77 -28 102q-23 20 -90 20v49h1062v-368l-236 -64v49q59 21 59 88v130q0 68 -36 92q-29 24 -95 24h-344v-762l279 75q42 12 60 23q27 24 27 68
l34 10v-189l-34 -10q-2 41 -21 53q-12 11 -44 3l-301 -82v-425q0 -84 53 -120q46 -29 128 -29h171q61 0 81 13q31 18 40 74l19 125q11 57 -11 67q-12 7 -62 -6v43zM683 1989l222 -296h-125v31l-207 166l-207 -165v-32h-126l221 296h222zM1207 2121l-278 -235h-67v35l190 262
l155 1v-63z" />
    <glyph glyph-name="uni1EBF" unicode="&#x1ebf;" horiz-adv-x="885" 
d="M838 368q0 -114 -12 -172q-15 -72 -56 -111q-109 -109 -278 -109h-161q-135 0 -218 74q-83 72 -83 190v614q0 122 116 178q81 38 194 38l219 -1q58 0 108 -14.5t95 -41.5q93 -59 93 -146v-144q0 -97 -153 -173q-29 -16 -88 -36t-147 -46q-44 -14 -63 -31
q-9 -10 -14.5 -23.5t-5.5 -30.5l-31 -10v109l143 39q93 24 117 134q9 40 9 192q0 86 -37 132q-35 44 -95 44h-60q-135 0 -135 -176v-700q0 -62 44 -98q35 -27 64 -27h98q47 0 82 32q30 28 30 56v60q0 88 -87 70v46zM553 1556l223 -296h-125v31l-208 166l-207 -165v-32h-126
l222 296h221zM1078 1687l-279 -234h-66v36l189 261l156 1v-64z" />
    <glyph glyph-name="uni1EC0" unicode="&#x1ec0;" horiz-adv-x="1167" 
d="M859 365l256 68l-56 -433h-1029v49q67 0 90 20q28 24 28 102v377q-47 -13 -55 -19q-26 -23 -26 -70l-34 -10v116l115 31v716q0 77 -28 102q-23 20 -90 20v49h1062v-368l-236 -64v49q59 21 59 88v130q0 68 -36 92q-29 24 -95 24h-344v-762l279 75q42 12 60 23q28 25 28 68
l33 10v-189l-33 -10q-1 40 -22 53q-12 11 -44 3l-301 -82v-425q0 -84 53 -120q46 -29 128 -29h171q61 0 81 13q31 18 40 74l19 125q11 58 -11 67q-12 7 -62 -6v43zM683 1989l222 -296h-125v31l-207 166l-207 -165v-32h-126l221 296h222zM687 2184l155 -1l190 -262v-35h-67
l-278 235v63z" />
    <glyph glyph-name="uni1EC1" unicode="&#x1ec1;" horiz-adv-x="885" 
d="M838 368q0 -114 -12 -172q-8 -35 -22 -63t-34 -48q-109 -109 -278 -109h-161q-135 0 -218 74q-83 72 -83 190v614q0 122 116 178q81 38 194 38l219 -1q58 0 108 -14.5t95 -41.5q93 -59 93 -146v-144q0 -97 -153 -173q-29 -16 -88 -36t-147 -46q-23 -7 -38.5 -15
t-24.5 -16q-20 -19 -20 -54l-33 -10v109l145 39q93 24 117 134q9 40 9 192q0 86 -37 132q-18 21 -41.5 32.5t-53.5 11.5h-60q-135 0 -135 -176v-700q0 -63 44 -98q35 -27 64 -27h98q24 0 44 8t38 24q30 30 30 56v60q0 88 -87 70v46zM553 1556l221 -296h-125v31l-206 166
l-207 -165v-32h-126l222 296h221zM557 1751l155 -1l190 -261v-36h-67l-278 234v64z" />
    <glyph glyph-name="uni1EC2" unicode="&#x1ec2;" horiz-adv-x="1167" 
d="M857 365l256 68l-55 -433h-1029v49q67 0 90 20q28 24 28 102v377q-48 -13 -56 -19q-25 -24 -25 -70l-34 -10v116l115 31v716q0 77 -28 102q-23 20 -90 20v49h1062v-368l-237 -64v49q60 21 60 88v130q0 66 -36 92q-30 24 -95 24h-343v-762l278 75q22 6 36.5 12t22.5 11
q28 24 28 68l34 10v-189l-34 -10q-2 41 -21 53q-14 11 -44 3l-300 -82v-425q0 -84 52 -120q44 -29 128 -29h171q59 0 81 13q31 19 40 74l19 125q9 58 -11 67q-12 7 -63 -6v43zM681 1989l222 -296h-125v31l-206 166l-207 -165v-32h-126l222 296h220zM936 1886h-75v87
q104 21 104 96q0 39 -27 60q-23 22 -76 22q-13 0 -31 -3l-5 -39l-31 -5l2 101q33 9 59.5 14t44.5 5q42 0 73.5 -9t54.5 -26q58 -46 58 -106q0 -31 -8.5 -54t-24.5 -41q-34 -39 -118 -54v-48z" />
    <glyph glyph-name="uni1EC3" unicode="&#x1ec3;" horiz-adv-x="885" 
d="M838 368q0 -114 -12 -172q-8 -35 -21.5 -63t-34.5 -48q-109 -109 -278 -109h-160q-136 0 -218 74q-83 71 -83 190v614q0 123 115 178q82 38 194 38l219 -1q58 0 108.5 -14.5t95.5 -41.5q92 -59 92 -146v-144q0 -97 -153 -173q-29 -16 -87.5 -36t-147.5 -46
q-23 -7 -38 -15t-25 -16q-20 -20 -20 -54l-32 -10v109l144 39q93 24 117 134q9 40 9 192q0 85 -36 132q-38 44 -96 44h-60q-135 0 -135 -176v-700q0 -62 44 -98q35 -27 64 -27h99q45 0 82 32q29 29 29 56v60q0 88 -87 70v46zM553 1556l222 -296h-125v31l-207 166l-207 -165
v-32h-126l223 296h220zM808 1453h-75v87q103 21 103 95q0 21 -6.5 36t-19.5 26q-24 20 -76 20q-13 0 -32 -3l-5 -39l-31 -5l3 102q66 19 104 19q81 0 128 -36q57 -44 57 -104q0 -59 -31 -96q-37 -39 -119 -55v-47z" />
    <glyph glyph-name="uni1EC4" unicode="&#x1ec4;" horiz-adv-x="1167" 
d="M858 365l256 68l-55 -433h-1029v49q67 0 90 20q28 24 28 102v377q-48 -13 -56 -19q-25 -24 -25 -70l-34 -10v116l115 31v716q0 77 -28 102q-23 20 -90 20v49h1062v-368l-237 -64v49q60 21 60 88v130q0 66 -36 92q-30 24 -95 24h-343v-762l278 75q22 6 36.5 12t22.5 11
q28 24 28 68l34 10v-189l-34 -10q-2 41 -21 53q-14 11 -44 3l-300 -82v-425q0 -84 52 -120q44 -29 128 -29h171q59 0 81 13q31 19 40 74l19 125q9 58 -11 67q-12 7 -63 -6v43zM682 1989l222 -296h-125v31l-206 166l-207 -165v-32h-126l222 296h220zM893 2285
q-3 -99 -58 -147q-46 -41 -129 -46h-7q-26 1 -51 5t-48 11q-11 3 -33.5 13t-54.5 27q-47 23 -82 24q-41 -1 -78 -20q-35 -21 -52 -60h-50q4 98 59 148q45 42 130 45h7q26 -1 50.5 -4t47.5 -10q12 -4 34 -14.5t54 -25.5q45 -25 82 -26q43 1 78 22q36 20 53 58h48z" />
    <glyph glyph-name="uni1EC5" unicode="&#x1ec5;" horiz-adv-x="885" 
d="M838 368q0 -111 -11 -172q-15 -70 -56 -111q-109 -109 -279 -109h-161q-133 0 -218 74q-83 74 -83 190v614q0 122 116 178q81 38 195 38l219 -1q58 0 108 -14.5t95 -41.5q93 -59 93 -146v-144q0 -97 -154 -173q-29 -16 -87.5 -36t-146.5 -46q-45 -13 -64 -31
q-19 -21 -19 -54l-32 -10v109l143 39q94 24 118 134q4 20 6 67.5t2 124.5q0 43 -8.5 76t-28.5 56q-35 44 -95 44h-59q-135 0 -135 -176v-700q0 -62 44 -98q33 -27 63 -27h98q48 0 82 32q31 28 31 56v60q0 88 -87 70v46zM554 1556l222 -296h-125v31l-207 166l-208 -165v-32
h-126l223 296h221zM765 1852q-3 -98 -60 -147q-43 -42 -129 -45h-6q-27 1 -51.5 4t-46.5 10q-13 4 -34.5 14.5t-53.5 25.5q-47 24 -82 26q-42 -1 -78 -22q-19 -10 -31.5 -25t-20.5 -33h-50q5 98 59 147q46 42 130 45h5q56 -2 98 -15q14 -3 35.5 -13.5t53.5 -26.5
q47 -24 81 -25q23 1 42 6.5t36 14.5q20 11 32.5 26t20.5 33h50z" />
    <glyph glyph-name="uni1EC6" unicode="&#x1ec6;" horiz-adv-x="1167" 
d="M858 365l256 68l-55 -433h-1029v49q67 0 90 20q28 24 28 102v377q-48 -13 -56 -19q-25 -24 -25 -70l-34 -10v116l115 31v716q0 77 -28 102q-23 20 -90 20v49h1062v-368l-237 -64v49q60 21 60 88v130q0 66 -36 92q-30 24 -95 24h-343v-762l278 75q22 6 36.5 12t22.5 11
q28 24 28 68l34 10v-189l-34 -10q-2 41 -21 53q-14 11 -44 3l-300 -82v-425q0 -84 52 -120q44 -29 128 -29h171q59 0 81 13q31 19 40 74l19 125q9 58 -11 67q-12 7 -63 -6v43zM682 1989l222 -296h-125v31l-206 166l-207 -165v-32h-126l222 296h220zM695 -457h-246v246h246
v-246z" />
    <glyph glyph-name="uni1EC7" unicode="&#x1ec7;" horiz-adv-x="911" 
d="M846 368q0 -111 -11 -172q-15 -70 -56 -111q-109 -109 -279 -109h-161q-133 0 -218 74q-41 36 -62 83.5t-21 106.5v614q0 122 116 178q81 38 195 38l219 -1q58 0 108 -14.5t95 -41.5q93 -59 93 -146v-144q0 -97 -154 -173q-29 -16 -87.5 -36t-146.5 -46q-45 -13 -64 -31
q-19 -21 -19 -54l-32 -10v109l143 39q94 24 118 134q4 20 6 67.5t2 124.5q0 43 -8.5 76t-28.5 56q-35 44 -95 44h-59q-135 0 -135 -176v-700q0 -62 44 -98q33 -27 63 -27h98q48 0 82 32q31 28 31 56v60q0 88 -87 70v46zM562 1556l222 -296h-125v31l-207 166l-208 -165v-32
h-126l223 296h221zM574 -456h-246v247h246v-247z" />
    <glyph glyph-name="uni1EC8" unicode="&#x1ec8;" horiz-adv-x="624" 
d="M30 1483h529v-49q-34 0 -56.5 -5.5t-33.5 -14.5q-29 -26 -29 -102v-1141q0 -78 29 -102q23 -20 90 -20v-49h-529v49q67 0 90 20q28 24 28 102v1141q0 77 -28 102q-11 9 -33.5 14.5t-56.5 5.5v49zM290 1693h-75v86q103 22 103 96q0 40 -26 61t-76 21q-13 0 -32 -3l-5 -39
l-31 -5l2 102q67 18 105 18q81 0 128 -35q57 -44 57 -105q0 -60 -32 -95q-34 -38 -118 -55v-47z" />
    <glyph glyph-name="uni1EC9" unicode="&#x1ec9;" horiz-adv-x="573" 
d="M428 158q0 -72 24 -94q21 -18 83 -18v-46h-489v46q64 0 83 18q25 22 25 94v723q0 66 -31 79q-20 10 -61 -4l-31 -14v43q75 32 137.5 44t114.5 3q148 -19 145 -200v-674zM279 1262h-74v87q102 21 102 95q0 21 -6.5 36t-19.5 26q-24 20 -75 20q-14 0 -33 -3l-4 -39l-32 -5
l2 102q66 19 106 19q41 0 72.5 -9.5t55.5 -26.5q56 -44 56 -105q0 -60 -32 -95q-34 -38 -118 -55v-47z" />
    <glyph glyph-name="uni1ECA" unicode="&#x1eca;" horiz-adv-x="624" 
d="M29 1483h530v-49q-34 0 -56.5 -5.5t-34.5 -14.5q-29 -27 -29 -102v-1141q0 -39 7.5 -64.5t21.5 -37.5q25 -20 91 -20v-49h-530v49q68 0 90 20q29 23 29 102v1141q0 77 -29 102q-23 20 -90 20v49zM417 -210h-246v-247h246v247z" />
    <glyph glyph-name="uni1ECB" unicode="&#x1ecb;" horiz-adv-x="573" 
d="M427 158q0 -72 25 -94q11 -10 31.5 -14t50.5 -4v-46h-489v46q64 0 83 18q26 24 26 94v723q0 65 -32 79q-20 10 -61 -4l-31 -14v43q75 32 137.5 44t115.5 3q147 -20 144 -200v-674zM405 1262h-245v247h245v-247zM405 -453h-245v246h245v-246z" />
    <glyph glyph-name="uni1ECC" unicode="&#x1ecc;" horiz-adv-x="1276" 
d="M1210 245q0 -125 -72 -185t-237 -60h-562q-165 0 -237 60t-72 185v993q0 125 72 184q75 61 236 61h573q156 0 229 -64q70 -57 70 -181v-993zM767 49q21 0 39 1.5t34 6.5q15 4 27.5 10t22.5 14q50 33 50 117v1087q0 136 -145 149h-129h-150.5t-215.5 1v-1237
q0 -84 50 -117q10 -8 22.5 -14t27.5 -10q16 -5 34 -6.5t39 -1.5h294zM743 -210h-246v-247h246v247z" />
    <glyph glyph-name="uni1ECD" unicode="&#x1ecd;" horiz-adv-x="977" 
d="M656 1073q148 0 219 -61q33 -29 49 -72.5t16 -100.5v-607q0 -119 -68 -175q-70 -57 -226 -57h-312q-157 0 -226 57q-68 56 -68 175v607q0 57 16 100.5t49 72.5q71 61 220 61h331zM673 884q0 129 -138 141h-3q-7 0 -12 1l-29 2l-31 -2q-5 -1 -11 -1h-4q-137 -12 -137 -141
v-697q0 -71 40 -105q8 -7 19.5 -13t23.5 -12q14 -5 28 -7t32 -2h77q34 0 61 9q12 6 23.5 12t19.5 13q41 35 41 105v697zM613 -443h-246v246h246v-246z" />
    <glyph glyph-name="uni1ECE" unicode="&#x1ece;" horiz-adv-x="1276" 
d="M1210 245q0 -125 -72 -185t-237 -60h-562q-165 0 -237 60t-72 185v993q0 125 72 184q75 61 236 61h573q156 0 229 -64q70 -57 70 -181v-993zM767 49q21 0 39 1.5t34 6.5q15 4 27.5 10t22.5 14q50 33 50 117v1087q0 136 -145 149h-129h-150.5t-215.5 1v-1237
q0 -84 50 -117q10 -8 22.5 -14t27.5 -10q16 -5 34 -6.5t39 -1.5h294zM616 1693h-75v86q103 22 103 96q0 40 -26 61t-76 21q-13 0 -32 -3l-5 -39l-31 -5l2 102q67 18 105 18q81 0 128 -35q57 -44 57 -105q0 -60 -32 -95q-34 -38 -118 -55v-47z" />
    <glyph glyph-name="uni1ECF" unicode="&#x1ecf;" horiz-adv-x="977" 
d="M657 1073q148 0 218 -61q34 -29 50 -72.5t16 -100.5v-607q0 -118 -68 -175q-70 -57 -226 -57h-312q-157 0 -226 57q-68 56 -68 175v607q0 57 16 100.5t49 72.5q71 61 220 61h331zM674 884q0 129 -138 141h-3q-7 0 -12 1l-30 2l-30 -2q-5 -1 -12 -1h-3q-137 -12 -137 -141
v-697q0 -71 40 -105q8 -7 19.5 -13t23.5 -12q14 -5 28 -7t32 -2h77q34 0 61 9q12 6 23.5 12t19.5 13q41 35 41 105v697zM487 1272h-75v87q103 21 103 95q0 21 -6.5 36t-20.5 26q-23 20 -75 20q-13 0 -32 -3l-5 -39l-31 -5l2 102q66 19 105 19q42 0 73.5 -9.5t54.5 -26.5
q57 -45 57 -105q0 -31 -8 -54t-24 -41q-35 -38 -118 -55v-47z" />
    <glyph glyph-name="uni1ED0" unicode="&#x1ed0;" horiz-adv-x="1276" 
d="M1211 245q0 -125 -73 -184q-73 -61 -237 -61h-562q-81 0 -140.5 15t-95.5 46q-73 59 -73 184v992q0 126 73 185q71 61 235 61h574q154 0 228 -63q71 -59 71 -183v-992zM767 49q21 0 39 2t34 6q31 9 50 24q50 35 50 117v1087q0 136 -145 149h-129h-150.5t-215.5 1v-1237
q0 -81 50 -117q22 -16 51 -24q32 -8 72 -8h294zM730 1989l223 -296h-125v31l-207 166l-207 -165v-32h-126l222 296h220zM1255 2121l-278 -235h-67v35l190 262l155 1v-63z" />
    <glyph glyph-name="uni1ED1" unicode="&#x1ed1;" horiz-adv-x="977" 
d="M647 1073q149 0 218 -62q67 -58 67 -172v-606q0 -118 -69 -175q-71 -58 -226 -58h-313q-156 0 -226 58q-67 55 -67 175v606q0 116 65 172q69 62 219 62h332zM663 883q0 128 -138 142h-2q-7 0 -12 1l-30 2l-31 -2q-5 -1 -11 -1h-3q-137 -14 -137 -142v-695q0 -71 40 -107
q8 -7 19 -12.5t24 -10.5q24 -10 59 -10h78q36 0 60 10q13 5 24 10.5t19 12.5q41 36 41 107v695zM592 1569l221 -296h-125v31l-207 166l-207 -165v-32h-126l223 296h221zM1115 1700l-277 -234h-67v36l189 261l155 1v-64z" />
    <glyph glyph-name="uni1ED2" unicode="&#x1ed2;" horiz-adv-x="1276" 
d="M1211 245q0 -125 -73 -184q-73 -61 -237 -61h-562q-81 0 -140.5 15t-95.5 46q-73 59 -73 184v992q0 126 73 185q71 61 235 61h574q154 0 228 -63q71 -59 71 -183v-992zM767 49q21 0 39 2t34 6q31 9 50 24q50 35 50 117v1087q0 136 -145 149h-129h-150.5t-215.5 1v-1237
q0 -81 50 -117q22 -16 51 -24q32 -8 72 -8h294zM730 1989l223 -296h-125v31l-207 166l-207 -165v-32h-126l222 296h220zM735 2184l155 -1l190 -262v-35h-67l-278 235v63z" />
    <glyph glyph-name="uni1ED3" unicode="&#x1ed3;" horiz-adv-x="977" 
d="M647 1073q149 0 218 -62q66 -57 66 -172v-606q0 -119 -68 -175q-71 -58 -226 -58h-313q-156 0 -226 58q-69 57 -69 175v606q0 114 67 172q69 62 219 62h332zM663 883q0 128 -138 142h-2q-7 0 -12 1l-30 2l-31 -2q-5 -1 -11 -1h-3q-137 -14 -137 -142v-695q0 -71 40 -107
q8 -7 19 -12.5t24 -10.5q24 -10 59 -10h78q17 0 32 2.5t28 7.5t24 10.5t19 12.5q41 36 41 107v695zM591 1569l222 -296h-125v31l-207 166l-207 -165v-32h-126l222 296h221zM595 1764l155 -1l190 -261v-36h-67l-278 234v64z" />
    <glyph glyph-name="uni1ED4" unicode="&#x1ed4;" horiz-adv-x="1276" 
d="M1210 245q0 -126 -73 -184q-36 -31 -95.5 -46t-140.5 -15h-562q-164 0 -237 61q-72 58 -72 184v992q0 126 72 185q73 61 236 61h573q154 0 229 -63q70 -58 70 -183v-992zM767 49q39 0 73 8q31 9 50 24q50 36 50 117v1087q0 136 -146 149h-129h-149.5t-215.5 1v-1237
q0 -82 50 -117q19 -15 50 -24q16 -4 34 -6t39 -2h294zM730 1989l222 -296h-125v31l-207 166l-206 -165v-32h-126l222 296h220zM985 1886h-75v87q104 21 104 96q0 38 -27 60q-23 22 -76 22q-11 0 -32 -3l-5 -39l-30 -5l2 101q34 9 60 14t44 5q42 0 73.5 -9t54.5 -26
q57 -45 57 -106q0 -31 -8 -54t-23 -41q-36 -39 -119 -54v-48z" />
    <glyph glyph-name="uni1ED5" unicode="&#x1ed5;" horiz-adv-x="977" 
d="M648 1073q149 0 218 -62q65 -56 65 -172v-606q0 -120 -67 -175q-71 -58 -227 -58h-313q-155 0 -225 58q-69 57 -69 175v606q0 114 67 172q69 62 219 62h332zM663 883q0 129 -137 142h-2h-5t-8 1l-29 2l-32 -2q-4 -1 -10 -1h-3q-138 -14 -138 -142v-695q0 -70 40 -107
q16 -12 43 -23q26 -10 60 -10h78q17 0 32 2.5t27 7.5q13 5 24 10.5t19 12.5q41 35 41 107v695zM591 1569l222 -296h-124v31l-207 166l-207 -165v-32h-126l221 296h221zM846 1466h-75v87q103 21 103 95q0 40 -26 62q-24 20 -75 20q-14 0 -32 -3l-5 -39l-32 -5l2 102
q66 19 105 19q83 0 128 -36q58 -44 58 -104q0 -31 -8.5 -54.5t-24.5 -41.5q-36 -39 -118 -55v-47z" />
    <glyph glyph-name="uni1ED6" unicode="&#x1ed6;" horiz-adv-x="1276" 
d="M1211 245q0 -126 -73 -184q-36 -31 -95.5 -46t-140.5 -15h-562q-164 0 -237 61q-73 59 -73 184v992q0 126 73 185q73 61 236 61h573q154 0 228 -63q71 -58 71 -183v-992zM768 49q40 0 72 8q31 9 51 24q50 36 50 117v1087q0 136 -146 149h-129h-149.5t-215.5 1v-1237
q0 -82 50 -117q19 -15 50 -24q16 -4 34 -6t39 -2h294zM731 1989l222 -296h-125v31l-207 166l-207 -165v-32h-125l222 296h220zM943 2285q-3 -98 -60 -147q-44 -41 -129 -46h-7q-26 1 -50.5 5t-47.5 11q-11 3 -33.5 13t-54.5 27q-47 23 -82 24q-41 -1 -78 -20
q-35 -21 -52 -60h-49q2 50 16 86.5t42 61.5q45 42 130 45h6q27 -1 51.5 -4t47.5 -10q12 -4 34 -14.5t54 -25.5q43 -24 82 -26q43 2 77 22q19 10 32 24.5t22 33.5h49z" />
    <glyph glyph-name="uni1ED7" unicode="&#x1ed7;" horiz-adv-x="977" 
d="M646 1073q148 0 219 -62q66 -57 66 -172v-606q0 -119 -68 -175q-73 -58 -226 -58h-313q-156 0 -226 58q-68 56 -68 175v606q0 115 66 172q69 62 219 62h331zM663 883q0 128 -138 142h-2q-8 0 -12 1l-30 2l-31 -2q-5 -1 -11 -1h-3q-137 -13 -137 -142v-695q0 -71 40 -107
q8 -7 19 -12.5t24 -10.5q24 -10 59 -10h77q35 0 61 10q13 5 24 10.5t19 12.5q41 36 41 107v695zM591 1569l221 -296h-125v31l-206 166l-207 -165v-32h-126l222 296h221zM802 1865q-3 -97 -59 -147q-45 -42 -129 -45h-7q-26 1 -50.5 4t-47.5 10q-12 4 -34 14.5t-54 25.5
q-24 12 -44 18.5t-38 7.5q-41 -1 -79 -22q-35 -20 -51 -58h-50q5 98 58 147q48 42 130 45h7q55 -2 98 -15q13 -3 34.5 -13.5t53.5 -26.5q23 -11 43 -17.5t39 -7.5q22 1 41.5 6.5t36.5 14.5q19 11 32 26t21 33h49z" />
    <glyph glyph-name="uni1ED8" unicode="&#x1ed8;" horiz-adv-x="1276" 
d="M1210 245q0 -126 -73 -184q-36 -31 -95.5 -46t-140.5 -15h-562q-164 0 -237 61q-73 59 -73 184v992q0 126 73 185q73 61 236 61h573q154 0 228 -63q71 -58 71 -183v-992zM767 49q40 0 72 8q31 9 51 24q50 36 50 117v1087q0 136 -146 149h-129h-149.5t-215.5 1v-1237
q0 -82 50 -117q19 -15 50 -24q16 -4 34 -6t39 -2h294zM730 1989l222 -296h-125v31l-207 166l-207 -165v-32h-125l222 296h220zM743 -457h-247v246h247v-246z" />
    <glyph glyph-name="uni1ED9" unicode="&#x1ed9;" horiz-adv-x="977" 
d="M656 1073q148 0 219 -62q66 -57 66 -172v-606q0 -119 -68 -175q-73 -58 -226 -58h-313q-156 0 -226 58q-68 56 -68 175v606q0 115 66 172q69 62 219 62h331zM673 883q0 128 -138 142h-2q-8 0 -12 1l-30 2l-31 -2q-5 -1 -11 -1h-3q-137 -13 -137 -142v-695q0 -71 40 -107
q8 -7 19 -12.5t24 -10.5q24 -10 59 -10h77q35 0 61 10q13 5 24 10.5t19 12.5q41 36 41 107v695zM601 1569l221 -296h-125v31l-206 166l-207 -165v-32h-126l222 296h221zM613 -443h-245v247h245v-247z" />
    <glyph glyph-name="uni1EDA" unicode="&#x1eda;" horiz-adv-x="1276" 
d="M1140 1420q69 -57 69 -183v-992q0 -126 -71 -184q-74 -61 -237 -61h-562q-165 0 -238 61q-71 58 -71 184v992q0 127 71 185q73 61 237 61h572q20 0 38.5 -1t36.5 -3q102 21 102 95q0 21 -6.5 36t-18.5 26q-27 21 -76 21q-12 0 -33 -3l-5 -39l-31 -5l2 102q67 18 106 18
q79 0 128 -35q56 -44 56 -105t-32 -96q-13 -14 -33.5 -25.5t-47.5 -20.5q23 -12 44 -28zM940 1285q0 136 -146 149h-129h-149.5t-215.5 1v-1237q0 -83 49 -117q10 -8 23 -13.5t27 -10.5q17 -4 34.5 -6t39.5 -2h294q38 0 73 8q29 9 50 24q50 36 50 117v1087zM915 1928
l-278 -235h-67v36l190 261l155 1v-63z" />
    <glyph glyph-name="uni1EDB" unicode="&#x1edb;" horiz-adv-x="977" 
d="M875 1011q66 -57 66 -172v-606q0 -119 -68 -175q-73 -58 -227 -58h-312q-156 0 -226 58q-68 56 -68 175v606q0 115 66 172q69 62 219 62h332q30 0 59 -3q102 22 102 96q0 40 -25 61q-27 21 -76 21q-14 0 -32 -3l-5 -39l-32 -5l2 102q67 18 106 18q81 0 128 -35
q57 -44 57 -105t-33 -95q-23 -28 -78 -45q26 -12 45 -30zM673 883q0 128 -138 142h-2h-5.5t-7.5 1l-29 2l-31 -2q-5 -1 -11 -1h-3q-138 -14 -138 -142v-695q0 -70 40 -107q9 -7 20 -12.5t23 -10.5q26 -10 60 -10h78q36 0 60 10q12 5 23.5 10.5t19.5 12.5q41 36 41 107v695z
M786 1507l-278 -236h-68v37l191 260l155 1v-62z" />
    <glyph glyph-name="uni1EDC" unicode="&#x1edc;" horiz-adv-x="1276" 
d="M1140 1420q71 -59 71 -183v-992q0 -125 -73 -184q-71 -61 -237 -61h-562q-163 0 -236 61q-73 59 -73 184v992q0 126 73 185q73 61 235 61h574q19 0 37.5 -1t35.5 -3q104 21 104 95q0 21 -6.5 36t-20.5 26q-24 21 -76 21q-13 0 -31 -3l-6 -39l-30 -5l1 102q67 18 105 18
q82 0 128 -35q58 -46 58 -105q0 -31 -8.5 -54.5t-24.5 -41.5q-27 -28 -82 -46q12 -6 23.5 -13t20.5 -15zM940 1285q0 136 -145 149h-129h-150.5t-215.5 1v-1237q0 -81 50 -117q22 -16 51 -24q32 -8 72 -8h294q21 0 39 2t34 6q31 9 50 24q50 35 50 117v1087zM284 1991l155 -1
l190 -261v-36h-67l-278 235v63z" />
    <glyph glyph-name="uni1EDD" unicode="&#x1edd;" horiz-adv-x="977" 
d="M875 1011q66 -57 66 -172v-606q0 -119 -68 -175q-71 -58 -226 -58h-312q-157 0 -227 58q-68 56 -68 175v606q0 115 66 172q69 62 219 62h332q30 0 60 -3q102 22 102 96q0 40 -26 61t-75 21q-14 0 -33 -3l-5 -39l-31 -5l2 102q67 18 106 18q79 0 128 -35q56 -44 56 -105
q0 -62 -32 -95q-25 -28 -79 -45q27 -12 45 -30zM674 883q0 128 -139 142h-2q-7 0 -12 1l-30 2l-30 -2q-5 -1 -7.5 -1h-4.5h-3q-137 -14 -137 -142v-695q0 -71 40 -107q8 -7 19.5 -12.5t23.5 -10.5q24 -10 59 -10h78q35 0 61 10q12 5 23 10.5t20 12.5q41 38 41 107v695z
M195 1569l155 -1l190 -260v-37h-67l-278 236v62z" />
    <glyph glyph-name="uni1EDE" unicode="&#x1ede;" horiz-adv-x="1276" 
d="M1140 1420q70 -58 70 -183v-992q0 -125 -71 -184q-74 -61 -238 -61h-562q-163 0 -237 61q-71 58 -71 184v992q0 127 71 185q74 61 236 61h573q20 0 38.5 -1t35.5 -3q103 21 103 95q0 21 -6.5 36t-19.5 26q-26 21 -76 21q-11 0 -32 -3l-5 -39l-31 -5l3 102q67 18 104 18
q81 0 128 -35q57 -45 57 -105q0 -59 -31 -96q-28 -28 -83 -46q25 -12 44 -28zM940 1285q0 135 -144 149h-129h-151t-216 1v-1237q0 -82 50 -117q19 -15 50 -24q16 -4 34 -6t39 -2h294q22 0 39.5 2t34.5 6q14 5 27 10.5t22 13.5q50 34 50 117v1087zM616 1693h-74v86
q102 22 102 96q0 39 -26 62q-26 20 -75 20q-14 0 -33 -3l-5 -39l-31 -5l2 103q34 9 60 13t46 4q81 0 128 -35q56 -42 56 -104q0 -63 -32 -95q-33 -39 -118 -56v-47z" />
    <glyph glyph-name="uni1EDF" unicode="&#x1edf;" horiz-adv-x="977" 
d="M875 1011q66 -57 66 -172v-606q0 -118 -68 -175q-71 -58 -226 -58h-313q-156 0 -227 58q-67 56 -67 175v606q0 115 66 172q69 62 219 62h332q30 0 59 -3q103 22 103 96q0 40 -26 61t-76 21q-13 0 -32 -3l-5 -39l-31 -5l2 102q67 18 105 18q81 0 128 -35q57 -44 57 -105
q0 -60 -32 -95q-25 -28 -79 -45q13 -6 24 -13t21 -17zM673 883q0 128 -138 142h-2q-7 0 -12 1l-30 2l-31 -2q-5 -1 -12 -1h-2q-137 -14 -137 -142v-695q0 -71 40 -107q8 -7 19 -12.5t24 -10.5q24 -10 59 -10h78q36 0 60 10q13 5 24 10.5t19 12.5q41 36 41 107v695zM486 1271
h-74v87q102 24 102 97q0 41 -26 60q-27 22 -75 22q-16 0 -32 -4l-5 -38l-32 -6l2 102q67 18 106 18q81 0 128 -35q57 -43 57 -105q0 -61 -33 -94q-17 -20 -46.5 -33.5t-71.5 -22.5v-48z" />
    <glyph glyph-name="uni1EE0" unicode="&#x1ee0;" horiz-adv-x="1276" 
d="M1140 1420q70 -58 70 -183v-992q0 -126 -72 -184q-73 -61 -237 -61h-562q-164 0 -237 61q-72 58 -72 184v992q0 126 72 185q73 61 236 61h573q20 0 38.5 -1t35.5 -3q103 21 103 95q0 21 -6.5 36t-19.5 26q-26 21 -76 21q-13 0 -32 -3l-5 -39l-31 -5l2 102q66 18 105 18
q81 0 128 -35q57 -45 57 -105t-33 -96q-13 -14 -33.5 -25.5t-47.5 -20.5q12 -6 23 -13t21 -15zM940 1285q0 136 -146 149h-129h-149.5t-215.5 1v-1237q0 -82 50 -117q19 -15 50 -24q16 -4 34 -6t39 -2h294q39 0 73 8q31 9 50 24q50 36 50 117v1087zM942 1947
q-3 -97 -59 -147q-45 -42 -129 -45h-8q-49 1 -98 14q-23 8 -88 41q-47 23 -82 24q-42 -1 -78 -21q-17 -10 -30.5 -25t-21.5 -33h-49q2 49 16 85.5t42 61.5q45 42 130 45h6q52 -1 99 -14q12 -4 34 -14.5t54 -25.5q45 -25 82 -26q43 2 78 22q36 20 53 58h49z" />
    <glyph glyph-name="uni1EE1" unicode="&#x1ee1;" horiz-adv-x="977" 
d="M876 1011q65 -56 65 -172v-606q0 -120 -68 -175q-71 -58 -226 -58h-313q-155 0 -225 58q-69 55 -69 175v606q0 115 66 172q71 62 220 62h331q30 0 59 -3q103 22 103 96q0 39 -25 61q-27 21 -77 21q-13 0 -32 -3l-5 -39l-31 -5l2 102q67 18 106 18q79 0 128 -35
q56 -43 56 -105q0 -60 -32 -95q-25 -28 -79 -45q26 -12 46 -30zM673 883q0 129 -137 142h-2q-8 0 -13 1l-29 2l-32 -2q-4 -1 -10 -1h-4q-137 -14 -137 -142v-695q0 -70 40 -107q8 -7 19 -12.5t24 -10.5q26 -10 60 -10h77q36 0 60 10q13 5 24 10.5t19 12.5q41 36 41 107v695z
M812 1567q-3 -97 -58 -148q-48 -42 -129 -45h-8q-53 2 -98 15q-12 4 -34 14.5t-54 25.5q-23 12 -43 18.5t-39 6.5q-21 0 -41 -5.5t-37 -15.5q-35 -20 -52 -59h-50q5 99 59 148q46 42 130 45h7q54 -2 97 -15q13 -4 34.5 -14t53.5 -26q24 -11 44 -17.5t38 -7.5q23 1 42 6.5
t37 14.5q37 22 52 59h49z" />
    <glyph glyph-name="uni1EE2" unicode="&#x1ee2;" horiz-adv-x="1276" 
d="M1140 1420q70 -58 70 -183v-992q0 -126 -72 -184q-73 -61 -237 -61h-562q-164 0 -237 61q-72 58 -72 184v992q0 126 72 185q73 61 236 61h573q20 0 38.5 -1t35.5 -3q103 21 103 95q0 21 -6.5 36t-19.5 26q-26 21 -76 21q-13 0 -32 -3l-5 -39l-31 -5l2 102q66 18 105 18
q81 0 128 -35q57 -45 57 -105t-33 -96q-13 -14 -33.5 -25.5t-47.5 -20.5q12 -6 23 -13t21 -15zM940 1285q0 136 -146 149h-129h-149.5t-215.5 1v-1237q0 -82 50 -117q19 -15 50 -24q16 -4 34 -6t39 -2h294q39 0 73 8q31 9 50 24q50 36 50 117v1087zM743 -457h-246v246h246
v-246z" />
    <glyph glyph-name="uni1EE3" unicode="&#x1ee3;" horiz-adv-x="977" 
d="M876 1011q65 -56 65 -172v-606q0 -120 -68 -175q-71 -58 -226 -58h-313q-155 0 -225 58q-69 55 -69 175v606q0 115 66 172q71 62 220 62h331q30 0 59 -3q103 22 103 96q0 39 -25 61q-27 21 -77 21q-13 0 -32 -3l-5 -39l-31 -5l2 102q67 18 106 18q79 0 128 -35
q56 -43 56 -105q0 -60 -32 -95q-25 -28 -79 -45q26 -12 46 -30zM673 883q0 129 -137 142h-2q-8 0 -13 1l-29 2l-32 -2q-4 -1 -10 -1h-4q-137 -14 -137 -142v-695q0 -70 40 -107q8 -7 19 -12.5t24 -10.5q26 -10 60 -10h77q36 0 60 10q13 5 24 10.5t19 12.5q41 36 41 107v695z
M613 -443h-245v247h245v-247z" />
    <glyph glyph-name="uni1EE4" unicode="&#x1ee4;" horiz-adv-x="1472" 
d="M1275 381q0 -86 -23 -153t-64 -117q-95 -111 -278 -111h-396q-187 0 -282 115q-83 106 -83 278l-1 917q0 76 -28 103q-23 20 -90 20v48l526 1v-48q-58 0 -83 -16q-34 -18 -34 -108v-1112q0 -70 36 -109q37 -40 112 -40h215q21 0 39 1.5t34 6.5q16 4 29.5 9.5t24.5 12.5
q54 34 54 117v1115q0 77 -28 102q-23 21 -90 21v47h529v-47q-68 0 -90 -21q-29 -27 -29 -102v-930zM835 -210h-246v-248h246v248z" />
    <glyph glyph-name="uni1EE5" unicode="&#x1ee5;" horiz-adv-x="1158" 
d="M1012 1053v-923q0 -48 28 -71q14 -10 33.5 -15.5t46.5 -5.5v-41h-264q-25 0 -57 19q-31 18 -42 41q-98 -77 -181 -77h-128q-137 0 -225 78q-83 74 -83 173v691q0 84 -110 84v47h382v-890q0 -73 50 -111q34 -26 70 -26h63q62 0 105 46q45 45 45 101v749q0 84 -110 84v47
h377zM698 -463h-245v246h245v-246z" />
    <glyph glyph-name="uni1EE6" unicode="&#x1ee6;" horiz-adv-x="1472" 
d="M1275 381q0 -86 -23 -153t-64 -117q-95 -111 -278 -111h-396q-187 0 -282 115q-83 106 -83 278l-1 917q0 76 -28 103q-23 20 -90 20v48l526 1v-48q-58 0 -83 -16q-34 -18 -34 -108v-1112q0 -70 36 -109q37 -40 112 -40h215q21 0 39 1.5t34 6.5q16 4 29.5 9.5t24.5 12.5
q54 34 54 117v1115q0 77 -28 102q-23 21 -90 21v47h529v-47q-68 0 -90 -21q-29 -27 -29 -102v-930zM708 1692h-75v87q103 22 103 96q0 40 -26 61t-76 21q-13 0 -32 -3l-5 -39l-31 -5l2 102q67 18 105 18q81 0 128 -35q57 -44 57 -105q0 -60 -32 -95q-34 -38 -118 -55v-48z
" />
    <glyph glyph-name="uni1EE7" unicode="&#x1ee7;" horiz-adv-x="1158" 
d="M1012 1053v-923q0 -49 29 -71q27 -21 80 -21v-41h-266q-24 0 -56 19q-15 9 -26 19t-16 22q-98 -77 -181 -77h-128q-137 0 -225 78q-82 72 -82 173v691q0 84 -111 84v47h382v-890q0 -74 50 -111q35 -26 71 -26h61q62 0 107 46t45 101v749q0 84 -112 84v47h378zM571 1252
h-75v87q103 21 103 95q0 21 -6.5 36t-19.5 26q-24 20 -76 20q-11 0 -32 -3l-5 -39l-30 -5l2 102q66 19 104 19q42 0 73.5 -9.5t54.5 -26.5q57 -44 57 -105q0 -31 -8 -54t-23 -41q-37 -39 -119 -55v-47z" />
    <glyph glyph-name="uni1EE8" unicode="&#x1ee8;" horiz-adv-x="1472" 
d="M1446 1695q57 -45 57 -105q0 -31 -9 -54t-24 -42q-17 -21 -37.5 -40t-37.5 -20q-69 0 -91 -21q-29 -26 -29 -101v-931q0 -44 -5.5 -82t-17.5 -71q-23 -67 -64 -117q-95 -111 -278 -111h-396q-187 0 -282 116q-83 104 -83 278l-1 917q0 77 -28 102q-23 20 -89 20v49l525 1
v-49q-58 0 -83 -15q-34 -19 -34 -108v-1113q0 -68 36 -110q37 -39 112 -39h215q21 0 39 2t34 6t29.5 9.5t24.5 12.5q54 34 54 117v1116q0 77 -28 101q-23 21 -90 21v48h425q90 24 90 92q0 40 -25 62q-27 21 -76 21q-14 0 -32 -3l-5 -39l-32 -5l2 102q67 18 106 18
q81 0 128 -35zM915 1928l-278 -235h-67v36l190 261l155 1v-63z" />
    <glyph glyph-name="uni1EE9" unicode="&#x1ee9;" horiz-adv-x="1158" 
d="M1104 1266q57 -44 57 -105q0 -59 -31 -95q-35 -38 -119 -55v-881q0 -26 7.5 -43t21.5 -29q27 -19 80 -19v-41h-265q-26 0 -57 17q-30 19 -42 41q-99 -76 -180 -76h-128q-69 0 -125 19.5t-101 57.5q-82 73 -82 173v692q0 84 -111 84v47h383v-890q0 -74 49 -111
q35 -26 72 -26h61q60 0 107 46q45 47 45 101v749q0 84 -112 84v47h313q92 24 92 93q0 40 -26 61t-76 21q-11 0 -32 -3l-5 -39l-31 -5l3 102q67 18 104 18q81 0 128 -35zM871 1487l-279 -236h-67v37l190 260l156 1v-62z" />
    <glyph glyph-name="uni1EEA" unicode="&#x1eea;" horiz-adv-x="1472" 
d="M1446 1695q57 -45 57 -105q0 -31 -9 -54t-24 -42q-17 -21 -37.5 -40t-37.5 -20q-69 0 -91 -21q-29 -26 -29 -101v-931q0 -44 -5.5 -82t-17.5 -71q-23 -67 -64 -117q-95 -111 -278 -111h-396q-187 0 -282 116q-83 104 -83 278l-1 917q0 77 -28 102q-23 20 -89 20v49l525 1
v-49q-58 0 -83 -15q-34 -19 -34 -108v-1113q0 -68 36 -110q37 -39 112 -39h215q21 0 39 2t34 6t29.5 9.5t24.5 12.5q54 34 54 117v1116q0 77 -28 101q-23 21 -90 21v48h425q90 24 90 92q0 40 -25 62q-27 21 -76 21q-14 0 -32 -3l-5 -39l-32 -5l2 102q67 18 106 18
q81 0 128 -35zM376 1990h155l190 -261v-37h-67l-278 235v63z" />
    <glyph glyph-name="uni1EEB" unicode="&#x1eeb;" horiz-adv-x="1158" 
d="M1105 1266q57 -44 57 -105q0 -60 -32 -95q-17 -20 -47 -33.5t-71 -21.5v-881q0 -26 7.5 -43t21.5 -29q27 -19 80 -19v-41h-266q-25 0 -56 17q-30 19 -42 41q-99 -76 -181 -76h-128q-136 0 -225 77q-82 73 -82 173v692q0 84 -111 84v47h382v-890q0 -74 50 -111
q35 -26 71 -26h62q60 0 106 46q45 45 45 101v749q0 84 -111 84v47h313q92 24 92 93q0 40 -26 61t-77 21q-12 0 -31 -3l-5 -39l-31 -5l2 102q67 18 105 18q81 0 128 -35zM280 1549l155 -1l190 -260v-37h-66l-279 236v62z" />
    <glyph glyph-name="uni1EEC" unicode="&#x1eec;" horiz-adv-x="1472" 
d="M1446 1695q57 -45 57 -105q0 -31 -9 -54t-24 -42q-17 -21 -37.5 -40t-37.5 -20q-69 0 -91 -21q-29 -26 -29 -101v-931q0 -44 -5.5 -82t-17.5 -71q-23 -67 -64 -117q-95 -111 -278 -111h-396q-187 0 -282 116q-83 104 -83 278l-1 917q0 77 -28 102q-23 20 -89 20v49l525 1
v-49q-58 0 -83 -15q-34 -19 -34 -108v-1113q0 -68 36 -110q37 -39 112 -39h215q21 0 39 2t34 6t29.5 9.5t24.5 12.5q54 34 54 117v1116q0 77 -28 101q-23 21 -90 21v48h425q90 24 90 92q0 40 -25 62q-27 21 -76 21q-14 0 -32 -3l-5 -39l-32 -5l2 102q67 18 106 18
q81 0 128 -35zM708 1692h-75v87q103 22 103 96q0 40 -26 61t-76 21q-13 0 -32 -3l-5 -39l-31 -5l2 102q67 18 105 18q81 0 128 -35q57 -44 57 -105q0 -60 -32 -95q-34 -38 -118 -55v-48z" />
    <glyph glyph-name="uni1EED" unicode="&#x1eed;" horiz-adv-x="1158" 
d="M1104 1266q57 -44 57 -105q0 -60 -32 -95q-34 -38 -117 -55v-881q0 -26 7 -43t21 -29q27 -19 80 -19v-41h-265q-27 0 -56 17q-30 19 -43 41q-99 -76 -181 -76h-128q-136 0 -225 77q-82 73 -82 173v692q0 84 -110 84v47h382v-890q0 -74 49 -111q35 -26 71 -26h62
q61 0 106 46q45 45 45 101v749q0 84 -111 84v47h313q92 24 92 93q0 40 -26 61t-76 21q-13 0 -32 -3l-5 -39l-31 -5l2 102q67 18 105 18q81 0 128 -35zM570 1251h-74v87q103 24 103 97q0 40 -27 60q-25 22 -75 22q-16 0 -32 -4l-5 -38l-31 -6l2 102q67 18 104 18
q82 0 128 -35q58 -43 58 -105q0 -60 -32 -94q-18 -20 -47.5 -33.5t-71.5 -22.5v-48z" />
    <glyph glyph-name="uni1EEE" unicode="&#x1eee;" horiz-adv-x="1472" 
d="M1446 1695q56 -44 56 -105q0 -31 -8.5 -54t-22.5 -42q-18 -21 -38.5 -40t-38.5 -20q-68 0 -89 -21q-30 -26 -30 -101v-931q0 -86 -23 -153q-11 -33 -26.5 -62t-37.5 -55q-93 -111 -278 -111h-396q-188 0 -281 116q-83 102 -83 278l-1 917q0 76 -29 102q-22 20 -90 20v49
l526 1v-49q-56 0 -83 -15q-34 -20 -34 -108v-1113q0 -35 9.5 -62t26.5 -48q37 -39 112 -39h215q22 0 39.5 2t34.5 6q31 8 53 22q54 34 54 117v1116q0 77 -27 101q-24 21 -91 21v48h425q90 24 90 92q0 40 -25 62q-27 21 -76 21q-12 0 -33 -3l-4 -39l-31 -5l2 102
q67 18 105 18q81 0 128 -35zM1033 1947q-3 -99 -58 -147q-45 -42 -129 -45h-7q-50 1 -99 14q-23 8 -88 41q-45 22 -81 24q-44 -2 -78 -21q-18 -10 -31 -25t-22 -33h-50q4 97 60 147q23 22 55.5 32.5t74.5 12.5h6q27 -1 51 -4.5t47 -9.5q13 -4 34.5 -14.5t53.5 -25.5
q45 -24 82 -26q43 1 78 22q36 19 53 58h48z" />
    <glyph glyph-name="uni1EEF" unicode="&#x1eef;" horiz-adv-x="1158" 
d="M1104 1266q58 -44 58 -105q0 -31 -8.5 -54.5t-23.5 -40.5q-35 -38 -118 -55v-881q0 -49 29 -72q25 -19 80 -19v-41h-266q-25 0 -56 17q-31 20 -43 41q-97 -76 -180 -76h-128q-136 0 -225 77q-82 72 -82 173v692q0 84 -111 84v47h382v-890q0 -74 49 -111q37 -26 72 -26h61
q61 0 107 46q45 47 45 101v749q0 84 -112 84v47h314q92 24 92 93q0 40 -27 61q-24 21 -76 21q-12 0 -31 -3l-6 -39l-30 -5l2 102q67 18 104 18q82 0 128 -35zM896 1547q-3 -97 -58 -148q-48 -42 -129 -45h-7q-54 2 -99 15q-12 4 -34 14.5t-54 25.5q-47 25 -81 25
q-22 0 -41.5 -5.5t-36.5 -15.5q-19 -11 -31.5 -25.5t-21.5 -33.5h-50q4 98 60 148q45 42 130 45h6q53 -1 97 -15q14 -4 35 -14t53 -26q50 -24 82 -25q23 1 42 6.5t37 14.5q37 20 52 59h49z" />
    <glyph glyph-name="uni1EF0" unicode="&#x1ef0;" horiz-adv-x="1472" 
d="M1446 1695q56 -44 56 -105q0 -31 -8.5 -54t-22.5 -42q-18 -21 -38.5 -40t-38.5 -20q-68 0 -89 -21q-30 -26 -30 -101v-931q0 -86 -23 -153q-11 -33 -26.5 -62t-37.5 -55q-93 -111 -278 -111h-396q-188 0 -281 116q-83 102 -83 278l-1 917q0 76 -29 102q-22 20 -90 20v49
l526 1v-49q-56 0 -83 -15q-34 -20 -34 -108v-1113q0 -35 9.5 -62t26.5 -48q37 -39 112 -39h215q22 0 39.5 2t34.5 6q31 8 53 22q54 34 54 117v1116q0 77 -27 101q-24 21 -91 21v48h425q90 24 90 92q0 40 -25 62q-27 21 -76 21q-12 0 -33 -3l-4 -39l-31 -5l2 102
q67 18 105 18q81 0 128 -35zM836 -457h-247v246h247v-246z" />
    <glyph glyph-name="uni1EF1" unicode="&#x1ef1;" horiz-adv-x="1158" 
d="M1104 1266q58 -44 58 -105q0 -31 -8.5 -54.5t-23.5 -40.5q-35 -38 -118 -55v-881q0 -49 29 -72q25 -19 80 -19v-41h-266q-25 0 -56 17q-31 20 -43 41q-97 -76 -180 -76h-128q-136 0 -225 77q-82 72 -82 173v692q0 84 -111 84v47h382v-890q0 -74 49 -111q37 -26 72 -26h61
q61 0 107 46q45 47 45 101v749q0 84 -112 84v47h314q92 24 92 93q0 40 -27 61q-24 21 -76 21q-12 0 -31 -3l-6 -39l-30 -5l2 102q67 18 104 18q82 0 128 -35zM698 -463h-246v247h246v-247z" />
    <glyph glyph-name="Ygrave" unicode="&#x1ef2;" horiz-adv-x="1408" 
d="M1366 1482v-48q-55 0 -80 -27q-21 -22 -49 -95l-345 -962v-179q0 -76 28 -103q24 -19 89 -19v-49h-528v49q67 0 91 19q28 27 28 103v201l-402 946q-12 31 -27 52t-32 34q-38 28 -110 28v50h289q91 0 133 -112l299 -689l205 631q29 75 -1 103q-18 19 -88 19v48h500z
M362 1991l155 -1l190 -261v-36h-67l-278 234v64z" />
    <glyph glyph-name="ygrave" unicode="&#x1ef3;" horiz-adv-x="1123" 
d="M799 1052h290v-46q-47 0 -63 -9q-18 -10 -33 -37l-542 -1455h-282v46q41 0 63 8q10 5 17.5 14.5t14.5 22.5l155 420l-320 936q-17 34 -34 44q-14 10 -65 10v46h401v-44q-48 0 -64 -15q-18 -18 -4 -59l199 -611zM249 1549l155 -1l190 -261v-36h-67l-278 235v63z" />
    <glyph glyph-name="uni1EF4" unicode="&#x1ef4;" horiz-adv-x="1408" 
d="M1367 1484v-49q-56 0 -81 -28q-19 -19 -48 -94l-346 -962v-180q0 -77 28 -101q24 -21 90 -21v-49h-529v49q67 0 91 21q28 24 28 101v203q-197 463 -297 699.5t-104 245.5q-26 62 -60 86q-20 14 -46.5 21.5t-62.5 7.5v50h288q91 0 134 -113l298 -690l206 632q29 76 -1 103
q-19 19 -89 19v49h501zM822 -457h-247v247h247v-247z" />
    <glyph glyph-name="uni1EF5" unicode="&#x1ef5;" horiz-adv-x="1123" 
d="M799 1052h289v-46q-46 0 -62 -9q-18 -10 -33 -37l-542 -1455h-282v46q41 0 63 8q10 5 17.5 14.5t14.5 22.5l155 420l-320 936q-17 34 -34 44q-14 10 -65 10v46h401v-44q-48 0 -64 -15q-8 -9 -10 -23.5t6 -35.5l199 -611zM966 -464h-246v246h246v-246z" />
    <glyph glyph-name="uni1EF6" unicode="&#x1ef6;" horiz-adv-x="1408" 
d="M1367 1482v-48q-56 0 -81 -27q-19 -21 -48 -95l-346 -962v-179q0 -76 28 -103q24 -19 90 -19v-49h-528v49q66 0 90 19q28 27 28 103v201q-197 464 -297 700t-104 246q-12 31 -27 52t-32 34q-38 28 -110 28v50h288q91 0 134 -112l298 -689l206 631q29 75 -1 103
q-19 19 -88 19v48h500zM695 1693h-76v86q103 22 103 97q0 39 -25 60q-27 21 -76 21q-13 0 -32 -3l-5 -39l-31 -5l2 102q67 18 105 18q81 0 128 -35q57 -44 57 -105q0 -60 -32 -95q-36 -39 -118 -55v-47z" />
    <glyph glyph-name="uni1EF7" unicode="&#x1ef7;" horiz-adv-x="1123" 
d="M799 1052h291v-46q-46 0 -64 -9q-8 -5 -16 -14t-17 -23l-541 -1455h-283v46q40 0 64 8q17 10 31 37l155 420l-319 936q-18 34 -33 44q-17 10 -67 10v46h402v-44q-49 0 -65 -15q-17 -19 -4 -59l200 -611zM602 1251h-74v87q102 21 102 95q0 21 -6.5 36t-19.5 26
q-24 20 -75 20q-14 0 -33 -3l-4 -39l-32 -5l2 102q66 19 105 19q42 0 73.5 -9.5t54.5 -26.5q57 -44 57 -105q0 -60 -32 -95q-34 -38 -118 -55v-47z" />
    <glyph glyph-name="uni1EF8" unicode="&#x1ef8;" horiz-adv-x="1408" 
d="M1367 1484v-49q-56 0 -81 -28q-19 -19 -48 -94l-346 -962v-180q0 -77 28 -101q24 -21 90 -21v-49h-529v49q67 0 91 21q28 24 28 101v203q-197 463 -297 699.5t-104 245.5q-26 62 -60 86q-20 14 -46.5 21.5t-62.5 7.5v50h288q91 0 134 -113l298 -690l206 632q29 76 -1 103
q-19 19 -89 19v49h501zM1020 1886q-3 -97 -59 -147q-23 -22 -55 -32.5t-74 -12.5h-7q-51 1 -98 14q-12 4 -34 14.5t-54 25.5q-45 24 -82 26q-44 -2 -78 -22q-18 -10 -31 -25t-21 -33h-50q5 100 59 147q45 42 130 45h6q53 -1 98 -14q13 -4 34.5 -14t53.5 -27q47 -23 82 -24
q43 1 78 21q19 10 32 25t21 33h49z" />
    <glyph glyph-name="uni1EF9" unicode="&#x1ef9;" horiz-adv-x="1123" 
d="M799 1052h289v-46q-46 0 -62 -9q-18 -10 -33 -37l-542 -1455h-282v46q41 0 63 8q10 5 17.5 14.5t14.5 22.5l155 420l-320 936q-17 34 -34 44q-14 10 -65 10v46h401v-44q-48 0 -64 -15q-8 -9 -10 -23.5t6 -35.5l199 -611zM866 1443q-3 -97 -59 -147q-47 -42 -129 -45h-7
q-53 2 -98 15q-12 4 -34 14t-54 26q-23 11 -43.5 17.5t-38.5 7.5q-22 -1 -41.5 -6.5t-37.5 -14.5q-17 -11 -30 -26t-21 -33h-50q4 97 58 148q49 43 131 44h6q53 0 98 -14q13 -4 34.5 -14t53.5 -26q23 -12 43 -18.5t39 -7.5q42 1 78 22q36 20 53 58h49z" />
    <glyph glyph-name="endash" unicode="&#x2013;" horiz-adv-x="1024" 
d="M98 689h830v-151h-830v151z" />
    <glyph glyph-name="emdash" unicode="&#x2014;" horiz-adv-x="2048" 
d="M111 543v119h1826v-119h-1826z" />
    <glyph glyph-name="quoteleft" unicode="&#x2018;" horiz-adv-x="543" 
d="M147 1318q0 131 60 191q66 65 222 69v-52q-67 -5 -93 -37q-29 -35 -29 -121v-121h79v-239h-239v311v-1z" />
    <glyph glyph-name="quoteright" unicode="&#x2019;" horiz-adv-x="543" 
d="M137 1060q67 5 94 37q28 35 28 121v121h-79v239h239v-311v1q0 -131 -60 -191q-65 -65 -222 -69v52z" />
    <glyph glyph-name="quotesinglbase" unicode="&#x201a;" horiz-adv-x="557" 
d="M75 -236q67 5 94 37q28 35 28 121v121h-79v239h239v-311v1q0 -131 -60 -191q-65 -65 -222 -69v52z" />
    <glyph glyph-name="quotedblleft" unicode="&#x201c;" horiz-adv-x="938" 
d="M147 1318q0 131 60 191q66 65 222 69v-52q-67 -5 -93 -37q-29 -35 -29 -121v-121h79v-239h-239v311v-1zM816 1526q-67 -5 -94 -37q-29 -35 -29 -121v-121h80v-239h-240v311v-1q0 131 61 191q65 65 222 69v-52z" />
    <glyph glyph-name="quotedblright" unicode="&#x201d;" horiz-adv-x="938" 
d="M816 1268q0 -131 -61 -191q-65 -65 -222 -69v52q67 5 94 37q29 35 29 121v121h-80v239h240v-311v1zM147 1060q67 5 94 37q28 35 28 121v121h-79v239h239v-311v1q0 -131 -60 -191q-65 -65 -222 -69v52z" />
    <glyph glyph-name="quotedblbase" unicode="&#x201e;" horiz-adv-x="910" 
d="M75 -236q67 5 94 37q28 35 28 121v121h-79v239h239v-311v1q0 -131 -60 -191q-65 -65 -222 -69v52zM428 -236q67 5 94 37q28 35 28 121v121h-79v239h239v-311v1q0 -131 -60 -191q-65 -65 -222 -69v52z" />
    <glyph glyph-name="dagger" unicode="&#x2020;" horiz-adv-x="1246" 
d="M677 861l45 -1056q2 -31 7 -41q7 -11 27 -11v-45h-257v45q22 0 28 15q5 11 7 53l44 1040l-382 -43v148l382 -43l-41 472q-5 49 -45 49v40h271v-40q-40 0 -45 -51l-41 -470l382 43v-148z" />
    <glyph glyph-name="daggerdbl" unicode="&#x2021;" horiz-adv-x="1014" 
d="M636 -252h7v-40h-271v40h7q33 4 38 49l16 469l-357 -40v148l360 -40l11 263l-11 261l-360 -40v148l357 -40l-19 445q-2 42 -7 53q-6 15 -28 15v5h-7v40h271v-40h-7q-33 -4 -38 -49l-16 -469l357 40v-148l-360 40l-11 -263l11 -261l360 40v-148l-357 40l19 -445
q2 -42 7 -53q6 -15 28 -15v-5z" />
    <glyph glyph-name="bullet" unicode="&#x2022;" horiz-adv-x="1246" 
d="M503 463q-49 49 -49 120q0 70 50 119q49 50 119 50t119 -50q50 -49 50 -119q0 -71 -49 -120t-120 -49t-120 49z" />
    <glyph glyph-name="ellipsis" unicode="&#x2026;" horiz-adv-x="1595" 
d="M79 231h231v-231h-231v231zM1299 231h231v-231h-231v231zM689 231h231v-231h-231v231z" />
    <glyph glyph-name="perthousand" unicode="&#x2030;" horiz-adv-x="2056" 
d="M1039 32q94 7 94 92v329v0v127q0 85 -91 93q1 0 -9 1t-20 1t-20 -1t-9 -1q-91 -8 -91 -93v-127v0v-329q0 -85 94 -92h52zM1122 704q98 -1 143 -39q44 -37 44 -114v-398q0 -78 -45 -114q-47 -38 -148 -38v0q-1 -1 -1 0h-204q-1 -1 -1 0v0q-102 0 -148 38q-45 36 -45 114
v398q0 77 44 114q45 38 143 39h218zM371 777q94 7 94 92v329v0v127q0 85 -90 93q1 0 -9 1q-11 1 -20 1q-10 0 -20 -1l-10 -1q-90 -8 -90 -93v-127v0v-329q0 -85 94 -92h51zM455 1450q98 -2 143 -40q43 -37 43 -114v-398q0 -78 -44 -114q-47 -38 -149 -38h-205
q-102 0 -148 38q-45 36 -45 114v398q0 77 43 114q46 38 144 40h218zM1161 1480h68l-991 -1510h-69zM1713 32q94 7 94 92v329v0v127q0 85 -91 93q1 0 -9 1t-20 1t-20 -1t-9 -1q-91 -8 -91 -93v-127v0v-329q0 -85 94 -92h52zM1796 704q98 -1 143 -39q44 -37 44 -114v-398
q0 -78 -45 -114q-47 -38 -148 -38v0q-1 -1 -1 0h-204q-1 -1 -1 0v0q-102 0 -148 38q-45 36 -45 114v398q0 77 44 114q45 38 143 39h218z" />
    <glyph glyph-name="guilsinglleft" unicode="&#x2039;" horiz-adv-x="695" 
d="M584 196l20 -27l-75 -56v0l-423 431l423 432l75 -56l-20 -27l-24 18l-205 -295q-38 -53 -38 -72q1 -18 38 -71l205 -294z" />
    <glyph glyph-name="guilsinglright" unicode="&#x203a;" horiz-adv-x="695" 
d="M126 893l-20 27l75 56v0l423 -432l-423 -431l-75 56l20 27l24 -18l205 294q37 54 37 73q0 18 -37 71l-206 294z" />
    <glyph glyph-name="fraction" unicode="&#x2044;" horiz-adv-x="74" 
d="M-596 -37l1108 1554h168l-1110 -1554h-166z" />
    <glyph glyph-name="franc" unicode="&#x20a3;" horiz-adv-x="1055" 
d="M753 1065q45 16 53 41q8 26 8 132v6q0 85 -25 116q-25 29 -98 29h-136q-61 0 -82 -22q-26 -25 -26 -97v-587l270 72q42 12 57 24q27 21 27 64l33 10v-183l-33 -10q-2 40 -20 52q-14 10 -42 3l-292 -80v-158l169 45v-46l-169 -46l1 -264q0 -75 27 -99q22 -20 87 -20v-47
h-512v47h15q55 0 75 23q24 24 24 96v187l-114 -31v47l114 31v157q-39 -12 -55 -24q-26 -21 -26 -63l-33 -10v111l114 31v668q0 75 -27 99q-22 20 -87 20v47h933v-356l-230 -62v47v0z" />
    <glyph glyph-name="lira" unicode="&#x20a4;" horiz-adv-x="1246" 
d="M1127 1410q2 -3 4 -8q1 -3 3 -6v-197l-45 -15v0l-205 -68v45q92 29 92 123v15v0q0 35 -4 64v1v0q-13 113 -89 126q-9 2 -21 2h-6l-28 1q-109 -1 -145 -48q-32 -43 -39 -149v-553q113 29 174 47q40 12 54 22q26 20 26 62l32 9v-109l-286 -76v-78q0 -237 -135 -392
q-11 1 313 -67q171 -35 265 50v-147q-75 -68 -192 -63q-62 2 -223 43q-152 38 -238 36q-133 -1 -234 -80v130q45 36 93 59q78 71 78 241q2 211 0 211q-81 -21 -81 -83l-31 -9v107l112 30l2 499q0 184 113 272q112 87 343 87q57 0 119 -18q7 -2 12 -4v0q125 -37 167 -112z
" />
    <glyph glyph-name="peseta" unicode="&#x20a7;" horiz-adv-x="2279" 
d="M699 1245q0 76 -43 110q-16 13 -40 22q-25 9 -59 9h-184v-703l231 65q63 18 81 61q14 33 14 115v321zM1801 636q279 -122 338 -165q81 -53 81 -200q0 -149 -122 -233q-104 -70 -265 -70h-81q-70 0 -126 15q-57 15 -102 47q-76 56 -76 119v152l227 71v-41
q-104 -41 -104 -122v-28q0 -85 43 -125q22 -19 58 -31q35 -12 85 -12h61q100 0 139 40q34 36 35 124q0 92 -21 119q-14 19 -289 171q-248 132 -248 296v11q0 109 17 154q4 10 11 22q-4 -1 -15 -4q-10 -2 -15 -4q-69 -18 -137 -36v-768q0 -72 33 -85q22 -10 64 5l34 13v-44
q-83 -43 -179 -47q-133 -5 -176 93q-17 40 -17 116v641l-236 -66v0l-445 -128v-442q0 -91 17 -116q19 -28 83 -28v-47h-423v47q56 0 75 20q23 24 23 98v396q-32 -11 -45 -24q-21 -21 -21 -62l-29 -10v111l95 30q0 103 -1 307v220q-1 176 -3 184q-6 40 -30 53q-20 11 -64 11
v47h673q126 0 193 -65q31 -30 48 -73q16 -42 16 -98v-209q0 -83 -31 -137l105 30v402l241 77v-406l234 62q88 50 259 50h75q208 0 290 -102q21 -26 26 -55v-170l-219 -73v41q100 42 100 123v55q0 81 -51 113q-35 21 -105 21h-87q-66 0 -98 -35q-36 -38 -37 -99v-86
q0 -110 119 -161z" />
    <glyph glyph-name="Euro" unicode="&#x20ac;" horiz-adv-x="1245" 
d="M893 45q103 44 103 122q3 98 0 123q49 16 184 59q0 -211 -161 -313q-119 -76 -289 -76q-261 0 -414 162q-135 143 -180 402l-136 -38l29 91l96 27q-2 23 -4 44l-121 -33l29 89l88 25q-1 29 -1 53q0 380 225 573q192 164 510 164q175 0 275 -90q112 -100 112 -300
l-248 -67v51q46 16 58 51q9 25 9 103q0 95 -88 153q-72 48 -155 48q-180 0 -296 -149q-136 -175 -140 -514l505 146l-19 -95l-486 -136q1 -24 1 -44l485 136l-29 -179l-42 -10q-2 48 -10 62q-9 14 -35 9l-366 -102q14 -295 87 -430q82 -152 259 -152q86 0 165 35z" />
    <glyph glyph-name="afii61352" unicode="&#x2116;" horiz-adv-x="2267" 
d="M559 0h-529v49q67 0 90 20q28 25 28 102l1 -3v1117q0 97 -26 125q-22 24 -93 24v49h242q70 0 117 -31q41 -28 84 -94l470 -808v762q0 77 -28 102q-23 20 -90 20v49h529v-49q-67 0 -90 -20q-28 -25 -28 -102l-1 3v-1315h-242q-183 314 -342 587q-109 187 -210 360v-776
q0 -77 28 -102q23 -20 90 -20v-49zM1885 724q33 0 58 8q24 7 41 18q41 26 41 78v514q0 96 -134 105h-3q-3 0 -11 1l-29 2l-30 -2q-7 -1 -11 -1h-3q-133 -9 -133 -105v-514q0 -53 39 -78q17 -11 41 -18q25 -8 58 -8h76zM1980 1482q121 0 177 -45q54 -42 54 -128v-448
q0 -88 -55 -129q-59 -43 -184 -43h-254q-126 0 -184 43q-55 41 -55 129v448q0 86 53 128q57 45 178 45h270zM1527 472h614v126h-614v-126z" />
    <glyph glyph-name="trademark" unicode="&#x2122;" horiz-adv-x="1851" 
d="M738 1480v-69h-13q0 33 -27 34h-171q-34 0 -46 -15q-10 -13 -10 -47v-568q0 -39 14 -52q12 -10 46 -10v-25h-269v25q34 0 46 10q14 13 14 52l1 568q0 34 -11 47q-12 15 -46 15h-171q-26 -1 -26 -34h-14v69h683zM1690 1455q-45 0 -61 -27q-12 -19 -12 -65l1 -548
q0 -41 9 -52q8 -10 40 -10v-25h-198l1 450l-221 -405h-49l-216 393v-438h-197v25q31 0 40 10q9 11 9 52v-2v569q0 39 -9 54q-13 19 -52 19v25h139q33 0 52 -9q22 -10 38 -34l227 -421l240 464h219v-25z" />
    <glyph glyph-name="partialdiff" unicode="&#x2202;" horiz-adv-x="1115" 
d="M767 899q0 129 -153 143h-117q-153 -14 -153 -143v-707q0 -130 153 -143h117q153 13 153 143v707zM1041 410q-6 -237 -139 -332q-90 -64 -287 -78h-60t-59 0q-197 14 -287 78q-134 95 -139 332v270q5 237 139 332q90 64 287 78q-1 0 59 0h60q82 -6 136 -17
q-53 146 -254 239q-184 85 -376 80l42 64q418 -17 628 -180q228 -178 248 -554q1 -24 2 -42v-270z" />
    <glyph glyph-name="Delta" unicode="&#x2206;" horiz-adv-x="1585" 
d="M1100 143q43 0 54 16q11 17 -6 55l-423 933q-33 73 -67 1l-426 -896q-30 -64 -21 -86q10 -23 69 -23h820zM1445 137v-137h-1365v142l653 1360h72z" />
    <glyph glyph-name="product" unicode="&#x220f;" horiz-adv-x="1580" 
d="M1508 1432q-67 0 -90 -20q-28 -25 -28 -102v-1139q0 -77 28 -102q23 -20 90 -20v-49h-528v49q67 0 90 20q28 25 28 102v1139q0 77 -28 102q-23 20 -90 20h-531v-1261q0 -77 29 -102q23 -20 90 -20v-49h-528v49q67 0 90 20q28 25 28 102v1139q0 77 -28 102q-23 20 -90 20
v49h1468v-49z" />
    <glyph glyph-name="summation" unicode="&#x2211;" horiz-adv-x="1372" 
d="M1339 197v-197h-1259v109q86 5 132 64l435 467l-466 702q-8 10 -23 31q-11 16 -18 22q-19 18 -60 21v66h1244v-154h-26q0 87 -51 89h-739q-11 0 -19 -3l409 -626q-9 -14 -30 -33l-591 -638h985q51 2 51 80h26z" />
    <glyph glyph-name="minus" unicode="&#x2212;" horiz-adv-x="1014" 
d="M927 786v-139h-840v140h839z" />
    <glyph glyph-name="uni2215" unicode="&#x2215;" horiz-adv-x="342" 
d="M-340 -37l1108 1554h168l-1110 -1554h-166z" />
    <glyph glyph-name="uni2219" unicode="&#x2219;" horiz-adv-x="508" 
d="M129 729h264v-264h-264v264z" />
    <glyph glyph-name="radical" unicode="&#x221a;" horiz-adv-x="1456" 
d="M1488 1635l-714 -1965h-127l-378 698q-29 54 -47 63q-27 14 -80 -17l-51 -29l-1 72l242 138l337 -623q43 -79 73 -73q26 4 50 73l607 1663h89z" />
    <glyph glyph-name="infinity" unicode="&#x221e;" horiz-adv-x="1727" 
d="M1218 392q84 -74 148 -75q64 1 107 50q48 54 60 157q6 44 0 89v0q-12 103 -60 157q-43 49 -107 50q-64 -1 -148 -75q-16 -15 -134 -139q-16 -17 -33 -33q0 -1 -1 -2l-2 -1v0q0 -1 -1 -1h-1l1 -1q1 0 1 -1v0q4 -4 3 -3q17 -16 33 -32q118 -125 134 -140zM676 567l1 1
q1 0 1 1l-2 1v0l-1 1q-2 1 -2 2q-17 16 -32 33q-119 125 -135 139q-84 74 -148 75q-64 -1 -107 -50q-47 -54 -60 -157q-6 -45 0 -89q13 -103 60 -157q43 -49 107 -50q64 1 148 75q16 14 135 140q15 16 32 32q-2 -1 3 3zM1592 459q-5 -30 -16 -60q-1 0 -1 -1
q-32 -85 -103 -150q-75 -69 -167 -90q-102 -23 -200 19q-112 47 -205 173q-17 28 -38 52q-21 -25 -38 -52q-93 -126 -204 -173q-99 -42 -201 -19q-92 21 -166 90q-72 65 -104 151v-1q-1 2 0 1q-12 30 -16 59q-19 89 -10 178q9 84 38 130q38 81 110 139q75 61 164 77
q99 17 193 -26q107 -48 196 -169v0q17 -27 38 -52q22 25 38 52v0q89 121 196 169q94 43 193 26q89 -16 165 -77q71 -58 110 -139q28 -46 37 -130q9 -89 -9 -177z" />
    <glyph glyph-name="integral" unicode="&#x222b;" horiz-adv-x="1246" 
d="M837 1557q70 0 122 -43q52 -45 52 -109q0 -125 -116 -125q-103 0 -103 108q0 25 11 47q1 2 2 33q2 31 3 33q-49 0 -63 -43q-18 -55 -18 -303l3 -193l9 -293v-85q0 -460 -76 -661q-39 -105 -105 -158q-67 -55 -160 -55q-73 0 -124 40q-54 42 -54 104q0 48 36 85
q36 36 84 36q105 0 106 -104q1 -53 -30 -101q49 2 65 44q32 85 32 278l-4 207l-10 291v85q0 468 74 670q78 212 264 212z" />
    <glyph glyph-name="approxequal" unicode="&#x2248;" horiz-adv-x="1246" 
d="M1148 925l-5 -54q0 -70 -51 -139q-52 -69 -133 -108q-89 -42 -184 -33q-107 10 -201 84v0q-1 0 -2 1l-2 2q-16 12 -30 26q-110 100 -125 111q-78 60 -138 61q-60 -1 -100 -40q-44 -43 -55 -126l-63 -36l5 54q0 77 61 151q62 75 157 109q104 38 209 9q121 -32 220 -148v0
q42 -58 102 -93q60 -34 118 -33q62 1 102 44q44 48 53 140zM1148 509l-5 -54q0 -70 -51 -139q-52 -69 -133 -107q-89 -43 -184 -34q-107 10 -201 84v0q-1 1 -2 1l-2 2q-16 13 -30 26q-110 100 -125 112q-78 59 -138 60q-60 -1 -100 -40q-44 -43 -55 -126l-63 -36l5 54
q0 77 61 151q62 75 157 109q104 38 209 9q121 -32 220 -148v0q42 -58 102 -92q60 -35 118 -34q62 2 102 44q44 48 53 140z" />
    <glyph glyph-name="lessequal" unicode="&#x2264;" horiz-adv-x="1014" 
d="M87 757l840 484v-167l-625 -359l625 -355v-167l-840 481v83zM927 140v-139h-840v140h839z" />
    <glyph glyph-name="greaterequal" unicode="&#x2265;" horiz-adv-x="1014" 
d="M712 715l-625 359v167l840 -484v-83l-840 -481v167zM927 141v-139h-840v140h839z" />
    <glyph glyph-name="lozenge" unicode="&#x25ca;" horiz-adv-x="1246" 
d="M583 216q29 -29 41 -29q10 1 41 31l289 282q32 32 33 41q1 11 -28 41l-294 284q-31 30 -41 30q-11 0 -42 -30l-282 -279q-30 -31 -30 -44q-1 -13 29 -43zM1166 543l-543 -543l-543 543l543 543z" />
    <glyph glyph-name="uniF001" unicode="&#xf001;" horiz-adv-x="1073" 
 />
    <glyph glyph-name="uniF002" unicode="&#xf002;" horiz-adv-x="1081" 
 />
    <glyph glyph-name="fi" unicode="&#xfb01;" horiz-adv-x="1423" 
d="M1254 843v-679q0 -74 27 -98q22 -19 86 -19v-47h-510v47q65 0 87 19q27 24 27 98v730q0 68 -32 82q-21 9 -63 -6l-27 -9q-39 -13 -227 -80q-182 -65 -183 -65v-652q0 -74 27 -98q22 -19 87 -19v-47h-510v47q64 0 87 19q27 24 27 98q1 561 0 561q-84 -26 -84 -107l-33 -9
v111l117 41q1 338 1 543q0 143 131 223q111 67 278 72q123 3 211 -63q51 -39 64 -69v-226l-46 -15v0l-180 -70v46q95 31 95 128q0 29 -1 45q0 176 -142 176q-68 0 -98 -52q-31 -53 -31 -174v-463q16 4 432 152v0q24 10 46 17q80 26 144 25q120 2 175 -100q18 -41 18 -113z
M1245 1192h-281v281h281v-281z" />
    <glyph glyph-name="fl" unicode="&#xfb02;" horiz-adv-x="1272" 
d="M1099 164q0 -75 29 -98q26 -19 86 -19v-47h-499v47q66 0 82 19q20 25 20 98v1342q-145 70 -248 25h-2q-1 -1 -2 -1l-8 -4q-7 -4 -8 -4q-1 -1 0 -1q-99 -57 -100 -192v-472q6 2 76 20q68 18 81 22q42 11 57 23q27 21 27 64l33 10v-182l-33 -10q-3 62 -51 56
q-17 -4 -103 -26q-83 -22 -87 -23v-647q0 -74 27 -98q22 -19 87 -19v-47h-510v47q64 0 87 19q27 24 27 98q1 572 0 571q-84 -21 -84 -85l-33 -10v111l117 31q1 264 1 466q-1 -1 1 0q7 351 504 351q226 0 325 -85q100 -86 101 -288v1v-1063z" />
    <glyph glyph-name="NULL" horiz-adv-x="0" 
 />
    </font>
</defs>
</svg>
